<?xml version="1.0" encoding="utf-8"?>
<!-- Generator: Adobe Illustrator 23.1.1, SVG Export Plug-In . SVG Version: 6.00 Build 0)  -->
<!DOCTYPE svg PUBLIC "-//W3C//DTD SVG 1.1//EN" "http://www.w3.org/Graphics/SVG/1.1/DTD/svg11.dtd" [
	<!ENTITY ns_extend "http://ns.adobe.com/Extensibility/1.0/">
	<!ENTITY ns_ai "http://ns.adobe.com/AdobeIllustrator/10.0/">
	<!ENTITY ns_graphs "http://ns.adobe.com/Graphs/1.0/">
	<!ENTITY ns_vars "http://ns.adobe.com/Variables/1.0/">
	<!ENTITY ns_imrep "http://ns.adobe.com/ImageReplacement/1.0/">
	<!ENTITY ns_sfw "http://ns.adobe.com/SaveForWeb/1.0/">
	<!ENTITY ns_custom "http://ns.adobe.com/GenericCustomNamespace/1.0/">
	<!ENTITY ns_adobe_xpath "http://ns.adobe.com/XPath/1.0/">
]>
<svg version="1.1" id="Layer_1" xmlns:x="&ns_extend;" xmlns:i="&ns_ai;" xmlns:graph="&ns_graphs;"
	 xmlns="http://www.w3.org/2000/svg" xmlns:xlink="http://www.w3.org/1999/xlink" x="0px" y="0px" viewBox="0 0 71.4 68.2"
	 style="enable-background:new 0 0 71.4 68.2;" xml:space="preserve">
<style type="text/css">
	.st0{fill:url(#SVGID_1_);}
</style>
<metadata>
	<sfw  xmlns="&ns_sfw;">
		<slices></slices>
		<sliceSourceBounds  bottomLeftOrigin="true" height="68.2" width="46.7" x="12.3" y="0"></sliceSourceBounds>
	</sfw>
</metadata>
<linearGradient id="SVGID_1_" gradientUnits="userSpaceOnUse" x1="35.7" y1="187.0457" x2="35.7" y2="252.2522" gradientTransform="matrix(1 0 0 1 0 -185.75)">
	<stop  offset="9.188332e-02" style="stop-color:#E1A43F"/>
	<stop  offset="0.473" style="stop-color:#DE8237"/>
	<stop  offset="0.8472" style="stop-color:#DC6531"/>
</linearGradient>
<path class="st0" d="M47,11.2l1.7-1.3c0.8-0.6,2-0.7,2.9-0.3l6.2,3.1l1.3-2.7L52.9,7c-0.5-0.2-1-0.4-1.5-0.5V4.3
	C51.4,3.6,52,3,52.7,3h5.7V0h-5.7c-2.4,0-4.3,2-4.3,4.3v2.4c-0.5,0.2-1,0.5-1.5,0.8l-1.7,1.3c-1,0.7-2.2,1.1-3.3,1.1H29.5
	c-1.2,0-2.4-0.4-3.4-1.1l-1.7-1.3c-0.5-0.3-1-0.6-1.5-0.8V4.3C23,2,21.1,0,18.7,0H13v3h5.7C19.4,3,20,3.6,20,4.3v2.2
	c-0.5,0.1-1,0.3-1.5,0.5l-6.2,3.1l1.3,2.7l6.2-3.1c0.9-0.5,2-0.4,2.9,0.3l1.7,1.3c1.2,0.9,2.6,1.5,4.1,1.6v7.3
	c-1.6,0.6-2.8,2.2-2.8,4.1v7h-1.3c-2.4,0-4.3,1.9-4.3,4.3V44h-4.2v3H20v2.8c0,2.4,2,4.3,4.3,4.3h7v9.9c0,2.4,1.9,4.3,4.3,4.3
	s4.3-1.9,4.3-4.3v-9.9h7c2.4,0,4.3-2,4.3-4.3V47h4.2v-3h-4.2v-8.4c0-2.4-2-4.3-4.3-4.3h-1.3v-7c0-1.9-1.2-3.4-2.8-4.1v-7.3
	C44.4,12.7,45.8,12.1,47,11.2z M25.7,51.1h-1.3c-0.7,0-1.3-0.6-1.3-1.3V35.5c0-0.7,0.6-1.3,1.3-1.3h1.3V51.1z M45.7,34.2H47
	c0.7,0,1.3,0.6,1.3,1.3v14.2c0,0.7-0.6,1.3-1.3,1.3h-1.3V34.2z M31.5,12.9h8.4v4.5c-1-1.1-2.5-1.8-4.2-1.8s-3.1,0.7-4.2,1.8
	L31.5,12.9L31.5,12.9z M38.5,21.4c0,1.5-1.2,2.8-2.8,2.8s-2.8-1.2-2.8-2.8s1.2-2.8,2.8-2.8S38.5,19.8,38.5,21.4z M37,63.9
	c0,0.7-0.6,1.3-1.3,1.3s-1.3-0.6-1.3-1.3V38.4c0-0.7,0.6-1.3,1.3-1.3s1.3,0.6,1.3,1.3V63.9z M42.7,32.7v1.5v16.9H40V38.4
	c0-2.4-2-4.3-4.3-4.3s-4.3,2-4.3,4.3v12.7h-2.7V34.2v-1.5v-8.5c0-0.7,0.6-1.3,1.3-1.3h0.1c0.7,2.5,2.9,4.2,5.5,4.2
	c2.7,0,4.9-1.8,5.5-4.2h0.1c0.7,0,1.3,0.6,1.3,1.3L42.7,32.7L42.7,32.7z"/>
</svg>
