<?xml version="1.0" encoding="utf-8"?>
<!-- Generator: Adobe Illustrator 23.1.1, SVG Export Plug-In . SVG Version: 6.00 Build 0)  -->
<!DOCTYPE svg PUBLIC "-//W3C//DTD SVG 1.1//EN" "http://www.w3.org/Graphics/SVG/1.1/DTD/svg11.dtd" [
	<!ENTITY ns_extend "http://ns.adobe.com/Extensibility/1.0/">
	<!ENTITY ns_ai "http://ns.adobe.com/AdobeIllustrator/10.0/">
	<!ENTITY ns_graphs "http://ns.adobe.com/Graphs/1.0/">
	<!ENTITY ns_vars "http://ns.adobe.com/Variables/1.0/">
	<!ENTITY ns_imrep "http://ns.adobe.com/ImageReplacement/1.0/">
	<!ENTITY ns_sfw "http://ns.adobe.com/SaveForWeb/1.0/">
	<!ENTITY ns_custom "http://ns.adobe.com/GenericCustomNamespace/1.0/">
	<!ENTITY ns_adobe_xpath "http://ns.adobe.com/XPath/1.0/">
]>
<svg version="1.1" id="Layer_1" xmlns:x="&ns_extend;" xmlns:i="&ns_ai;" xmlns:graph="&ns_graphs;"
	 xmlns="http://www.w3.org/2000/svg" xmlns:xlink="http://www.w3.org/1999/xlink" x="0px" y="0px" viewBox="0 0 71.4 68.2"
	 style="enable-background:new 0 0 71.4 68.2;" xml:space="preserve">
<style type="text/css">
	.st0{fill:url(#SVGID_1_);}
</style>
<metadata>
	<sfw  xmlns="&ns_sfw;">
		<slices></slices>
		<sliceSourceBounds  bottomLeftOrigin="true" height="65.2" width="46.3" x="12.6" y="1.5"></sliceSourceBounds>
	</sfw>
</metadata>
<linearGradient id="SVGID_1_" gradientUnits="userSpaceOnUse" x1="35.7" y1="193.5111" x2="35.7" y2="248.7145" gradientTransform="matrix(1 0 0 1 0 -185.75)">
	<stop  offset="8.518315e-02" style="stop-color:#E2A43F"/>
	<stop  offset="0.2094" style="stop-color:#E1943C"/>
	<stop  offset="0.4624" style="stop-color:#DE7A36"/>
	<stop  offset="0.6884" style="stop-color:#DD6A33"/>
	<stop  offset="0.8633" style="stop-color:#DC6432"/>
</linearGradient>
<path class="st0" d="M54.6,32.9c2.3,0,4.2-1.9,4.2-4.2v-5.4c0-2.3-1.9-4.2-4.2-4.2h-1.2V5.7c0-2.3-1.9-4.2-4.2-4.2h-27
	c-2.3,0-4.2,1.9-4.2,4.2v13.4h-1.2c-2.3,0-4.2,1.9-4.2,4.2v5.4c0,2.3,1.9,4.2,4.2,4.2H18v6.8l-2.4,0.7c-1.8,0.5-3,2.2-3,4v12.6
	c0,1.8,1.1,3.3,2.7,3.9v1.5c0,2.3,1.9,4.2,4.2,4.2h2.7c2.3,0,4.2-1.9,4.2-4.2v-1.2H45v1.2c0,2.3,1.9,4.2,4.2,4.2h2.7
	c2.3,0,4.2-1.9,4.2-4.2V61c1.6-0.6,2.7-2.1,2.7-3.9V44.5c0-1.9-1.2-3.5-3-4l-2.4-0.7v-6.8C53.4,32.9,54.6,32.9,54.6,32.9z
	 M54.6,22.1c0.7,0,1.2,0.5,1.2,1.2v5.4c0,0.7-0.5,1.2-1.2,1.2h-1.2v-7.8C53.4,22.1,54.6,22.1,54.6,22.1z M21,22.1h29.4v7.8H21V22.1z
	 M21.1,19.1c0.3-1,1.2-1.8,2.2-1.9c4.1-0.3,8.3-0.5,12.4-0.5s8.3,0.2,12.4,0.5c1.1,0.1,2,0.9,2.2,1.9H21.1z M22.2,4.5h27
	c0.7,0,1.2,0.5,1.2,1.2v9.1c-0.6-0.3-1.3-0.5-2.1-0.6c-8.4-0.7-16.9-0.7-25.2,0c-0.8,0.1-1.5,0.3-2.1,0.6V5.7
	C21,5.1,21.5,4.5,22.2,4.5z M16.8,29.9c-0.7,0-1.2-0.5-1.2-1.2v-5.4c0-0.7,0.5-1.2,1.2-1.2H18v7.8C18,29.9,16.8,29.9,16.8,29.9z
	 M54.6,58.3H16.8c-0.7,0-1.2-0.5-1.2-1.2v-1.2h40.3v1.2C55.8,57.8,55.3,58.3,54.6,58.3z M23.4,62.5c0,0.7-0.5,1.2-1.2,1.2h-2.7
	c-0.7,0-1.2-0.5-1.2-1.2v-1.2h5.1L23.4,62.5L23.4,62.5z M51.9,63.7h-2.7c-0.7,0-1.2-0.5-1.2-1.2v-1.2h5.1v1.2
	C53.1,63.2,52.6,63.7,51.9,63.7z M55,43.3c0.5,0.2,0.9,0.6,0.9,1.2v8.4H15.6v-8.4c0-0.5,0.4-1,0.9-1.2L21,42v-9.1h29.4V42L55,43.3z
	 M18.1,47.5h5.4v3h-5.4V47.5z M47.9,47.5h6.8v3h-6.8C47.9,50.5,47.9,47.5,47.9,47.5z M26.1,50.5h19.2V38H26.1V50.5z M29.1,41h13.2
	v6.5H29.1V41z"/>
</svg>
