<?xml version="1.0" encoding="utf-8"?>
<!-- Generator: Adobe Illustrator 23.1.1, SVG Export Plug-In . SVG Version: 6.00 Build 0)  -->
<!DOCTYPE svg PUBLIC "-//W3C//DTD SVG 1.1//EN" "http://www.w3.org/Graphics/SVG/1.1/DTD/svg11.dtd" [
	<!ENTITY ns_extend "http://ns.adobe.com/Extensibility/1.0/">
	<!ENTITY ns_ai "http://ns.adobe.com/AdobeIllustrator/10.0/">
	<!ENTITY ns_graphs "http://ns.adobe.com/Graphs/1.0/">
	<!ENTITY ns_vars "http://ns.adobe.com/Variables/1.0/">
	<!ENTITY ns_imrep "http://ns.adobe.com/ImageReplacement/1.0/">
	<!ENTITY ns_sfw "http://ns.adobe.com/SaveForWeb/1.0/">
	<!ENTITY ns_custom "http://ns.adobe.com/GenericCustomNamespace/1.0/">
	<!ENTITY ns_adobe_xpath "http://ns.adobe.com/XPath/1.0/">
]>
<svg version="1.1" id="Layer_1" xmlns:x="&ns_extend;" xmlns:i="&ns_ai;" xmlns:graph="&ns_graphs;"
	 xmlns="http://www.w3.org/2000/svg" xmlns:xlink="http://www.w3.org/1999/xlink" x="0px" y="0px" width="71.4px" height="68.25px"
	 viewBox="0 0 71.4 68.25" style="enable-background:new 0 0 71.4 68.25;" xml:space="preserve">
<style type="text/css">
	.st0{fill:url(#SVGID_1_);}
</style>
<metadata>
	<sfw  xmlns="&ns_sfw;">
		<slices></slices>
		<sliceSourceBounds  bottomLeftOrigin="true" height="65.18" width="46.26" x="55.87" y="96.41"></sliceSourceBounds>
	</sfw>
</metadata>
<linearGradient id="SVGID_1_" gradientUnits="userSpaceOnUse" x1="5.3516" y1="65.4955" x2="68.3123" y2="1.7269" gradientTransform="matrix(1 0 0 -1 0 70.25)">
	<stop  offset="0" style="stop-color:#E2A43F"/>
	<stop  offset="1" style="stop-color:#DC6432"/>
</linearGradient>
<path class="st0" d="M54.63,32.92c2.32,0,4.2-1.89,4.2-4.2v-5.41c0-2.32-1.89-4.2-4.2-4.2h-1.2V5.73c0-2.32-1.89-4.2-4.2-4.2H22.18
	c-2.32,0-4.2,1.89-4.2,4.2V19.1h-1.21c-2.32,0-4.2,1.89-4.2,4.2v5.41c0,2.32,1.89,4.2,4.2,4.2h1.2v6.83l-2.36,0.67
	c-1.79,0.52-3.04,2.19-3.04,4.05V57.1c0,1.79,1.13,3.31,2.7,3.92v1.49c0,2.32,1.89,4.2,4.2,4.2h2.7c2.32,0,4.2-1.89,4.2-4.2v-1.2H45
	v1.2c0,2.32,1.89,4.2,4.2,4.2h2.7c2.32,0,4.2-1.89,4.2-4.2v-1.49c1.58-0.61,2.7-2.13,2.7-3.92V44.47c0-1.87-1.25-3.53-3.05-4.04
	l-2.36-0.67v-6.83C53.39,32.93,54.63,32.93,54.63,32.92z M54.63,22.1c0.66,0,1.2,0.54,1.2,1.2v5.41c0,0.66-0.54,1.2-1.2,1.2h-1.2
	v-7.81C53.43,22.11,54.63,22.11,54.63,22.1z M20.98,22.1h29.44v7.81H20.98V22.1z M21.07,19.1c0.27-1.02,1.16-1.81,2.25-1.9
	c4.12-0.34,8.29-0.51,12.38-0.51s8.26,0.17,12.38,0.51c1.11,0.09,1.98,0.87,2.25,1.9H21.07z M22.18,4.53h27.04
	c0.66,0,1.2,0.54,1.2,1.2v9.08c-0.63-0.32-1.34-0.54-2.1-0.6c-8.4-0.68-16.85-0.68-25.25,0.01c-0.75,0.06-1.46,0.28-2.1,0.62V5.73
	C20.98,5.07,21.52,4.53,22.18,4.53z M16.77,29.92c-0.66,0-1.2-0.54-1.2-1.2v-5.41c0-0.66,0.54-1.2,1.2-1.2h1.2v7.81
	C17.97,29.92,16.77,29.92,16.77,29.92z M54.63,58.31H16.77c-0.66,0-1.2-0.54-1.2-1.2v-1.2h40.26v1.2
	C55.83,57.78,55.29,58.31,54.63,58.31z M23.38,62.51c0,0.66-0.54,1.2-1.2,1.2h-2.7c-0.66,0-1.2-0.54-1.2-1.2v-1.2h5.11v1.2H23.38z
	 M51.92,63.72h-2.7c-0.66,0-1.2-0.54-1.2-1.2v-1.2h5.11v1.2C53.13,63.19,52.59,63.72,51.92,63.72z M54.96,43.31
	c0.51,0.15,0.87,0.62,0.87,1.16v8.44H15.57v-8.44c0-0.54,0.36-1.01,0.87-1.16l4.53-1.29v-9.1h29.44v9.1L54.96,43.31z M18.13,47.49
	h5.41v3h-5.41V47.49z M47.87,47.49h6.76v3h-6.76V47.49z M26.09,50.49h19.22V38.03H26.09V50.49z M29.09,41.03h13.22v6.46H29.09V41.03
	z"/>
</svg>
