<?xml version="1.0" encoding="utf-8"?>
<!-- Generator: Adobe Illustrator 23.1.1, SVG Export Plug-In . SVG Version: 6.00 Build 0)  -->
<svg version="1.1" id="Layer_1" xmlns="http://www.w3.org/2000/svg" xmlns:xlink="http://www.w3.org/1999/xlink" x="0px" y="0px"
	 width="62.6px" height="56.12px" viewBox="0 0 62.6 56.12" style="enable-background:new 0 0 62.6 56.12;" xml:space="preserve">
<style type="text/css">
	.st0{fill:url(#SVGID_1_);}
</style>
<linearGradient id="SVGID_1_" gradientUnits="userSpaceOnUse" x1="2.7009" y1="6.5773" x2="60.8522" y2="65.7529">
	<stop  offset="0" style="stop-color:#E2A53F"/>
	<stop  offset="1" style="stop-color:#DC6531"/>
</linearGradient>
<path class="st0" d="M9.92,27.21c-2.61,0-4.74,2.13-4.74,4.74s2.13,4.74,4.74,4.74c2.61,0,4.74-2.13,4.74-4.74
	S12.53,27.21,9.92,27.21z M9.92,33.69c-0.96,0-1.74-0.78-1.74-1.74s0.78-1.74,1.74-1.74s1.74,0.78,1.74,1.74S10.88,33.69,9.92,33.69
	z M52.68,27.21c-2.61,0-4.74,2.13-4.74,4.74s2.13,4.74,4.74,4.74c2.61,0,4.74-2.13,4.74-4.74S55.29,27.21,52.68,27.21z M52.68,33.69
	c-0.96,0-1.74-0.78-1.74-1.74s0.78-1.74,1.74-1.74c0.96,0,1.74,0.78,1.74,1.74S53.63,33.69,52.68,33.69z M55.31,21.77l-0.69-0.06
	l-1.57-9.4c-0.61-3.67-3.63-6.4-7.34-6.65l-1.34-0.09c-1.69-0.11-3.4-0.18-5.1-0.25V4.09c0-2.26-1.83-4.09-4.09-4.09h-7.77
	c-2.26,0-4.09,1.84-4.09,4.09v1.23c-1.73,0.07-3.47,0.14-5.19,0.26l-1.25,0.08c-3.71,0.25-6.72,2.98-7.33,6.65l-1.57,9.4l-0.7,0.06
	C3.13,22.13,0,25.55,0,29.72v15.83c0,1.73,1.08,3.2,2.59,3.8v3.27c0,1.93,1.57,3.5,3.5,3.5h6.36c1.93,0,3.5-1.57,3.5-3.5v-2.98
	h30.69v2.98c0,1.93,1.57,3.5,3.5,3.5h6.37c1.93,0,3.5-1.57,3.5-3.5v-3.27c1.51-0.6,2.59-2.07,2.59-3.8V29.72
	C62.6,25.55,59.46,22.13,55.31,21.77z M26.32,4.09c0-0.6,0.49-1.09,1.09-1.09h7.77c0.6,0,1.09,0.49,1.09,1.09v1.13
	c-3.31-0.08-6.63-0.08-9.96,0V4.09z M12.5,12.8c0.38-2.29,2.26-4,4.57-4.15l1.25-0.08C26.93,8,35.63,8,44.18,8.57l1.34,0.09
	c2.31,0.15,4.2,1.86,4.58,4.15l1.44,8.66c-13.39-1.1-26.99-1.09-40.48,0L12.5,12.8z M12.96,52.62c0,0.28-0.22,0.5-0.5,0.5H6.09
	c-0.28,0-0.5-0.22-0.5-0.5v-2.98h7.36V52.62z M15.96,46.64H4.09c-0.6,0-1.09-0.49-1.09-1.09V29.72c0-2.6,1.95-4.73,4.54-4.96
	l2.37-0.21c7.13-0.62,14.29-0.93,21.44-0.93c7.09,0,14.16,0.3,21.16,0.91l2.54,0.22c2.59,0.23,4.55,2.36,4.55,4.96v15.83
	c0,0.6-0.49,1.09-1.09,1.09H46.64H15.96z M57.01,52.62c0,0.28-0.22,0.5-0.5,0.5h-6.37c-0.28,0-0.5-0.22-0.5-0.5v-2.98h7.37V52.62z
	 M41.66,34.98H20.93c-2.26,0-4.09,1.83-4.09,4.09c0,2.97,2.42,5.39,5.39,5.39h18.14c2.97,0,5.39-2.42,5.39-5.39
	C45.75,36.82,43.92,34.98,41.66,34.98z M40.37,41.46H22.23c-1.32,0-2.39-1.07-2.39-2.39c0-0.6,0.49-1.09,1.09-1.09h20.73
	c0.6,0,1.09,0.49,1.09,1.09C42.75,40.39,41.68,41.46,40.37,41.46z M35.19,13.36h-7.77v-3h7.77V13.36z"/>
</svg>
