<?xml version="1.0" encoding="utf-8"?>
<!-- Generator: Adobe Illustrator 23.1.1, SVG Export Plug-In . SVG Version: 6.00 Build 0)  -->
<svg version="1.1" id="Layer_1" xmlns="http://www.w3.org/2000/svg" xmlns:xlink="http://www.w3.org/1999/xlink" x="0px" y="0px"
	 width="66.34px" height="48.44px" viewBox="0 0 66.34 48.44" style="enable-background:new 0 0 66.34 48.44;" xml:space="preserve"
	>
<style type="text/css">
	.st0{fill:url(#SVGID_1_);}
</style>
<linearGradient id="SVGID_1_" gradientUnits="userSpaceOnUse" x1="4.9642" y1="-2.4057" x2="67.1247" y2="61.6135">
	<stop  offset="0" style="stop-color:#E2A440"/>
	<stop  offset="1" style="stop-color:#DC6432"/>
</linearGradient>
<path class="st0" d="M61.16,15.51l0.48-1.93c0.14-0.56,0.64-0.95,1.22-0.95h3.36v-3h-3.36c-1.96,0-3.65,1.32-4.13,3.22l-0.34,1.38
	c-0.69-0.21-1.41-0.35-2.15-0.42l-3.42-8.55C51.54,2.07,48.48,0,45.03,0H21.31c-3.45,0-6.5,2.07-7.78,5.27l-3.42,8.55
	c-0.74,0.07-1.46,0.21-2.15,0.42l-0.34-1.38c-0.47-1.9-2.17-3.22-4.13-3.22H0.12v3h3.36c0.58,0,1.08,0.39,1.22,0.95l0.48,1.93
	C2.07,17.49,0,20.96,0,24.91V37.3c0,1.82,1.15,3.36,2.75,3.97v3.67c0,1.93,1.57,3.5,3.5,3.5h7.02c1.93,0,3.5-1.57,3.5-3.5v-3.38
	h32.8v3.38c0,1.93,1.57,3.5,3.5,3.5h7.01c1.93,0,3.5-1.57,3.5-3.5v-3.67c1.6-0.61,2.75-2.15,2.75-3.97V24.91
	C66.34,20.96,64.27,17.49,61.16,15.51z M16.31,6.38c0.82-2.06,2.79-3.38,5-3.38h23.72c2.21,0,4.18,1.33,5,3.38l2.95,7.38H13.35
	L16.31,6.38z M13.77,44.94c0,0.28-0.22,0.5-0.5,0.5H6.25c-0.28,0-0.5-0.22-0.5-0.5v-3.38h8.02V44.94z M16.77,38.55H4.25
	C3.56,38.55,3,37.99,3,37.3V24.91c0-4.49,3.65-8.14,8.14-8.14H55.2c4.49,0,8.14,3.65,8.14,8.14V37.3c0,0.69-0.56,1.25-1.25,1.25
	H49.57H16.77z M60.58,44.94c0,0.28-0.22,0.5-0.5,0.5h-7.01c-0.28,0-0.5-0.22-0.5-0.5v-3.38h8.01V44.94z M43.5,26.16H24.22
	c-2.73,0-4.94,2.22-4.94,4.94s2.22,4.94,4.94,4.94H43.5c2.73,0,4.94-2.22,4.94-4.94S46.22,26.16,43.5,26.16z M43.5,33.05H24.22
	c-1.07,0-1.94-0.87-1.94-1.94s0.87-1.94,1.94-1.94H43.5c1.07,0,1.94,0.87,1.94,1.94S44.57,33.05,43.5,33.05z M56.58,33.05h4.13v3
	h-4.13V33.05z M5.63,33.05h5.51v3H5.63V33.05z M57.83,22.15h3v1.38c0,2.35-1.91,4.25-4.25,4.25h-6.88v-3h6.88
	c0.69,0,1.25-0.56,1.25-1.25V22.15z M9.76,24.78h6.88v3H9.76c-2.35,0-4.25-1.91-4.25-4.25v-1.38h3v1.38
	C8.51,24.22,9.07,24.78,9.76,24.78z M37.3,8.51h-8.26v-3h8.26V8.51z"/>
</svg>
