<?xml version="1.0" encoding="utf-8"?>
<!-- Generator: Adobe Illustrator 23.1.1, SVG Export Plug-In . SVG Version: 6.00 Build 0)  -->
<!DOCTYPE svg PUBLIC "-//W3C//DTD SVG 1.1//EN" "http://www.w3.org/Graphics/SVG/1.1/DTD/svg11.dtd" [
	<!ENTITY ns_extend "http://ns.adobe.com/Extensibility/1.0/">
	<!ENTITY ns_ai "http://ns.adobe.com/AdobeIllustrator/10.0/">
	<!ENTITY ns_graphs "http://ns.adobe.com/Graphs/1.0/">
	<!ENTITY ns_vars "http://ns.adobe.com/Variables/1.0/">
	<!ENTITY ns_imrep "http://ns.adobe.com/ImageReplacement/1.0/">
	<!ENTITY ns_sfw "http://ns.adobe.com/SaveForWeb/1.0/">
	<!ENTITY ns_custom "http://ns.adobe.com/GenericCustomNamespace/1.0/">
	<!ENTITY ns_adobe_xpath "http://ns.adobe.com/XPath/1.0/">
]>
<svg version="1.1" id="Layer_1" xmlns:x="&ns_extend;" xmlns:i="&ns_ai;" xmlns:graph="&ns_graphs;"
	 xmlns="http://www.w3.org/2000/svg" xmlns:xlink="http://www.w3.org/1999/xlink" x="0px" y="0px" viewBox="0 0 71.4 68.2"
	 style="enable-background:new 0 0 71.4 68.2;" xml:space="preserve">
<style type="text/css">
	.st0{fill:url(#SVGID_1_);}
</style>
<metadata>
	<sfw  xmlns="&ns_sfw;">
		<slices></slices>
		<sliceSourceBounds  bottomLeftOrigin="true" height="56.1" width="62.6" x="4.4" y="6.1"></sliceSourceBounds>
	</sfw>
</metadata>
<linearGradient id="SVGID_1_" gradientUnits="userSpaceOnUse" x1="35.7" y1="198.54" x2="35.7" y2="245.8222" gradientTransform="matrix(1 0 0 1 0 -185.75)">
	<stop  offset="7.158631e-02" style="stop-color:#E2A53F"/>
	<stop  offset="0.7721" style="stop-color:#DC6531"/>
</linearGradient>
<path class="st0" d="M14.3,33.3c-2.6,0-4.7,2.1-4.7,4.7s2.1,4.7,4.7,4.7s4.7-2.1,4.7-4.7S16.9,33.3,14.3,33.3z M14.3,39.8
	c-1,0-1.7-0.8-1.7-1.7s0.8-1.7,1.7-1.7s1.7,0.8,1.7,1.7S15.3,39.8,14.3,39.8z M57.1,33.3c-2.6,0-4.7,2.1-4.7,4.7s2.1,4.7,4.7,4.7
	c2.6,0,4.7-2.1,4.7-4.7S59.7,33.3,57.1,33.3z M57.1,39.8c-1,0-1.7-0.8-1.7-1.7s0.8-1.7,1.7-1.7c1,0,1.7,0.8,1.7,1.7
	S58,39.8,57.1,39.8z M59.7,27.8L59,27.8l-1.6-9.4c-0.6-3.7-3.6-6.4-7.3-6.6l-1.3-0.1c-1.7-0.1-3.4-0.2-5.1-0.2v-1.2
	c0-2.3-1.8-4.1-4.1-4.1h-7.8c-2.3,0-4.1,1.8-4.1,4.1v1.2c-1.7,0.1-3.5,0.1-5.2,0.3l-1.2,0.1c-3.7,0.2-6.7,3-7.3,6.6l-1.6,9.4
	l-0.7,0.1c-4.2,0.4-7.3,3.8-7.3,8v15.8c0,1.7,1.1,3.2,2.6,3.8v3.3c0,1.9,1.6,3.5,3.5,3.5h6.4c1.9,0,3.5-1.6,3.5-3.5v-3H51v3
	c0,1.9,1.6,3.5,3.5,3.5h6.4c1.9,0,3.5-1.6,3.5-3.5v-3.3c1.5-0.6,2.6-2.1,2.6-3.8V35.8C67,31.6,63.9,28.2,59.7,27.8z M30.7,10.2
	c0-0.6,0.5-1.1,1.1-1.1h7.8c0.6,0,1.1,0.5,1.1,1.1v1.1c-3.3-0.1-6.6-0.1-10,0L30.7,10.2L30.7,10.2z M16.9,18.9
	c0.4-2.3,2.3-4,4.6-4.1l1.2-0.1c8.6-0.6,17.3-0.6,25.9,0l1.3,0.1c2.3,0.1,4.2,1.9,4.6,4.1l1.4,8.7c-13.4-1.1-27-1.1-40.5,0
	L16.9,18.9z M17.4,58.7c0,0.3-0.2,0.5-0.5,0.5h-6.4c-0.3,0-0.5-0.2-0.5-0.5v-3h7.4L17.4,58.7L17.4,58.7z M20.4,52.7H8.5
	c-0.6,0-1.1-0.5-1.1-1.1V35.8c0-2.6,1.9-4.7,4.5-5l2.4-0.2c7.1-0.6,14.3-0.9,21.4-0.9c7.1,0,14.2,0.3,21.2,0.9l2.5,0.2
	c2.6,0.2,4.5,2.4,4.5,5v15.8c0,0.6-0.5,1.1-1.1,1.1H51L20.4,52.7L20.4,52.7z M61.4,58.7c0,0.3-0.2,0.5-0.5,0.5h-6.4
	c-0.3,0-0.5-0.2-0.5-0.5v-3h7.4V58.7z M46.1,41H25.3c-2.3,0-4.1,1.8-4.1,4.1c0,3,2.4,5.4,5.4,5.4h18.1c3,0,5.4-2.4,5.4-5.4
	C50.2,42.9,48.3,41,46.1,41z M44.8,47.5H26.6c-1.3,0-2.4-1.1-2.4-2.4c0-0.6,0.5-1.1,1.1-1.1h20.7c0.6,0,1.1,0.5,1.1,1.1
	C47.2,46.5,46.1,47.5,44.8,47.5z M39.6,19.4h-7.8v-3h7.8V19.4z"/>
</svg>
