<?xml version="1.0" encoding="utf-8"?>
<!-- Generator: Adobe Illustrator 23.1.1, SVG Export Plug-In . SVG Version: 6.00 Build 0)  -->
<!DOCTYPE svg PUBLIC "-//W3C//DTD SVG 1.1//EN" "http://www.w3.org/Graphics/SVG/1.1/DTD/svg11.dtd" [
	<!ENTITY ns_extend "http://ns.adobe.com/Extensibility/1.0/">
	<!ENTITY ns_ai "http://ns.adobe.com/AdobeIllustrator/10.0/">
	<!ENTITY ns_graphs "http://ns.adobe.com/Graphs/1.0/">
	<!ENTITY ns_vars "http://ns.adobe.com/Variables/1.0/">
	<!ENTITY ns_imrep "http://ns.adobe.com/ImageReplacement/1.0/">
	<!ENTITY ns_sfw "http://ns.adobe.com/SaveForWeb/1.0/">
	<!ENTITY ns_custom "http://ns.adobe.com/GenericCustomNamespace/1.0/">
	<!ENTITY ns_adobe_xpath "http://ns.adobe.com/XPath/1.0/">
]>
<svg version="1.1" id="Layer_1" xmlns:x="&ns_extend;" xmlns:i="&ns_ai;" xmlns:graph="&ns_graphs;"
	 xmlns="http://www.w3.org/2000/svg" xmlns:xlink="http://www.w3.org/1999/xlink" x="0px" y="0px" width="71.4px" height="68.25px"
	 viewBox="0 0 71.4 68.25" style="enable-background:new 0 0 71.4 68.25;" xml:space="preserve">
<style type="text/css">
	.st0{fill:url(#SVGID_1_);}
</style>
<metadata>
	<sfw  xmlns="&ns_sfw;">
		<slices></slices>
		<sliceSourceBounds  bottomLeftOrigin="true" height="68.25" width="46.74" x="55.63" y="94.88"></sliceSourceBounds>
	</sfw>
</metadata>
<linearGradient id="SVGID_1_" gradientUnits="userSpaceOnUse" x1="7.9223" y1="75.3246" x2="74.1602" y2="7.3806" gradientTransform="matrix(1 0 0 -1 0 70.25)">
	<stop  offset="0" style="stop-color:#E1A43F"/>
	<stop  offset="1" style="stop-color:#DC6531"/>
</linearGradient>
<path class="st0" d="M47,11.21l1.68-1.26c0.84-0.63,1.95-0.73,2.89-0.26l6.16,3.08l1.34-2.68l-6.16-3.08
	c-0.49-0.24-1-0.42-1.52-0.51V4.34c0-0.74,0.6-1.34,1.34-1.34h5.67V0h-5.67c-2.39,0-4.34,1.95-4.34,4.34v2.41
	c-0.53,0.19-1.04,0.46-1.5,0.81l-1.68,1.26c-0.96,0.72-2.15,1.12-3.35,1.12H29.55c-1.2,0-2.39-0.4-3.36-1.12l-1.68-1.26
	c-0.47-0.35-0.97-0.62-1.5-0.81V4.34c0-2.39-1.94-4.34-4.34-4.34H13v3h5.67c0.74,0,1.34,0.6,1.34,1.34V6.5
	c-0.52,0.1-1.03,0.27-1.52,0.51l-6.16,3.08l1.34,2.68l6.16-3.08c0.94-0.47,2.04-0.37,2.89,0.26l1.68,1.26
	c1.2,0.9,2.64,1.47,4.13,1.65v7.28c-1.65,0.61-2.84,2.19-2.84,4.05v7.01h-1.34c-2.39,0-4.34,1.95-4.34,4.34v8.43h-4.17v3h4.17v2.75
	c0,2.39,1.95,4.34,4.34,4.34h7.01v9.85c0,2.39,1.95,4.34,4.34,4.34s4.34-1.95,4.34-4.34v-9.85h7.01c2.39,0,4.34-1.95,4.34-4.34
	v-2.75h4.17v-3h-4.17v-8.43c0-2.39-1.95-4.34-4.34-4.34h-1.34v-7.01c0-1.86-1.19-3.44-2.84-4.05v-7.28
	C44.36,12.68,45.79,12.11,47,11.21z M25.68,51.06h-1.34c-0.74,0-1.34-0.6-1.34-1.34V35.54c0-0.74,0.6-1.34,1.34-1.34h1.34V51.06z
	 M45.71,34.2h1.34c0.74,0,1.34,0.6,1.34,1.34v14.18c0,0.74-0.6,1.34-1.34,1.34h-1.34V34.2z M31.52,12.93h8.35v4.48
	c-1.05-1.11-2.53-1.8-4.17-1.8s-3.12,0.7-4.17,1.8v-4.48H31.52z M38.45,21.36c0,1.52-1.24,2.75-2.76,2.75s-2.75-1.24-2.75-2.75
	s1.24-2.76,2.75-2.76C37.2,18.6,38.45,19.84,38.45,21.36z M37.03,63.91c0,0.74-0.6,1.34-1.34,1.34c-0.74,0-1.34-0.6-1.34-1.34V38.38
	c0-0.74,0.6-1.34,1.34-1.34c0.74,0,1.34,0.6,1.34,1.34V63.91z M42.71,32.7v1.5v16.86h-2.68V38.38c0-2.39-1.95-4.34-4.34-4.34
	s-4.34,1.95-4.34,4.34v12.68h-2.67V34.2v-1.5v-8.51c0-0.74,0.6-1.34,1.34-1.34h0.12c0.66,2.45,2.9,4.25,5.55,4.25
	c2.65,0,4.89-1.81,5.55-4.25h0.12c0.74,0,1.34,0.6,1.34,1.34L42.71,32.7L42.71,32.7z"/>
</svg>
