<?xml version="1.0" encoding="utf-8"?>
<!-- Generator: Adobe Illustrator 23.1.1, SVG Export Plug-In . SVG Version: 6.00 Build 0)  -->
<svg version="1.1" id="Layer_1" xmlns="http://www.w3.org/2000/svg" xmlns:xlink="http://www.w3.org/1999/xlink" x="0px" y="0px"
	 width="46.73px" height="68.25px" viewBox="0 0 46.73 68.25" style="enable-background:new 0 0 46.73 68.25;" xml:space="preserve"
	>
<style type="text/css">
	.st0{fill:url(#SVGID_1_);}
</style>
<linearGradient id="SVGID_1_" gradientUnits="userSpaceOnUse" x1="-4.411" y1="-5.0714" x2="61.8269" y2="62.8726">
	<stop  offset="0" style="stop-color:#E1A43F"/>
	<stop  offset="1" style="stop-color:#DC6531"/>
</linearGradient>
<path class="st0" d="M34.67,11.21l1.68-1.26c0.84-0.63,1.95-0.73,2.89-0.26l6.16,3.08l1.34-2.68l-6.16-3.08
	c-0.49-0.24-1-0.42-1.52-0.51V4.34c0-0.74,0.6-1.34,1.34-1.34h5.67V0h-5.67c-2.39,0-4.34,1.95-4.34,4.34v2.41
	c-0.53,0.19-1.04,0.46-1.5,0.81l-1.68,1.26c-0.96,0.72-2.15,1.12-3.35,1.12H17.22c-1.2,0-2.39-0.4-3.36-1.12l-1.68-1.26
	c-0.47-0.35-0.97-0.62-1.5-0.81V4.34C10.68,1.95,8.74,0,6.34,0H0.67v3h5.67c0.74,0,1.34,0.6,1.34,1.34v2.16
	c-0.52,0.1-1.03,0.27-1.52,0.51L0,10.09l1.34,2.68L7.5,9.69c0.94-0.47,2.04-0.37,2.89,0.26l1.68,1.26c1.2,0.9,2.64,1.47,4.13,1.65
	v7.28c-1.65,0.61-2.84,2.19-2.84,4.05v7.01h-1.34c-2.39,0-4.34,1.95-4.34,4.34v8.43H3.51v3h4.17v2.75c0,2.39,1.95,4.34,4.34,4.34
	h7.01v9.85c0,2.39,1.95,4.34,4.34,4.34c2.39,0,4.34-1.95,4.34-4.34v-9.85h7.01c2.39,0,4.34-1.95,4.34-4.34v-2.75h4.17v-3h-4.17
	v-8.43c0-2.39-1.95-4.34-4.34-4.34h-1.34v-7.01c0-1.86-1.19-3.44-2.84-4.05v-7.28C32.03,12.68,33.46,12.11,34.67,11.21z
	 M13.35,51.06h-1.34c-0.74,0-1.34-0.6-1.34-1.34V35.54c0-0.74,0.6-1.34,1.34-1.34h1.34V51.06z M33.38,34.2h1.34
	c0.74,0,1.34,0.6,1.34,1.34v14.18c0,0.74-0.6,1.34-1.34,1.34h-1.34V34.2z M19.19,12.93h8.35v4.48c-1.05-1.11-2.53-1.8-4.17-1.8
	c-1.64,0-3.12,0.7-4.17,1.8V12.93z M26.12,21.36c0,1.52-1.24,2.75-2.76,2.75s-2.75-1.24-2.75-2.75s1.24-2.76,2.75-2.76
	S26.12,19.84,26.12,21.36z M24.7,63.91c0,0.74-0.6,1.34-1.34,1.34c-0.74,0-1.34-0.6-1.34-1.34V38.38c0-0.74,0.6-1.34,1.34-1.34
	c0.74,0,1.34,0.6,1.34,1.34V63.91z M30.38,32.7v1.5v16.86H27.7V38.38c0-2.39-1.95-4.34-4.34-4.34c-2.39,0-4.34,1.95-4.34,4.34v12.68
	h-2.67V34.2v-1.5v-8.51c0-0.74,0.6-1.34,1.34-1.34h0.12c0.66,2.45,2.9,4.25,5.55,4.25c2.65,0,4.89-1.81,5.55-4.25h0.12
	c0.74,0,1.34,0.6,1.34,1.34V32.7z"/>
</svg>
