<?xml version="1.0" encoding="utf-8"?>
<!-- Generator: Adobe Illustrator 23.1.1, SVG Export Plug-In . SVG Version: 6.00 Build 0)  -->
<svg version="1.1" id="Layer_1" xmlns="http://www.w3.org/2000/svg" xmlns:xlink="http://www.w3.org/1999/xlink" x="0px" y="0px"
	 width="46.26px" height="65.19px" viewBox="0 0 46.26 65.19" style="enable-background:new 0 0 46.26 65.19;" xml:space="preserve"
	>
<style type="text/css">
	.st0{fill:url(#SVGID_1_);}
</style>
<linearGradient id="SVGID_1_" gradientUnits="userSpaceOnUse" x1="-7.2208" y1="3.2219" x2="55.7399" y2="66.9905">
	<stop  offset="0" style="stop-color:#E2A43F"/>
	<stop  offset="1" style="stop-color:#DC6432"/>
</linearGradient>
<path class="st0" d="M42.06,31.39c2.32,0,4.2-1.89,4.2-4.2v-5.41c0-2.32-1.89-4.2-4.2-4.2h-1.2V4.2c0-2.32-1.89-4.2-4.2-4.2H9.61
	c-2.32,0-4.2,1.89-4.2,4.2v13.37H4.2c-2.32,0-4.2,1.89-4.2,4.2v5.41c0,2.32,1.89,4.2,4.2,4.2h1.2v6.83l-2.36,0.67
	C1.25,39.4,0,41.07,0,42.93v12.64c0,1.79,1.13,3.31,2.7,3.92v1.49c0,2.32,1.89,4.2,4.2,4.2h2.7c2.32,0,4.2-1.89,4.2-4.2v-1.2h18.63
	v1.2c0,2.32,1.89,4.2,4.2,4.2h2.7c2.32,0,4.2-1.89,4.2-4.2v-1.49c1.58-0.61,2.7-2.13,2.7-3.92V42.93c0-1.87-1.25-3.53-3.05-4.04
	l-2.36-0.67v-6.83H42.06z M42.06,20.57c0.66,0,1.2,0.54,1.2,1.2v5.41c0,0.66-0.54,1.2-1.2,1.2h-1.2v-7.81H42.06z M8.41,20.57h29.44
	v7.81H8.41V20.57z M8.5,17.57c0.27-1.02,1.16-1.81,2.25-1.9c4.12-0.34,8.29-0.51,12.38-0.51s8.26,0.17,12.38,0.51
	c1.11,0.09,1.98,0.87,2.25,1.9H8.5z M9.61,3h27.04c0.66,0,1.2,0.54,1.2,1.2v9.08c-0.63-0.32-1.34-0.54-2.1-0.6
	C27.35,12,18.9,12,10.5,12.69c-0.75,0.06-1.46,0.28-2.1,0.62V4.2C8.41,3.54,8.95,3,9.61,3z M4.2,28.39c-0.66,0-1.2-0.54-1.2-1.2
	v-5.41c0-0.66,0.54-1.2,1.2-1.2h1.2v7.81H4.2z M42.06,56.78H4.2c-0.66,0-1.2-0.54-1.2-1.2v-1.2h40.26v1.2
	C43.26,56.24,42.72,56.78,42.06,56.78z M10.81,60.98c0,0.66-0.54,1.2-1.2,1.2h-2.7c-0.66,0-1.2-0.54-1.2-1.2v-1.2h5.11V60.98z
	 M39.35,62.19h-2.7c-0.66,0-1.2-0.54-1.2-1.2v-1.2h5.11v1.2C40.56,61.65,40.02,62.19,39.35,62.19z M42.39,41.78
	c0.51,0.15,0.87,0.62,0.87,1.16v8.44H3v-8.44c0-0.54,0.36-1.01,0.87-1.16l4.53-1.29v-9.1h29.44v9.1L42.39,41.78z M5.56,45.96h5.41v3
	H5.56V45.96z M35.3,45.96h6.76v3H35.3V45.96z M13.52,48.96h19.22V36.5H13.52V48.96z M16.52,39.5h13.22v6.46H16.52V39.5z"/>
</svg>
