<?xml version="1.0" encoding="utf-8"?>
<!-- Generator: Adobe Illustrator 23.1.1, SVG Export Plug-In . SVG Version: 6.00 Build 0)  -->
<!DOCTYPE svg PUBLIC "-//W3C//DTD SVG 1.1//EN" "http://www.w3.org/Graphics/SVG/1.1/DTD/svg11.dtd" [
	<!ENTITY ns_extend "http://ns.adobe.com/Extensibility/1.0/">
	<!ENTITY ns_ai "http://ns.adobe.com/AdobeIllustrator/10.0/">
	<!ENTITY ns_graphs "http://ns.adobe.com/Graphs/1.0/">
	<!ENTITY ns_vars "http://ns.adobe.com/Variables/1.0/">
	<!ENTITY ns_imrep "http://ns.adobe.com/ImageReplacement/1.0/">
	<!ENTITY ns_sfw "http://ns.adobe.com/SaveForWeb/1.0/">
	<!ENTITY ns_custom "http://ns.adobe.com/GenericCustomNamespace/1.0/">
	<!ENTITY ns_adobe_xpath "http://ns.adobe.com/XPath/1.0/">
]>
<svg version="1.1" id="Layer_1" xmlns:x="&ns_extend;" xmlns:i="&ns_ai;" xmlns:graph="&ns_graphs;"
	 xmlns="http://www.w3.org/2000/svg" xmlns:xlink="http://www.w3.org/1999/xlink" x="0px" y="0px" width="71.4px" height="68.25px"
	 viewBox="0 0 71.4 68.25" style="enable-background:new 0 0 71.4 68.25;" xml:space="preserve">
<style type="text/css">
	.st0{fill:url(#SVGID_1_);}
</style>
<metadata>
	<sfw  xmlns="&ns_sfw;">
		<slices></slices>
		<sliceSourceBounds  bottomLeftOrigin="true" height="48.44" width="66.33" x="45.83" y="104.78"></sliceSourceBounds>
	</sfw>
</metadata>
<linearGradient id="SVGID_1_" gradientUnits="userSpaceOnUse" x1="7.5012" y1="62.7527" x2="69.6618" y2="-1.2665" gradientTransform="matrix(1 0 0 -1 0 70.25)">
	<stop  offset="0" style="stop-color:#E2A440"/>
	<stop  offset="1" style="stop-color:#DC6432"/>
</linearGradient>
<path class="st0" d="M63.69,25.41l0.48-1.93c0.14-0.56,0.64-0.95,1.22-0.95h3.36v-3h-3.36c-1.96,0-3.65,1.32-4.13,3.22l-0.34,1.38
	c-0.69-0.21-1.41-0.35-2.15-0.42l-3.42-8.55c-1.28-3.19-4.34-5.26-7.79-5.26H23.84c-3.45,0-6.5,2.07-7.78,5.27l-3.42,8.55
	c-0.74,0.07-1.46,0.21-2.15,0.42l-0.34-1.38c-0.47-1.9-2.17-3.22-4.13-3.22H2.65v3h3.36c0.58,0,1.08,0.39,1.22,0.95l0.48,1.93
	c-3.11,1.97-5.18,5.44-5.18,9.39V47.2c0,1.82,1.15,3.36,2.75,3.97v3.67c0,1.93,1.57,3.5,3.5,3.5h7.02c1.93,0,3.5-1.57,3.5-3.5v-3.38
	h32.8v3.38c0,1.93,1.57,3.5,3.5,3.5h7.01c1.93,0,3.5-1.57,3.5-3.5v-3.67c1.6-0.61,2.75-2.15,2.75-3.97V34.81
	C68.87,30.86,66.8,27.39,63.69,25.41z M18.84,16.28c0.82-2.06,2.79-3.38,5-3.38h23.72c2.21,0,4.18,1.33,5,3.38l2.95,7.38H15.88
	L18.84,16.28z M16.3,54.84c0,0.28-0.22,0.5-0.5,0.5H8.78c-0.28,0-0.5-0.22-0.5-0.5v-3.38h8.02V54.84z M19.3,48.45H6.78
	c-0.69,0-1.25-0.56-1.25-1.25V34.81c0-4.49,3.65-8.14,8.14-8.14h44.06c4.49,0,8.14,3.65,8.14,8.14V47.2c0,0.69-0.56,1.25-1.25,1.25
	H52.1H19.3z M63.11,54.84c0,0.28-0.22,0.5-0.5,0.5H55.6c-0.28,0-0.5-0.22-0.5-0.5v-3.38h8.01V54.84z M46.03,36.06H26.75
	c-2.73,0-4.94,2.22-4.94,4.94s2.22,4.94,4.94,4.94h19.28c2.73,0,4.94-2.22,4.94-4.94C50.97,38.28,48.75,36.06,46.03,36.06z
	 M46.03,42.95H26.75c-1.07,0-1.94-0.87-1.94-1.94c0-1.07,0.87-1.94,1.94-1.94h19.28c1.07,0,1.94,0.87,1.94,1.94
	S47.1,42.95,46.03,42.95z M59.11,42.95h4.13v3h-4.13V42.95z M8.16,42.95h5.51v3H8.16V42.95z M60.36,32.06h3v1.38
	c0,2.35-1.91,4.25-4.25,4.25h-6.88v-3h6.88c0.69,0,1.25-0.56,1.25-1.25V32.06z M12.29,34.68h6.88v3h-6.88
	c-2.35,0-4.25-1.91-4.25-4.25v-1.38h3v1.38C11.04,34.12,11.6,34.68,12.29,34.68z M39.83,18.41h-8.26v-3h8.26V18.41z"/>
</svg>
