<?xml version="1.0" encoding="utf-8"?>
<!-- Generator: Adobe Illustrator 23.1.1, SVG Export Plug-In . SVG Version: 6.00 Build 0)  -->
<!DOCTYPE svg PUBLIC "-//W3C//DTD SVG 1.1//EN" "http://www.w3.org/Graphics/SVG/1.1/DTD/svg11.dtd" [
	<!ENTITY ns_extend "http://ns.adobe.com/Extensibility/1.0/">
	<!ENTITY ns_ai "http://ns.adobe.com/AdobeIllustrator/10.0/">
	<!ENTITY ns_graphs "http://ns.adobe.com/Graphs/1.0/">
	<!ENTITY ns_vars "http://ns.adobe.com/Variables/1.0/">
	<!ENTITY ns_imrep "http://ns.adobe.com/ImageReplacement/1.0/">
	<!ENTITY ns_sfw "http://ns.adobe.com/SaveForWeb/1.0/">
	<!ENTITY ns_custom "http://ns.adobe.com/GenericCustomNamespace/1.0/">
	<!ENTITY ns_adobe_xpath "http://ns.adobe.com/XPath/1.0/">
]>
<svg version="1.1" id="Layer_1" xmlns:x="&ns_extend;" xmlns:i="&ns_ai;" xmlns:graph="&ns_graphs;"
	 xmlns="http://www.w3.org/2000/svg" xmlns:xlink="http://www.w3.org/1999/xlink" x="0px" y="0px" width="71.4px" height="68.25px"
	 viewBox="0 0 71.4 68.25" style="enable-background:new 0 0 71.4 68.25;" xml:space="preserve">
<style type="text/css">
	.st0{fill:url(#SVGID_1_);}
</style>
<metadata>
	<sfw  xmlns="&ns_sfw;">
		<slices></slices>
		<sliceSourceBounds  bottomLeftOrigin="true" height="58.12" width="71.4" x="43.3" y="99.94"></sliceSourceBounds>
	</sfw>
</metadata>
<linearGradient id="SVGID_1_" gradientUnits="userSpaceOnUse" x1="-1.5805" y1="63.8698" x2="69.5177" y2="-8.0339" gradientTransform="matrix(1 0 0 -1 0 70.25)">
	<stop  offset="0" style="stop-color:#E2A43F"/>
	<stop  offset="1" style="stop-color:#DC6932"/>
</linearGradient>
<path class="st0" d="M71.4,56.97c-2.77,0.99-5.54,1.86-8.23,2.58c-1.75,0.47-3.36,0.86-4.91,1.2c-7.34,1.62-14.93,2.44-22.56,2.44
	c-7.26,0-14.54-0.75-21.62-2.24c-1.83-0.38-3.44-0.76-4.9-1.15C6.1,58.99,3.01,58.04,0,56.97l1.01-2.82
	c2.93,1.05,5.93,1.97,8.93,2.74c1.42,0.38,2.97,0.75,4.75,1.12c14.11,2.95,29,2.87,42.93-0.2c1.5-0.32,3.06-0.7,4.77-1.16
	c2.61-0.7,5.3-1.54,7.99-2.5L71.4,56.97z M10.45,25.18c1.11,0,2.19-0.36,3.14-1.03l2.83-2.03c2.81,9-3.7,22.12-7.68,30.16L8.4,52.97
	l2.69,1.33l0.34-0.68c4.48-9.05,11.99-24.19,7.03-34.48l-0.77-1.61l-5.84,4.19c-0.3,0.21-0.79,0.47-1.39,0.47
	c-1.28,0-2.33-1.04-2.33-2.33c0-0.49,0.16-0.97,0.51-1.42l6.85-9.71c4.07,1.85,7.5,4.97,9.74,8.87l2.6-1.49
	c-2.77-4.84-7.15-8.61-12.32-10.63L14.4,5.06l-8.18,11.6c-0.71,0.91-1.1,2.04-1.1,3.2C5.12,22.8,7.51,25.18,10.45,25.18z
	 M40.88,37.47h-9.32c-4.65,0-8.95,2.33-11.51,6.23L13.32,54l2.51,1.64l6.73-10.3c2-3.05,5.36-4.88,9-4.88h9.32c3.63,0,7,1.82,9,4.88
	l6.61,10.1L59,53.81l-6.61-10.1C49.84,39.81,45.53,37.47,40.88,37.47z M29.61,29.8v-9.17h15.27h0.77h0.73v0.04
	c2.52,0.19,4.78,1.31,6.43,3.04h1.25h6.12c5.05,0,9.15,4.1,9.15,9.15v10.68h-9.12V32.86c0-3.14-2.37-5.73-5.41-6.1
	c0.49,1.17,0.76,2.45,0.76,3.79c0,3.42,0.81,6.85,2.34,9.92l6.05,12.25l-2.69,1.33l-6.04-12.24c-1.73-3.48-2.65-7.37-2.65-11.25
	c0-3.57-2.71-6.51-6.18-6.88v6.13c0,2.51-2.05,4.56-4.56,4.56h-7.65C31.65,34.36,29.61,32.32,29.61,29.8z M60.86,26.75
	c1.46,1.62,2.35,3.77,2.35,6.11v7.68h3.12v-7.68C66.33,29.7,63.93,27.09,60.86,26.75z M32.61,29.8c0,0.86,0.7,1.56,1.56,1.56h7.65
	c0.86,0,1.56-0.7,1.56-1.56v-6.17H32.61V29.8z"/>
</svg>
