<?xml version="1.0" encoding="utf-8"?>
<!-- Generator: Adobe Illustrator 23.1.1, SVG Export Plug-In . SVG Version: 6.00 Build 0)  -->
<!DOCTYPE svg PUBLIC "-//W3C//DTD SVG 1.1//EN" "http://www.w3.org/Graphics/SVG/1.1/DTD/svg11.dtd" [
	<!ENTITY ns_extend "http://ns.adobe.com/Extensibility/1.0/">
	<!ENTITY ns_ai "http://ns.adobe.com/AdobeIllustrator/10.0/">
	<!ENTITY ns_graphs "http://ns.adobe.com/Graphs/1.0/">
	<!ENTITY ns_vars "http://ns.adobe.com/Variables/1.0/">
	<!ENTITY ns_imrep "http://ns.adobe.com/ImageReplacement/1.0/">
	<!ENTITY ns_sfw "http://ns.adobe.com/SaveForWeb/1.0/">
	<!ENTITY ns_custom "http://ns.adobe.com/GenericCustomNamespace/1.0/">
	<!ENTITY ns_adobe_xpath "http://ns.adobe.com/XPath/1.0/">
]>
<svg version="1.1" id="Layer_1" xmlns:x="&ns_extend;" xmlns:i="&ns_ai;" xmlns:graph="&ns_graphs;"
	 xmlns="http://www.w3.org/2000/svg" xmlns:xlink="http://www.w3.org/1999/xlink" x="0px" y="0px" viewBox="0 0 71.4 68.2"
	 style="enable-background:new 0 0 71.4 68.2;" xml:space="preserve">
<style type="text/css">
	.st0{fill:url(#SVGID_1_);}
</style>
<metadata>
	<sfw  xmlns="&ns_sfw;">
		<slices></slices>
		<sliceSourceBounds  bottomLeftOrigin="true" height="48.4" width="66.3" x="2.5" y="9.9"></sliceSourceBounds>
	</sfw>
</metadata>
<linearGradient id="SVGID_1_" gradientUnits="userSpaceOnUse" x1="35.695" y1="193.2474" x2="35.695" y2="240.9316" gradientTransform="matrix(1 0 0 1 0 -185.75)">
	<stop  offset="0.1004" style="stop-color:#E2A440"/>
	<stop  offset="0.5036" style="stop-color:#DE7E38"/>
	<stop  offset="0.8305" style="stop-color:#DC6432"/>
</linearGradient>
<path class="st0" d="M63.7,25.4l0.5-1.9c0.1-0.6,0.6-1,1.2-1h3.4v-3h-3.4c-2,0-3.7,1.3-4.1,3.2l-0.3,1.4c-0.7-0.2-1.4-0.4-2.2-0.4
	l-3.4-8.6C54.1,12,51,9.9,47.6,9.9H23.8c-3.5,0-6.5,2.1-7.8,5.3l-3.4,8.6c-0.7,0.1-1.5,0.2-2.1,0.4l-0.3-1.4C9.7,20.9,8,19.5,6,19.5
	H2.7v3H6c0.6,0,1.1,0.4,1.2,1l0.5,1.9c-3.1,2-5.2,5.4-5.2,9.4v12.4c0,1.8,1.2,3.4,2.8,4v3.7c0,1.9,1.6,3.5,3.5,3.5h7
	c1.9,0,3.5-1.6,3.5-3.5v-3.4h32.8v3.4c0,1.9,1.6,3.5,3.5,3.5h7c1.9,0,3.5-1.6,3.5-3.5v-3.7c1.6-0.6,2.8-2.2,2.8-4V34.8
	C68.9,30.9,66.8,27.4,63.7,25.4z M18.8,16.3c0.8-2.1,2.8-3.4,5-3.4h23.7c2.2,0,4.2,1.3,5,3.4l3,7.4H15.9L18.8,16.3z M16.3,54.8
	c0,0.3-0.2,0.5-0.5,0.5h-7c-0.3,0-0.5-0.2-0.5-0.5v-3.4h8V54.8z M19.3,48.5H6.8c-0.7,0-1.2-0.6-1.2-1.2V34.8c0-4.5,3.7-8.1,8.1-8.1
	h44.1c4.5,0,8.1,3.6,8.1,8.1v12.4c0,0.7-0.6,1.2-1.2,1.2H52.1H19.3z M63.1,54.8c0,0.3-0.2,0.5-0.5,0.5h-7c-0.3,0-0.5-0.2-0.5-0.5
	v-3.4h8V54.8z M46,36.1H26.8c-2.7,0-4.9,2.2-4.9,4.9s2.2,4.9,4.9,4.9H46c2.7,0,4.9-2.2,4.9-4.9C51,38.3,48.8,36.1,46,36.1z M46,43
	H26.8c-1.1,0-1.9-0.9-1.9-1.9s0.9-1.9,1.9-1.9H46c1.1,0,1.9,0.9,1.9,1.9S47.1,43,46,43z M59.1,43h4.1v3h-4.1V43z M8.2,43h5.5v3H8.2
	V43z M60.4,32.1h3v1.4c0,2.3-1.9,4.2-4.2,4.2h-6.9v-3h6.9c0.7,0,1.2-0.6,1.2-1.2V32.1z M12.3,34.7h6.9v3h-6.9
	c-2.3,0-4.2-1.9-4.2-4.2V32h3v1.4C11,34.1,11.6,34.7,12.3,34.7z M39.8,18.4h-8.3v-3h8.3V18.4z"/>
</svg>
