<?xml version="1.0" encoding="utf-8"?>
<!-- Generator: Adobe Illustrator 23.1.1, SVG Export Plug-In . SVG Version: 6.00 Build 0)  -->
<!DOCTYPE svg PUBLIC "-//W3C//DTD SVG 1.1//EN" "http://www.w3.org/Graphics/SVG/1.1/DTD/svg11.dtd" [
	<!ENTITY ns_extend "http://ns.adobe.com/Extensibility/1.0/">
	<!ENTITY ns_ai "http://ns.adobe.com/AdobeIllustrator/10.0/">
	<!ENTITY ns_graphs "http://ns.adobe.com/Graphs/1.0/">
	<!ENTITY ns_vars "http://ns.adobe.com/Variables/1.0/">
	<!ENTITY ns_imrep "http://ns.adobe.com/ImageReplacement/1.0/">
	<!ENTITY ns_sfw "http://ns.adobe.com/SaveForWeb/1.0/">
	<!ENTITY ns_custom "http://ns.adobe.com/GenericCustomNamespace/1.0/">
	<!ENTITY ns_adobe_xpath "http://ns.adobe.com/XPath/1.0/">
]>
<svg version="1.1" id="Layer_1" xmlns:x="&ns_extend;" xmlns:i="&ns_ai;" xmlns:graph="&ns_graphs;"
	 xmlns="http://www.w3.org/2000/svg" xmlns:xlink="http://www.w3.org/1999/xlink" x="0px" y="0px" viewBox="0 0 71.4 68.2"
	 style="enable-background:new 0 0 71.4 68.2;" xml:space="preserve">
<style type="text/css">
	.st0{fill:url(#SVGID_1_);}
</style>
<metadata>
	<sfw  xmlns="&ns_sfw;">
		<slices></slices>
		<sliceSourceBounds  bottomLeftOrigin="true" height="58.1" width="71.4" x="0" y="5.1"></sliceSourceBounds>
	</sfw>
</metadata>
<linearGradient id="SVGID_1_" gradientUnits="userSpaceOnUse" x1="31.2502" y1="192.8093" x2="36.3634" y2="249.1787" gradientTransform="matrix(1 0 0 1 0 -185.75)">
	<stop  offset="9.321620e-02" style="stop-color:#E2A43F"/>
	<stop  offset="0.3045" style="stop-color:#E08F3A"/>
	<stop  offset="0.6363" style="stop-color:#DD7334"/>
	<stop  offset="0.8297" style="stop-color:#DC6932"/>
</linearGradient>
<path class="st0" d="M71.4,57c-2.8,1-5.5,1.9-8.2,2.6c-1.8,0.5-3.4,0.9-4.9,1.2c-7.3,1.6-14.9,2.4-22.6,2.4
	c-7.3,0-14.5-0.8-21.6-2.2c-1.8-0.4-3.4-0.8-4.9-1.2C6.1,59,3,58,0,57l1-2.8c2.9,1,5.9,2,8.9,2.7c1.4,0.4,3,0.8,4.8,1.1
	c14.1,3,29,2.9,42.9-0.2c1.5-0.3,3.1-0.7,4.8-1.2c2.6-0.7,5.3-1.5,8-2.5L71.4,57z M10.4,25.2c1.1,0,2.2-0.4,3.1-1l2.8-2
	c2.8,9-3.7,22.1-7.7,30.2L8.4,53l2.7,1.3l0.3-0.7c4.5-9,12-24.2,7-34.5l-0.8-1.6l-5.8,4.2c-0.3,0.2-0.8,0.5-1.4,0.5
	c-1.3,0-2.3-1-2.3-2.3c0-0.5,0.2-1,0.5-1.4l6.8-9.7c4.1,1.9,7.5,5,9.7,8.9l2.6-1.5c-2.8-4.8-7.1-8.6-12.3-10.6l-1.1-0.4L6.2,16.7
	c-0.7,0.9-1.1,2-1.1,3.2C5.1,22.8,7.5,25.2,10.4,25.2z M40.9,37.5h-9.3c-4.6,0-9,2.3-11.5,6.2L13.3,54l2.5,1.6l6.7-10.3
	c2-3,5.4-4.9,9-4.9h9.3c3.6,0,7,1.8,9,4.9l6.6,10.1l2.5-1.6l-6.6-10.1C49.8,39.8,45.5,37.5,40.9,37.5z M29.6,29.8v-9.2h15.3h0.8h0.7
	v0c2.5,0.2,4.8,1.3,6.4,3h1.2h6.1c5.1,0,9.2,4.1,9.2,9.2v10.7h-9.1V32.9c0-3.1-2.4-5.7-5.4-6.1c0.5,1.2,0.8,2.5,0.8,3.8
	c0,3.4,0.8,6.8,2.3,9.9l6,12.2l-2.7,1.3l-6-12.2c-1.7-3.5-2.7-7.4-2.7-11.2c0-3.6-2.7-6.5-6.2-6.9v6.1c0,2.5-2,4.6-4.6,4.6h-7.7
	C31.6,34.4,29.6,32.3,29.6,29.8z M60.9,26.8c1.5,1.6,2.3,3.8,2.3,6.1v7.7h3.1v-7.7C66.3,29.7,63.9,27.1,60.9,26.8z M32.6,29.8
	c0,0.9,0.7,1.6,1.6,1.6h7.7c0.9,0,1.6-0.7,1.6-1.6v-6.2H32.6V29.8z"/>
</svg>
