<?xml version="1.0" encoding="utf-8"?>
<!-- Generator: Adobe Illustrator 23.1.1, SVG Export Plug-In . SVG Version: 6.00 Build 0)  -->
<!DOCTYPE svg PUBLIC "-//W3C//DTD SVG 1.1//EN" "http://www.w3.org/Graphics/SVG/1.1/DTD/svg11.dtd" [
	<!ENTITY ns_extend "http://ns.adobe.com/Extensibility/1.0/">
	<!ENTITY ns_ai "http://ns.adobe.com/AdobeIllustrator/10.0/">
	<!ENTITY ns_graphs "http://ns.adobe.com/Graphs/1.0/">
	<!ENTITY ns_vars "http://ns.adobe.com/Variables/1.0/">
	<!ENTITY ns_imrep "http://ns.adobe.com/ImageReplacement/1.0/">
	<!ENTITY ns_sfw "http://ns.adobe.com/SaveForWeb/1.0/">
	<!ENTITY ns_custom "http://ns.adobe.com/GenericCustomNamespace/1.0/">
	<!ENTITY ns_adobe_xpath "http://ns.adobe.com/XPath/1.0/">
]>
<svg version="1.1" id="Layer_1" xmlns:x="&ns_extend;" xmlns:i="&ns_ai;" xmlns:graph="&ns_graphs;"
	 xmlns="http://www.w3.org/2000/svg" xmlns:xlink="http://www.w3.org/1999/xlink" x="0px" y="0px" width="71.4px" height="68.25px"
	 viewBox="0 0 71.4 68.25" style="enable-background:new 0 0 71.4 68.25;" xml:space="preserve">
<style type="text/css">
	.st0{fill:url(#SVGID_1_);}
</style>
<metadata>
	<sfw  xmlns="&ns_sfw;">
		<slices></slices>
		<sliceSourceBounds  bottomLeftOrigin="true" height="56.12" width="62.6" x="47.7" y="100.94"></sliceSourceBounds>
	</sfw>
</metadata>
<linearGradient id="SVGID_1_" gradientUnits="userSpaceOnUse" x1="7.0992" y1="57.606" x2="65.2505" y2="-1.5696" gradientTransform="matrix(1 0 0 -1 0 70.25)">
	<stop  offset="0" style="stop-color:#E2A53F"/>
	<stop  offset="1" style="stop-color:#DC6531"/>
</linearGradient>
<path class="st0" d="M14.32,33.28c-2.61,0-4.74,2.13-4.74,4.74s2.13,4.74,4.74,4.74s4.74-2.13,4.74-4.74S16.93,33.28,14.32,33.28z
	 M14.32,39.75c-0.96,0-1.74-0.78-1.74-1.74s0.78-1.74,1.74-1.74s1.74,0.78,1.74,1.74S15.28,39.75,14.32,39.75z M57.08,33.28
	c-2.61,0-4.74,2.13-4.74,4.74s2.13,4.74,4.74,4.74c2.61,0,4.74-2.13,4.74-4.74S59.69,33.28,57.08,33.28z M57.08,39.75
	c-0.96,0-1.74-0.78-1.74-1.74s0.78-1.74,1.74-1.74c0.96,0,1.74,0.78,1.74,1.74S58.03,39.75,57.08,39.75z M59.71,27.84l-0.69-0.06
	l-1.57-9.4c-0.61-3.67-3.63-6.4-7.34-6.65l-1.34-0.09c-1.69-0.11-3.4-0.18-5.1-0.25v-1.23c0-2.26-1.83-4.09-4.09-4.09h-7.77
	c-2.26,0-4.09,1.84-4.09,4.09v1.23c-1.73,0.07-3.47,0.14-5.19,0.26l-1.25,0.08c-3.71,0.25-6.72,2.98-7.33,6.65l-1.57,9.4l-0.7,0.06
	c-4.15,0.36-7.28,3.78-7.28,7.95v15.83c0,1.73,1.08,3.2,2.59,3.8v3.27c0,1.93,1.57,3.5,3.5,3.5h6.36c1.93,0,3.5-1.57,3.5-3.5v-2.98
	h30.69v2.98c0,1.93,1.57,3.5,3.5,3.5h6.37c1.93,0,3.5-1.57,3.5-3.5v-3.27c1.51-0.6,2.59-2.07,2.59-3.8V35.78
	C67,31.61,63.86,28.19,59.71,27.84z M30.72,10.16c0-0.6,0.49-1.09,1.09-1.09h7.77c0.6,0,1.09,0.49,1.09,1.09v1.13
	c-3.31-0.08-6.63-0.08-9.96,0L30.72,10.16L30.72,10.16z M16.9,18.87c0.38-2.29,2.26-4,4.57-4.15l1.25-0.08
	c8.61-0.57,17.31-0.57,25.86,0l1.34,0.09c2.31,0.15,4.2,1.86,4.58,4.15l1.44,8.66c-13.39-1.1-26.99-1.09-40.48,0L16.9,18.87z
	 M17.36,58.68c0,0.28-0.22,0.5-0.5,0.5h-6.37c-0.28,0-0.5-0.22-0.5-0.5v-2.98h7.36v2.98H17.36z M20.36,52.71H8.49
	c-0.6,0-1.09-0.49-1.09-1.09V35.78c0-2.6,1.95-4.73,4.54-4.96l2.37-0.21c7.13-0.62,14.29-0.93,21.44-0.93
	c7.09,0,14.16,0.3,21.16,0.91l2.54,0.22c2.59,0.23,4.55,2.36,4.55,4.96v15.83c0,0.6-0.49,1.09-1.09,1.09H51.04H20.36V52.71z
	 M61.41,58.68c0,0.28-0.22,0.5-0.5,0.5h-6.37c-0.28,0-0.5-0.22-0.5-0.5v-2.98h7.37V58.68z M46.06,41.04H25.33
	c-2.26,0-4.09,1.83-4.09,4.09c0,2.97,2.42,5.39,5.39,5.39h18.14c2.97,0,5.39-2.42,5.39-5.39C50.15,42.89,48.32,41.04,46.06,41.04z
	 M44.77,47.53H26.63c-1.32,0-2.39-1.07-2.39-2.39c0-0.6,0.49-1.09,1.09-1.09h20.73c0.6,0,1.09,0.49,1.09,1.09
	C47.15,46.46,46.08,47.53,44.77,47.53z M39.59,19.42h-7.77v-3h7.77V19.42z"/>
</svg>
