<?xml version="1.0" encoding="utf-8"?>
<!-- Generator: Adobe Illustrator 23.1.1, SVG Export Plug-In . SVG Version: 6.00 Build 0)  -->
<!DOCTYPE svg PUBLIC "-//W3C//DTD SVG 1.1//EN" "http://www.w3.org/Graphics/SVG/1.1/DTD/svg11.dtd" [
	<!ENTITY ns_extend "http://ns.adobe.com/Extensibility/1.0/">
	<!ENTITY ns_ai "http://ns.adobe.com/AdobeIllustrator/10.0/">
	<!ENTITY ns_graphs "http://ns.adobe.com/Graphs/1.0/">
	<!ENTITY ns_vars "http://ns.adobe.com/Variables/1.0/">
	<!ENTITY ns_imrep "http://ns.adobe.com/ImageReplacement/1.0/">
	<!ENTITY ns_sfw "http://ns.adobe.com/SaveForWeb/1.0/">
	<!ENTITY ns_custom "http://ns.adobe.com/GenericCustomNamespace/1.0/">
	<!ENTITY ns_adobe_xpath "http://ns.adobe.com/XPath/1.0/">
]>
<svg version="1.1" id="Layer_1" xmlns:x="&ns_extend;" xmlns:i="&ns_ai;" xmlns:graph="&ns_graphs;"
	 xmlns="http://www.w3.org/2000/svg" xmlns:xlink="http://www.w3.org/1999/xlink" x="0px" y="0px" viewBox="0 0 71.4 68.2"
	 style="enable-background:new 0 0 71.4 68.2;" xml:space="preserve">
<style type="text/css">
	.st0{fill:url(#SVGID_1_);}
</style>
<metadata>
	<sfw  xmlns="&ns_sfw;">
		<slices></slices>
		<sliceSourceBounds  bottomLeftOrigin="true" height="61.1" width="60.4" x="5.5" y="3.6"></sliceSourceBounds>
	</sfw>
</metadata>
<linearGradient id="SVGID_1_" gradientUnits="userSpaceOnUse" x1="35.7" y1="190.2924" x2="35.7" y2="247.8785" gradientTransform="matrix(1 0 0 1 0 -185.75)">
	<stop  offset="0.1567" style="stop-color:#E2A43F"/>
	<stop  offset="0.3515" style="stop-color:#E0903B"/>
	<stop  offset="0.6826" style="stop-color:#DD7234"/>
	<stop  offset="0.871" style="stop-color:#DC6732"/>
</linearGradient>
<path class="st0" d="M23.1,28.5l-2.4,1.8c0.3,1.4,0.3,2.8,0,4.2l5.3,4c2.2-0.4,4.3-0.4,6.5,0l2.5-1.9l1.8,2.4l-3.6,2.8l-0.7-0.2
	c-2.2-0.5-4.4-0.5-6.5,0l-0.7,0.2l-8.1-6.2l0.4-1c0.5-1.4,0.5-2.9,0-4.3l-0.4-1l4.1-3.1L23.1,28.5z M54.2,19.3l-8.1-6.2l-0.7,0.2
	c-2.1,0.5-4.4,0.5-6.5,0l-0.7-0.2l-3.6,2.8l1.8,2.4l2.5-1.9c2.1,0.4,4.4,0.4,6.5,0l5.3,4c-0.3,1.4-0.3,2.8,0,4.2l-2.4,1.8l1.8,2.4
	l4.1-3.1l-0.4-1c-0.5-1.4-0.5-2.9,0-4.3L54.2,19.3z M43.5,19.5l-0.8,0.6c-0.7,0.5-0.8,1.5-0.3,2.1c0.3,0.4,0.7,0.6,1.2,0.6
	c0.3,0,0.6-0.1,0.9-0.3l0.8-0.6c0.7-0.5,0.8-1.5,0.3-2.1C45.1,19.2,44.2,19,43.5,19.5z M27,35.7c0.3,0,0.6-0.1,0.9-0.3l0.8-0.6
	c0.7-0.5,0.8-1.5,0.3-2.1c-0.5-0.7-1.5-0.8-2.1-0.3L26,33c-0.7,0.5-0.8,1.5-0.3,2.1C26,35.4,26.5,35.7,27,35.7z M29.2,58.1l11.2-8.6
	l-1.8-2.4l-9.3,7.2L8.5,38.5v-3l20.7,15.9l11.2-8.6l-1.8-2.4l-9.3,7.2L9.5,32.4l9.4-7.2L17,22.8L5.5,31.7v14.9l23.7,18.2l11.2-8.6
	l-1.8-2.4l-9.3,7.2L8.5,45v-2.8L29.2,58.1z M42.2,3.6l-11.8,9.1l1.8,2.4l10-7.7l19.7,15.1l-9.4,7.2l1.8,2.4l8.5-6.5v3l-9.7,7.4
	l1.8,2.4l7.8-6v2.8l-9.7,7.4l1.8,2.4l10.8-8.3V21.8L42.2,3.6z M28.2,14.3l23.7,18.2v14.8l-10.2,7.8V39.5L18.5,21.7L28.2,14.3z
	 M48.9,34L28.2,18.1l-4.7,3.6L44.7,38V49l4.2-3.2C48.9,45.8,48.9,34,48.9,34z"/>
</svg>
