<?xml version="1.0" encoding="utf-8"?>
<!-- Generator: Adobe Illustrator 23.1.1, SVG Export Plug-In . SVG Version: 6.00 Build 0)  -->
<!DOCTYPE svg PUBLIC "-//W3C//DTD SVG 1.1//EN" "http://www.w3.org/Graphics/SVG/1.1/DTD/svg11.dtd" [
	<!ENTITY ns_extend "http://ns.adobe.com/Extensibility/1.0/">
	<!ENTITY ns_ai "http://ns.adobe.com/AdobeIllustrator/10.0/">
	<!ENTITY ns_graphs "http://ns.adobe.com/Graphs/1.0/">
	<!ENTITY ns_vars "http://ns.adobe.com/Variables/1.0/">
	<!ENTITY ns_imrep "http://ns.adobe.com/ImageReplacement/1.0/">
	<!ENTITY ns_sfw "http://ns.adobe.com/SaveForWeb/1.0/">
	<!ENTITY ns_custom "http://ns.adobe.com/GenericCustomNamespace/1.0/">
	<!ENTITY ns_adobe_xpath "http://ns.adobe.com/XPath/1.0/">
]>
<svg version="1.1" id="Layer_1" xmlns:x="&ns_extend;" xmlns:i="&ns_ai;" xmlns:graph="&ns_graphs;"
	 xmlns="http://www.w3.org/2000/svg" xmlns:xlink="http://www.w3.org/1999/xlink" x="0px" y="0px" width="71.4px" height="68.25px"
	 viewBox="0 0 71.4 68.25" style="enable-background:new 0 0 71.4 68.25;" xml:space="preserve">
<style type="text/css">
	.st0{fill:url(#SVGID_1_);}
</style>
<metadata>
	<sfw  xmlns="&ns_sfw;">
		<slices></slices>
		<sliceSourceBounds  bottomLeftOrigin="true" height="61.14" width="60.38" x="96.81" y="98.43"></sliceSourceBounds>
	</sfw>
</metadata>
<linearGradient id="SVGID_1_" gradientUnits="userSpaceOnUse" x1="8.2382" y1="63.9605" x2="61.7487" y2="9.7121" gradientTransform="matrix(1 0 0 -1 0 70.25)">
	<stop  offset="0" style="stop-color:#E2A43F"/>
	<stop  offset="1" style="stop-color:#DC6732"/>
</linearGradient>
<path class="st0" d="M23.09,28.49l-2.39,1.83c0.32,1.39,0.32,2.8,0,4.19l5.27,4.05c2.16-0.42,4.31-0.42,6.49,0l2.52-1.94L36.81,39
	l-3.63,2.79l-0.69-0.16c-2.2-0.51-4.36-0.51-6.54,0l-0.69,0.16l-8.07-6.2l0.37-1.03c0.51-1.4,0.51-2.88,0-4.29l-0.37-1.03l4.07-3.12
	L23.09,28.49z M54.2,19.31l-8.08-6.21l-0.7,0.17c-2.06,0.5-4.43,0.51-6.51,0l-0.7-0.17l-3.64,2.8l1.83,2.38l2.51-1.93
	c2.1,0.41,4.4,0.41,6.5,0l5.27,4.05c-0.32,1.38-0.32,2.8,0,4.18l-2.39,1.83l1.82,2.38l4.08-3.12l-0.37-1.03
	c-0.51-1.41-0.51-2.89,0-4.29L54.2,19.31z M43.52,19.55l-0.83,0.64c-0.66,0.5-0.78,1.45-0.28,2.1c0.29,0.39,0.74,0.59,1.19,0.59
	c0.32,0,0.64-0.1,0.91-0.31l0.83-0.64c0.66-0.5,0.78-1.45,0.28-2.1C45.12,19.17,44.18,19.05,43.52,19.55z M26.95,35.65
	c0.32,0,0.64-0.1,0.91-0.31l0.83-0.64c0.66-0.5,0.78-1.45,0.28-2.1c-0.5-0.66-1.45-0.78-2.1-0.28l-0.83,0.64
	c-0.66,0.5-0.78,1.45-0.28,2.1C26.05,35.44,26.5,35.65,26.95,35.65z M29.22,58.12l11.16-8.57l-1.83-2.38l-9.34,7.17L8.51,38.47
	v-3.01l20.71,15.88l11.16-8.56l-1.82-2.38l-9.34,7.16L9.48,32.4l9.36-7.18l-1.83-2.38l-11.5,8.82v14.85l23.71,18.18l11.16-8.56
	l-1.82-2.38l-9.34,7.16L8.51,45.03v-2.79L29.22,58.12z M42.16,3.56l-11.83,9.08l1.83,2.38l10.01-7.68l19.74,15.14l-9.36,7.18
	l1.83,2.38l8.5-6.52v3l-9.66,7.42l1.83,2.38l7.84-6.02v2.8l-9.66,7.41l1.82,2.38l10.84-8.31V21.75L42.16,3.56z M28.17,14.28
	l23.71,18.18v14.85l-10.17,7.8V39.46L18.54,21.68L28.17,14.28z M48.88,33.96L28.17,18.07l-4.71,3.61l21.25,16.3v11.06l4.17-3.2
	C48.88,45.83,48.88,33.96,48.88,33.96z"/>
</svg>
