<?xml version="1.0" encoding="utf-8"?>
<!-- Generator: Adobe Illustrator 23.1.1, SVG Export Plug-In . SVG Version: 6.00 Build 0)  -->
<svg version="1.1" id="Layer_1" xmlns="http://www.w3.org/2000/svg" xmlns:xlink="http://www.w3.org/1999/xlink" x="0px" y="0px"
	 width="60.36px" height="61.14px" viewBox="0 0 60.36 61.14" style="enable-background:new 0 0 60.36 61.14;" xml:space="preserve"
	>
<style type="text/css">
	.st0{fill:url(#SVGID_1_);}
</style>
<linearGradient id="SVGID_1_" gradientUnits="userSpaceOnUse" x1="2.7252" y1="2.7375" x2="56.2357" y2="56.9858">
	<stop  offset="0" style="stop-color:#E2A43F"/>
	<stop  offset="1" style="stop-color:#DC6732"/>
</linearGradient>
<path class="st0" d="M17.58,24.93l-2.39,1.83c0.32,1.39,0.32,2.8,0,4.19L20.46,35c2.16-0.42,4.31-0.42,6.49,0l2.52-1.94l1.83,2.38
	l-3.63,2.79l-0.69-0.16c-2.2-0.51-4.36-0.51-6.54,0l-0.69,0.16l-8.07-6.2L12.05,31c0.51-1.4,0.51-2.88,0-4.29l-0.37-1.03l4.07-3.12
	L17.58,24.93z M48.69,15.75l-8.08-6.21l-0.7,0.17c-2.06,0.5-4.43,0.51-6.51,0l-0.7-0.17l-3.64,2.8l1.83,2.38l2.51-1.93
	c2.1,0.41,4.4,0.41,6.5,0l5.27,4.05c-0.32,1.38-0.32,2.8,0,4.18l-2.39,1.83l1.82,2.38l4.08-3.12l-0.37-1.03
	c-0.51-1.41-0.51-2.89,0-4.29L48.69,15.75z M38.01,15.99l-0.83,0.64c-0.66,0.5-0.78,1.45-0.28,2.1c0.29,0.39,0.74,0.59,1.19,0.59
	c0.32,0,0.64-0.1,0.91-0.31l0.83-0.64c0.66-0.5,0.78-1.45,0.28-2.1C39.61,15.61,38.67,15.49,38.01,15.99z M21.44,32.1
	c0.32,0,0.64-0.1,0.91-0.31l0.83-0.64c0.66-0.5,0.78-1.45,0.28-2.1c-0.5-0.66-1.45-0.78-2.1-0.28l-0.83,0.64
	c-0.66,0.5-0.78,1.45-0.28,2.1C20.54,31.89,20.99,32.1,21.44,32.1z M23.71,54.57L34.87,46l-1.83-2.38l-9.34,7.17L3,34.91v-3.01
	l20.71,15.88l11.16-8.56l-1.82-2.38L23.71,44L3.97,28.85l9.36-7.18l-1.83-2.38L0,28.11v14.85l23.71,18.18l11.16-8.56l-1.82-2.38
	l-9.34,7.16L3,41.48v-2.79L23.71,54.57z M36.65,0L24.82,9.08l1.83,2.38l10.01-7.68L56.4,18.92l-9.36,7.18l1.83,2.38l8.5-6.52v3
	l-9.66,7.42l1.83,2.38l7.84-6.02v2.8l-9.66,7.41l1.82,2.38l10.84-8.31V18.19L36.65,0z M22.66,10.73l23.71,18.18v14.85l-10.17,7.8
	V35.9L13.03,18.12L22.66,10.73z M43.37,30.4L22.66,14.51l-4.71,3.61L39.2,34.42v11.06l4.17-3.2V30.4z"/>
</svg>
