<?xml version="1.0" encoding="utf-8"?>
<!-- Generator: Adobe Illustrator 23.1.1, SVG Export Plug-In . SVG Version: 6.00 Build 0)  -->
<svg version="1.1" id="Layer_1" xmlns="http://www.w3.org/2000/svg" xmlns:xlink="http://www.w3.org/1999/xlink" x="0px" y="0px"
	 width="256px" height="256px" viewBox="0 0 256 256" style="enable-background:new 0 0 256 256;" xml:space="preserve">
<style type="text/css">
	.st0{fill:#0F1521;}
	.st1{fill:#7F0000;}
</style>
<g>
	<path class="st0" d="M67.95,147.92c0,2.07,0.07,3.62,0.18,4.66c0.12,1.04,0.32,1.87,0.6,2.49c0.28,0.62,0.6,1.13,0.99,1.52
		c0.39,0.39,0.95,0.74,1.68,1.06c0.71,0.32,1.84,0.67,3.39,1.01v2.63H50.15v-2.63c2.17-0.51,3.67-1.06,4.52-1.66
		c0.85-0.6,1.45-1.52,1.8-2.79c0.32-1.24,0.51-3.34,0.51-6.32v-22.38H24.27v22.38c0,2.4,0.09,4.13,0.28,5.23
		c0.18,1.11,0.46,1.98,0.88,2.63c0.41,0.65,1.01,1.18,1.82,1.61s2.1,0.85,3.92,1.29v2.63H6.4v-2.63c2.42-0.58,4.06-1.2,4.89-1.89
		c0.83-0.69,1.36-1.68,1.61-2.97c0.25-1.29,0.39-3.25,0.39-5.88v-46.24c0-2.47-0.09-4.24-0.3-5.37s-0.53-2.01-0.97-2.63
		c-0.46-0.62-1.06-1.13-1.8-1.5c-0.76-0.37-2.03-0.78-3.83-1.24v-2.63h24.76v2.63c-1.73,0.39-2.97,0.78-3.73,1.18
		s-1.38,0.88-1.82,1.48c-0.46,0.58-0.78,1.48-0.99,2.65c-0.21,1.18-0.32,3-0.32,5.44v18.93h32.69v-18.93c0-3.09-0.16-5.21-0.51-6.36
		c-0.32-1.13-0.9-2.01-1.68-2.63c-0.78-0.6-2.33-1.18-4.63-1.75v-2.63H74.8v2.63c-2.19,0.51-3.73,1.06-4.59,1.68
		s-1.45,1.57-1.78,2.81c-0.32,1.24-0.46,3.34-0.46,6.25v46.24H67.95z"/>
</g>
<g>
	<path class="st1" d="M143.49,172.65c-5.14,4.5-10.1,7.72-14.89,9.64c-4.79,1.91-10.12,2.88-15.95,2.88
		c-6.09,0-11.39-1.13-15.93-3.41c-4.52-2.28-7.98-5.51-10.37-9.68c-2.4-4.17-3.57-9.08-3.57-14.73c0-4.5,0.76-8.58,2.31-12.22
		c1.54-3.64,4.01-7.19,7.4-10.65c3.39-3.46,8-7.03,13.85-10.7c-3.67-5.26-6.29-10.05-7.84-14.36c-1.57-4.31-2.33-8.71-2.33-13.21
		c0-5.09,1.2-9.61,3.62-13.53c2.42-3.92,5.86-6.98,10.3-9.17c4.45-2.19,9.41-3.3,14.82-3.3c3.37,0,6.52,0.37,9.47,1.11
		c2.95,0.74,5.51,1.94,7.7,3.57c2.19,1.64,3.92,3.78,5.16,6.41c1.27,2.63,1.89,5.83,1.89,9.64c0,1.8-0.18,3.55-0.53,5.23
		c-0.35,1.68-0.88,3.27-1.59,4.77c-0.71,1.5-1.61,3.07-2.74,4.66c-1.13,1.59-2.7,3.32-4.68,5.19c-1.98,1.87-4.52,3.85-7.58,5.92
		c-3.07,2.07-6.45,4.29-10.19,6.59c2.51,3.69,6.29,8.78,11.32,15.31c5.03,6.52,10.07,12.84,15.17,18.93
		c3.37-3.78,5.88-7.56,7.51-11.36c1.64-3.78,2.44-7.68,2.44-11.69c0-2.86-0.6-5-1.82-6.41c-1.2-1.43-3.14-2.31-5.81-2.63v-4.03
		h21.51v4.03c0,0.76-0.25,2.4-0.76,4.86c-0.3,1.59-0.67,3.18-1.13,4.77c-0.46,1.54-0.99,3.07-1.59,4.61
		c-0.6,1.54-1.29,3.04-2.03,4.52c-0.76,1.59-1.61,3.16-2.56,4.68c-0.95,1.54-1.98,3.07-3.09,4.61c-1.15,1.59-2.44,3.18-3.85,4.77
		c-1.36,1.59-2.81,3.18-4.38,4.77c2.47,3.14,4.61,5.58,6.45,7.33s3.48,3,4.91,3.73c1.43,0.74,2.93,1.11,4.5,1.11
		c1.5,0,2.95-0.39,4.33-1.15c1.38-0.76,3.23-2.24,5.56-4.36l3.48,4.68c-3.02,3.41-6.18,6.04-9.47,7.95
		c-3.3,1.89-6.45,2.84-9.47,2.84c-2.47,0-4.61-0.35-6.45-1.06c-1.84-0.71-3.71-1.89-5.62-3.55
		C148.95,178.92,146.51,176.3,143.49,172.65z M110.43,129.71c-4.93,3.5-8.53,7.19-10.79,11.07s-3.39,8.28-3.39,13.21
		c0,4.56,0.85,8.48,2.56,11.8c1.71,3.32,4.06,5.81,7.01,7.45c2.97,1.64,6.32,2.47,10.03,2.47c4.38,0,8.32-0.62,11.85-1.89
		c3.53-1.27,7.26-3.48,11.25-6.66c-1.61-1.98-3.92-4.89-6.94-8.71l-12.45-16.21c-2.05-2.74-3.9-5.21-5.51-7.4L110.43,129.71z
		 M117.53,117.67c6.43-3.73,11.3-7.75,14.59-12.01c3.3-4.29,4.93-8.76,4.93-13.42c0-3.14-0.55-5.83-1.61-8.11
		c-1.08-2.28-2.63-4.01-4.63-5.19c-2.01-1.18-4.31-1.78-6.87-1.78c-2.97,0-5.6,0.69-7.88,2.1c-2.28,1.41-4.08,3.43-5.35,6.09
		c-1.29,2.65-1.91,5.81-1.91,9.43c0,3.34,0.65,6.78,1.91,10.28C111.98,108.59,114.26,112.79,117.53,117.67z"/>
</g>
<g>
	<path class="st0" d="M242.75,147.92c0,2.07,0.07,3.62,0.18,4.66c0.12,1.04,0.32,1.87,0.6,2.49c0.28,0.62,0.6,1.13,0.99,1.52
		c0.39,0.39,0.95,0.74,1.68,1.06c0.71,0.32,1.84,0.67,3.39,1.01v2.63h-24.67v-2.63c2.17-0.51,3.67-1.06,4.52-1.66
		c0.85-0.6,1.45-1.52,1.8-2.79c0.32-1.24,0.51-3.34,0.51-6.32v-22.38h-32.69v22.38c0,2.4,0.09,4.13,0.28,5.23
		c0.18,1.11,0.46,1.98,0.88,2.63c0.41,0.65,1.01,1.18,1.82,1.61c0.81,0.44,2.1,0.85,3.92,1.29v2.63H181.2v-2.63
		c2.42-0.58,4.06-1.2,4.89-1.89c0.83-0.69,1.36-1.68,1.61-2.97c0.25-1.29,0.39-3.25,0.39-5.88v-46.24c0-2.47-0.09-4.24-0.3-5.37
		c-0.21-1.13-0.53-2.01-0.97-2.63c-0.44-0.62-1.04-1.13-1.8-1.5c-0.74-0.37-2.03-0.78-3.83-1.24v-2.63h24.76v2.63
		c-1.73,0.39-2.97,0.78-3.73,1.18s-1.36,0.88-1.82,1.48c-0.46,0.58-0.78,1.48-0.99,2.65s-0.32,3-0.32,5.44v18.93h32.69v-18.93
		c0-3.09-0.16-5.21-0.51-6.36c-0.32-1.13-0.9-2.01-1.68-2.63c-0.81-0.6-2.35-1.18-4.66-1.75v-2.63h24.64v2.63
		c-2.19,0.51-3.71,1.06-4.59,1.68c-0.85,0.62-1.45,1.57-1.78,2.81c-0.32,1.24-0.46,3.34-0.46,6.25V147.92z"/>
</g>
</svg>
