<?xml version="1.0" encoding="utf-8"?>
<!-- Generator: Adobe Illustrator 23.1.1, SVG Export Plug-In . SVG Version: 6.00 Build 0)  -->
<!DOCTYPE svg PUBLIC "-//W3C//DTD SVG 1.1//EN" "http://www.w3.org/Graphics/SVG/1.1/DTD/svg11.dtd" [
	<!ENTITY ns_extend "http://ns.adobe.com/Extensibility/1.0/">
	<!ENTITY ns_ai "http://ns.adobe.com/AdobeIllustrator/10.0/">
	<!ENTITY ns_graphs "http://ns.adobe.com/Graphs/1.0/">
	<!ENTITY ns_vars "http://ns.adobe.com/Variables/1.0/">
	<!ENTITY ns_imrep "http://ns.adobe.com/ImageReplacement/1.0/">
	<!ENTITY ns_sfw "http://ns.adobe.com/SaveForWeb/1.0/">
	<!ENTITY ns_custom "http://ns.adobe.com/GenericCustomNamespace/1.0/">
	<!ENTITY ns_adobe_xpath "http://ns.adobe.com/XPath/1.0/">
]>
<svg version="1.1" id="Layer_1" xmlns:x="&ns_extend;" xmlns:i="&ns_ai;" xmlns:graph="&ns_graphs;"
	 xmlns="http://www.w3.org/2000/svg" xmlns:xlink="http://www.w3.org/1999/xlink" x="0px" y="0px" width="71.4px" height="68.25px"
	 viewBox="0 0 71.4 68.25" style="enable-background:new 0 0 71.4 68.25;" xml:space="preserve">
<style type="text/css">
	.st0{fill:url(#SVGID_1_);}
</style>
<metadata>
	<sfw  xmlns="&ns_sfw;">
		<slices></slices>
		<sliceSourceBounds  bottomLeftOrigin="true" height="36.14" width="44.46" x="104.77" y="110.93"></sliceSourceBounds>
	</sfw>
</metadata>
<linearGradient id="SVGID_1_" gradientUnits="userSpaceOnUse" x1="19.1756" y1="59.7899" x2="58.8828" y2="19.5546" gradientTransform="matrix(1 0 0 -1 0 70.25)">
	<stop  offset="0" style="stop-color:#E4AA48"/>
	<stop  offset="1" style="stop-color:#DC6632"/>
</linearGradient>
<path class="st0" d="M36.34,22.12h-1.28v-6.07h1.28V22.12z M24.14,21.84l-2.43-4.85l-1.15,0.57l2.43,4.85L24.14,21.84z M50.84,17.56
	l-1.14-0.57l-2.43,4.85l1.14,0.57L50.84,17.56z M46.99,25.12l5.27,9.23L35.7,52.19L19.13,34.35l5.27-9.23H46.99z M36.94,26.41
	l4.77,6.67l3.81-6.67H36.94z M35.7,26.87l-4.83,6.76h9.65L35.7,26.87z M25.88,26.41l3.81,6.67l4.77-6.67H25.88z M21.02,33.62h7.51
	l-3.75-6.57L21.02,33.62z M34.05,48.53L29.18,34.9h-7.79L34.05,48.53z M35.7,49.35l5.16-14.45H30.54L35.7,49.35z M50.01,34.9h-7.79
	l-4.87,13.64L50.01,34.9z M50.38,33.62l-3.76-6.57l-3.75,6.57H50.38z M57.16,24.03l-4.85,3.64l0.77,1.02l4.85-3.64L57.16,24.03z
	 M13.47,25.07l4.86,3.64l0.77-1.02l-4.86-3.65L13.47,25.07z"/>
</svg>
