<?xml version="1.0" encoding="utf-8"?>
<!-- Generator: Adobe Illustrator 23.1.1, SVG Export Plug-In . SVG Version: 6.00 Build 0)  -->
<!DOCTYPE svg PUBLIC "-//W3C//DTD SVG 1.1//EN" "http://www.w3.org/Graphics/SVG/1.1/DTD/svg11.dtd" [
	<!ENTITY ns_extend "http://ns.adobe.com/Extensibility/1.0/">
	<!ENTITY ns_ai "http://ns.adobe.com/AdobeIllustrator/10.0/">
	<!ENTITY ns_graphs "http://ns.adobe.com/Graphs/1.0/">
	<!ENTITY ns_vars "http://ns.adobe.com/Variables/1.0/">
	<!ENTITY ns_imrep "http://ns.adobe.com/ImageReplacement/1.0/">
	<!ENTITY ns_sfw "http://ns.adobe.com/SaveForWeb/1.0/">
	<!ENTITY ns_custom "http://ns.adobe.com/GenericCustomNamespace/1.0/">
	<!ENTITY ns_adobe_xpath "http://ns.adobe.com/XPath/1.0/">
]>
<svg version="1.1" id="Layer_1" xmlns:x="&ns_extend;" xmlns:i="&ns_ai;" xmlns:graph="&ns_graphs;"
	 xmlns="http://www.w3.org/2000/svg" xmlns:xlink="http://www.w3.org/1999/xlink" x="0px" y="0px" width="71.4px" height="68.25px"
	 viewBox="0 0 71.4 68.25" style="enable-background:new 0 0 71.4 68.25;" xml:space="preserve">
<style type="text/css">
	.st0{fill:url(#SVGID_1_);}
</style>
<metadata>
	<sfw  xmlns="&ns_sfw;">
		<slices></slices>
		<sliceSourceBounds  bottomLeftOrigin="true" height="35.07" width="24.03" x="114.99" y="111.46"></sliceSourceBounds>
	</sfw>
</metadata>
<linearGradient id="SVGID_1_" gradientUnits="userSpaceOnUse" x1="20.8639" y1="50.9496" x2="52.176" y2="19.2109" gradientTransform="matrix(1 0 0 -1 0 70.25)">
	<stop  offset="0" style="stop-color:#E2A53F"/>
	<stop  offset="1" style="stop-color:#DC6532"/>
</linearGradient>
<path class="st0" d="M35.71,16.59c-6.63,0-12.02,5.39-12.02,12.02c0,1.96,0.48,3.9,1.4,5.63c0.01,0.03,0.03,0.06,0.05,0.09
	c0.1,0.19,0.21,0.38,0.32,0.55l8.85,15.32h-3.74c-0.4,0-0.73,0.33-0.73,0.73s0.33,0.73,0.73,0.73h10.27c0.4,0,0.73-0.33,0.73-0.73
	s-0.33-0.73-0.73-0.73h-3.73l8.84-15.31c0.12-0.19,0.23-0.38,0.32-0.56c0.01-0.02,0.03-0.05,0.04-0.08
	c0.92-1.73,1.41-3.68,1.41-5.64C47.72,21.98,42.32,16.59,35.71,16.59z M45.01,33.58c0,0.01-0.01,0.02-0.02,0.03
	c-0.1,0.18-0.2,0.35-0.31,0.53L35.71,49.7l-9-15.58c-0.1-0.17-0.2-0.34-0.3-0.51c0-0.01-0.01-0.02-0.01-0.03
	c-0.82-1.52-1.25-3.24-1.25-4.97c0-5.82,4.74-10.56,10.56-10.56s10.56,4.73,10.56,10.55C46.25,30.34,45.82,32.06,45.01,33.58z
	 M35.71,22.66c-2.72,0-4.94,2.21-4.94,4.93s2.21,4.93,4.94,4.93c2.72,0,4.94-2.21,4.94-4.93C40.64,24.87,38.42,22.66,35.71,22.66z
	 M35.71,31.06c-1.92,0-3.47-1.56-3.47-3.47c0-1.92,1.56-3.47,3.47-3.47c1.92,0,3.47,1.56,3.47,3.47S37.61,31.06,35.71,31.06z"/>
</svg>
