<?xml version="1.0" encoding="utf-8"?>
<!-- Generator: Adobe Illustrator 23.1.1, SVG Export Plug-In . SVG Version: 6.00 Build 0)  -->
<svg version="1.1" id="Layer_1" xmlns="http://www.w3.org/2000/svg" xmlns:xlink="http://www.w3.org/1999/xlink" x="0px" y="0px"
	 width="29.37px" height="29.37px" viewBox="0 0 29.37 29.37" style="enable-background:new 0 0 29.37 29.37;" xml:space="preserve"
	>
<style type="text/css">
	.st0{fill:url(#SVGID_1_);}
</style>
<linearGradient id="SVGID_1_" gradientUnits="userSpaceOnUse" x1="1.9916" y1="1.8717" x2="27.9394" y2="28.0645">
	<stop  offset="0" style="stop-color:#E2A53F"/>
	<stop  offset="1" style="stop-color:#DC6531"/>
</linearGradient>
<path class="st0" d="M14.69,0C6.59,0,0,6.59,0,14.69s6.59,14.69,14.69,14.69s14.69-6.59,14.69-14.69S22.78,0,14.69,0z M14.69,28.15
	c-7.42,0-13.46-6.04-13.46-13.46S7.26,1.22,14.69,1.22c7.42,0,13.46,6.04,13.46,13.46S22.11,28.15,14.69,28.15z M15.3,7.41v7.28
	c0,0.16-0.06,0.32-0.18,0.43l-3.34,3.34c-0.12,0.12-0.28,0.18-0.43,0.18s-0.31-0.06-0.43-0.18c-0.24-0.24-0.24-0.63,0-0.87
	l3.16-3.16V7.41c0-0.34,0.27-0.61,0.61-0.61C15.02,6.79,15.3,7.07,15.3,7.41z M15.3,2.92v1.29c0,0.34-0.27,0.61-0.61,0.61
	c-0.34,0-0.61-0.27-0.61-0.61V2.92c0-0.34,0.27-0.61,0.61-0.61C15.02,2.31,15.3,2.58,15.3,2.92z M9.98,5.31
	c0.17,0.29,0.07,0.67-0.22,0.84c-0.1,0.06-0.2,0.08-0.31,0.08c-0.21,0-0.42-0.11-0.53-0.31L8.27,4.8C8.1,4.51,8.2,4.13,8.5,3.97
	C8.79,3.8,9.16,3.9,9.33,4.19L9.98,5.31z M6.15,9.76c-0.11,0.2-0.32,0.31-0.53,0.31c-0.1,0-0.21-0.03-0.31-0.08L4.19,9.33
	C3.9,9.16,3.8,8.79,3.97,8.5C4.13,8.2,4.51,8.1,4.8,8.27l1.12,0.65C6.22,9.09,6.32,9.46,6.15,9.76z M4.21,15.3H2.92
	c-0.34,0-0.61-0.27-0.61-0.61s0.27-0.61,0.61-0.61h1.29c0.34,0,0.61,0.27,0.61,0.61S4.55,15.3,4.21,15.3z M6.15,19.62
	c0.17,0.29,0.07,0.67-0.22,0.84L4.8,21.1c-0.1,0.06-0.2,0.08-0.31,0.08c-0.21,0-0.42-0.11-0.53-0.31c-0.17-0.29-0.07-0.67,0.22-0.84
	l1.12-0.65C5.6,19.22,5.98,19.32,6.15,19.62z M9.98,24.06l-0.65,1.12c-0.11,0.2-0.32,0.31-0.53,0.31c-0.1,0-0.21-0.03-0.31-0.08
	c-0.29-0.17-0.39-0.54-0.22-0.84l0.65-1.12c0.17-0.29,0.54-0.39,0.84-0.22C10.05,23.39,10.15,23.77,9.98,24.06z M15.3,25.16v1.29
	c0,0.34-0.27,0.61-0.61,0.61c-0.34,0-0.61-0.27-0.61-0.61v-1.29c0-0.34,0.27-0.61,0.61-0.61C15.02,24.55,15.3,24.82,15.3,25.16z
	 M21.1,24.57c0.17,0.29,0.07,0.67-0.22,0.84c-0.1,0.06-0.2,0.08-0.31,0.08c-0.21,0-0.42-0.11-0.53-0.31l-0.65-1.12
	c-0.17-0.29-0.07-0.67,0.22-0.84c0.29-0.17,0.67-0.07,0.84,0.22L21.1,24.57z M25.41,20.87c-0.11,0.2-0.32,0.31-0.53,0.31
	c-0.1,0-0.21-0.03-0.31-0.08l-1.12-0.65c-0.29-0.17-0.39-0.54-0.22-0.84c0.17-0.29,0.54-0.39,0.84-0.22l1.12,0.65
	C25.47,20.21,25.57,20.58,25.41,20.87z M27.06,14.69c0,0.34-0.27,0.61-0.61,0.61h-1.29c-0.34,0-0.61-0.27-0.61-0.61
	s0.27-0.61,0.61-0.61h1.29C26.79,14.07,27.06,14.35,27.06,14.69z M23.22,9.76c-0.17-0.29-0.07-0.67,0.22-0.84l1.12-0.65
	c0.29-0.17,0.67-0.07,0.84,0.22c0.17,0.29,0.07,0.67-0.22,0.84l-1.12,0.65c-0.1,0.06-0.2,0.08-0.31,0.08
	C23.54,10.06,23.34,9.95,23.22,9.76z M21.1,4.8l-0.65,1.12c-0.11,0.2-0.32,0.31-0.53,0.31c-0.1,0-0.21-0.03-0.31-0.08
	c-0.29-0.17-0.39-0.54-0.22-0.84l0.65-1.12c0.17-0.29,0.54-0.39,0.84-0.22C21.17,4.13,21.27,4.51,21.1,4.8z"/>
</svg>
