<?xml version="1.0" encoding="utf-8"?>
<!-- Generator: Adobe Illustrator 23.1.1, SVG Export Plug-In . SVG Version: 6.00 Build 0)  -->
<svg version="1.1" id="Layer_1" xmlns="http://www.w3.org/2000/svg" xmlns:xlink="http://www.w3.org/1999/xlink" x="0px" y="0px"
	 width="44.46px" height="36.14px" viewBox="0 0 44.46 36.14" style="enable-background:new 0 0 44.46 36.14;" xml:space="preserve"
	>
<style type="text/css">
	.st0{fill:url(#SVGID_1_);}
</style>
<linearGradient id="SVGID_1_" gradientUnits="userSpaceOnUse" x1="5.7053" y1="-5.5946" x2="45.4125" y2="34.6407">
	<stop  offset="0" style="stop-color:#E4AA48"/>
	<stop  offset="1" style="stop-color:#DC6632"/>
</linearGradient>
<path class="st0" d="M22.87,6.07h-1.28V0h1.28V6.07z M10.67,5.78L8.24,0.93L7.09,1.5l2.43,4.85L10.67,5.78z M37.37,1.5l-1.14-0.57
	L33.8,5.78l1.14,0.57L37.37,1.5z M33.52,9.07l5.27,9.23L22.23,36.14L5.66,18.3l5.27-9.23H33.52z M23.47,10.35l4.77,6.67l3.81-6.67
	H23.47z M22.23,10.81l-4.83,6.76h9.65L22.23,10.81z M12.41,10.35l3.81,6.67l4.77-6.67H12.41z M7.55,17.57h7.51L11.31,11L7.55,17.57z
	 M20.58,32.48l-4.87-13.64H7.92L20.58,32.48z M22.23,33.3l5.16-14.45H17.07L22.23,33.3z M36.54,18.85h-7.79l-4.87,13.64L36.54,18.85
	z M36.91,17.57L33.15,11l-3.75,6.57H36.91z M43.69,7.98l-4.85,3.64l0.77,1.02l4.85-3.64L43.69,7.98z M0,9.01l4.86,3.64l0.77-1.02
	L0.77,7.98L0,9.01z"/>
</svg>
