<?xml version="1.0" encoding="utf-8"?>
<!-- Generator: Adobe Illustrator 23.1.1, SVG Export Plug-In . SVG Version: 6.00 Build 0)  -->
<!DOCTYPE svg PUBLIC "-//W3C//DTD SVG 1.1//EN" "http://www.w3.org/Graphics/SVG/1.1/DTD/svg11.dtd" [
	<!ENTITY ns_extend "http://ns.adobe.com/Extensibility/1.0/">
	<!ENTITY ns_ai "http://ns.adobe.com/AdobeIllustrator/10.0/">
	<!ENTITY ns_graphs "http://ns.adobe.com/Graphs/1.0/">
	<!ENTITY ns_vars "http://ns.adobe.com/Variables/1.0/">
	<!ENTITY ns_imrep "http://ns.adobe.com/ImageReplacement/1.0/">
	<!ENTITY ns_sfw "http://ns.adobe.com/SaveForWeb/1.0/">
	<!ENTITY ns_custom "http://ns.adobe.com/GenericCustomNamespace/1.0/">
	<!ENTITY ns_adobe_xpath "http://ns.adobe.com/XPath/1.0/">
]>
<svg version="1.1" id="Layer_1" xmlns:x="&ns_extend;" xmlns:i="&ns_ai;" xmlns:graph="&ns_graphs;"
	 xmlns="http://www.w3.org/2000/svg" xmlns:xlink="http://www.w3.org/1999/xlink" x="0px" y="0px" viewBox="0 0 71.4 68.2"
	 style="enable-background:new 0 0 71.4 68.2;" xml:space="preserve">
<style type="text/css">
	.st0{fill:url(#SVGID_1_);}
</style>
<metadata>
	<sfw  xmlns="&ns_sfw;">
		<slices></slices>
		<sliceSourceBounds  bottomLeftOrigin="true" height="28.7" width="28.7" x="21.3" y="19.8"></sliceSourceBounds>
	</sfw>
</metadata>
<linearGradient id="SVGID_1_" gradientUnits="userSpaceOnUse" x1="32.5767" y1="205.0934" x2="39.2018" y2="235.8945" gradientTransform="matrix(1 0 0 1 0 -185.75)">
	<stop  offset="9.100699e-02" style="stop-color:#E1A43F"/>
	<stop  offset="0.1122" style="stop-color:#E1A23F"/>
	<stop  offset="0.4629" style="stop-color:#DC8037"/>
	<stop  offset="0.7523" style="stop-color:#D96B33"/>
	<stop  offset="0.943" style="stop-color:#D86331"/>
</linearGradient>
<path class="st0" d="M49.8,42.3l-0.5,0.8c-2.1,3.4-3.3,5.4-5.5,5.4c-0.2,0-0.4,0-0.6,0c-5.7-0.8-10.3-3.2-14.4-7.3c0,0,0,0,0,0l0,0
	c-4.1-4.1-6.5-8.7-7.3-14.4C21,24,23,22.8,26.7,20.6l0.8-0.5c0.5-0.3,1-0.4,1.6-0.2s1,0.5,1.2,1l2.2,5c0.5,1.1,0,2.3-1,2.8l-1.6,0.8
	c-0.3,0.1-0.7,0-0.8-0.3c-0.1-0.3,0-0.7,0.3-0.8l1.6-0.8c0.5-0.2,0.7-0.8,0.5-1.2l-2.2-5c-0.1-0.2-0.2-0.3-0.4-0.4
	c-0.2-0.1-0.4,0-0.6,0.1l-0.8,0.5c-3.7,2.3-5,3.1-4.8,4.9c0.8,5.4,3,9.8,7,13.8c0,0,0,0,0,0c4,4,8.4,6.2,13.8,7
	c1.7,0.3,2.6-1,4.9-4.8l0.5-0.8c0.1-0.2,0.1-0.4,0.1-0.6c-0.1-0.2-0.2-0.4-0.4-0.4l-5-2.2c-0.5-0.2-1,0-1.2,0.5l-0.8,1.6
	c-0.1,0.3-0.5,0.4-0.8,0.3s-0.4-0.5-0.3-0.8l0.8-1.6c0.5-1.1,1.8-1.5,2.8-1l5,2.2c0.5,0.2,0.9,0.7,1,1.2
	C50.2,41.2,50.1,41.8,49.8,42.3z M29.9,31.6c-0.3,0.2-0.4,0.5-0.2,0.8c0.9,1.4,2,2.8,3.4,4.2c0,0,0,0,0,0l0,0
	c1.2,1.2,2.3,2.1,3.5,2.9c0.1,0.1,0.2,0.1,0.3,0.1c0.2,0,0.4-0.1,0.5-0.3c0.2-0.3,0.1-0.7-0.2-0.8c-1.1-0.7-2.2-1.7-3.3-2.8
	l-0.4,0.4l0.4-0.5l0,0c-1.3-1.3-2.4-2.7-3.2-4C30.6,31.6,30.2,31.5,29.9,31.6z"/>
</svg>
