<?xml version="1.0" encoding="utf-8"?>
<!-- Generator: Adobe Illustrator 23.1.1, SVG Export Plug-In . SVG Version: 6.00 Build 0)  -->
<svg version="1.1" id="Layer_1" xmlns="http://www.w3.org/2000/svg" xmlns:xlink="http://www.w3.org/1999/xlink" x="0px" y="0px"
	 width="28.74px" height="28.74px" viewBox="0 0 28.74 28.74" style="enable-background:new 0 0 28.74 28.74;" xml:space="preserve"
	>
<style type="text/css">
	.st0{fill:url(#SVGID_1_);}
</style>
<linearGradient id="SVGID_1_" gradientUnits="userSpaceOnUse" x1="-1.3632" y1="1.5011" x2="30.1411" y2="33.1737">
	<stop  offset="0" style="stop-color:#E1A43F"/>
	<stop  offset="1" style="stop-color:#D86331"/>
</linearGradient>
<path class="st0" d="M28.45,22.55l-0.51,0.83c-2.06,3.38-3.27,5.36-5.47,5.36c-0.19,0-0.4-0.02-0.61-0.05
	c-5.7-0.85-10.29-3.18-14.44-7.33c0,0-0.02-0.02-0.03-0.03L7.37,21.3C3.23,17.16,0.9,12.57,0.05,6.87
	c-0.39-2.59,1.64-3.83,5.31-6.07l0.83-0.51c0.47-0.29,1.05-0.36,1.58-0.2C8.3,0.25,8.73,0.63,8.95,1.14l2.21,4.96
	c0.48,1.07,0.02,2.31-1.03,2.82L8.49,9.71c-0.3,0.14-0.66,0.02-0.8-0.28c-0.14-0.3-0.02-0.66,0.28-0.8l1.64-0.79
	c0.47-0.23,0.67-0.78,0.46-1.25L7.86,1.62C7.77,1.43,7.62,1.29,7.42,1.23C7.21,1.17,7,1.19,6.82,1.31L5.98,1.82
	C2.25,4.09,0.98,4.97,1.23,6.69c0.81,5.43,3.03,9.81,6.99,13.77c0.01,0.01,0.03,0.02,0.04,0.04c3.97,3.97,8.35,6.19,13.78,7
	c1.72,0.26,2.6-1.02,4.88-4.76l0.51-0.83c0.11-0.18,0.14-0.4,0.08-0.6c-0.06-0.2-0.2-0.36-0.39-0.44l-4.96-2.21
	c-0.48-0.21-1.03-0.01-1.25,0.46l-0.79,1.64c-0.14,0.3-0.5,0.42-0.8,0.28c-0.3-0.14-0.42-0.5-0.28-0.8l0.79-1.64
	c0.51-1.06,1.75-1.51,2.82-1.03l4.96,2.21c0.5,0.22,0.89,0.66,1.05,1.18C28.82,21.5,28.74,22.07,28.45,22.55z M8.58,11.89
	c-0.28,0.17-0.37,0.54-0.2,0.82c0.85,1.39,1.99,2.8,3.39,4.2c0.01,0.01,0.02,0.02,0.03,0.03c0,0,0.02,0.02,0.02,0.02
	c1.15,1.15,2.32,2.13,3.47,2.91c0.1,0.07,0.22,0.1,0.34,0.1c0.19,0,0.38-0.09,0.5-0.26c0.19-0.27,0.12-0.65-0.16-0.83
	c-1.09-0.74-2.2-1.67-3.3-2.77l-0.42,0.42l0.4-0.45l-0.02-0.02c-1.34-1.34-2.42-2.68-3.22-3.98C9.23,11.81,8.86,11.72,8.58,11.89z"
	/>
</svg>
