<?xml version="1.0" encoding="utf-8"?>
<!-- Generator: Adobe Illustrator 23.1.1, SVG Export Plug-In . SVG Version: 6.00 Build 0)  -->
<svg version="1.1" id="Layer_1" xmlns="http://www.w3.org/2000/svg" xmlns:xlink="http://www.w3.org/1999/xlink" x="0px" y="0px"
	 width="24.03px" height="35.07px" viewBox="0 0 24.03 35.07" style="enable-background:new 0 0 24.03 35.07;" xml:space="preserve"
	>
<style type="text/css">
	.st0{fill:url(#SVGID_1_);}
</style>
<linearGradient id="SVGID_1_" gradientUnits="userSpaceOnUse" x1="-2.8199" y1="2.7092" x2="28.4922" y2="34.4479">
	<stop  offset="0" style="stop-color:#E2A53F"/>
	<stop  offset="1" style="stop-color:#DC6532"/>
</linearGradient>
<path class="st0" d="M12.02,0C5.39,0,0,5.39,0,12.02c0,1.96,0.48,3.9,1.4,5.63c0.01,0.03,0.03,0.06,0.05,0.09
	c0.1,0.19,0.21,0.38,0.32,0.55l8.85,15.32H6.88c-0.4,0-0.73,0.33-0.73,0.73s0.33,0.73,0.73,0.73h10.27c0.4,0,0.73-0.33,0.73-0.73
	s-0.33-0.73-0.73-0.73h-3.73l8.84-15.31c0.12-0.19,0.23-0.38,0.32-0.56c0.01-0.02,0.03-0.05,0.04-0.08
	c0.92-1.73,1.41-3.68,1.41-5.64C24.03,5.39,18.64,0,12.02,0z M21.33,16.99c0,0.01-0.01,0.02-0.02,0.03c-0.1,0.18-0.2,0.35-0.31,0.53
	l-8.98,15.56l-9-15.58c-0.1-0.17-0.2-0.34-0.3-0.51C2.72,17.01,2.71,17,2.71,16.99c-0.82-1.52-1.25-3.24-1.25-4.97
	C1.46,6.2,6.2,1.46,12.02,1.46c5.82,0,10.56,4.73,10.56,10.55C22.57,13.75,22.14,15.47,21.33,16.99z M12.02,6.07
	c-2.72,0-4.94,2.21-4.94,4.93c0,2.72,2.21,4.93,4.94,4.93c2.72,0,4.94-2.21,4.94-4.93C16.95,8.28,14.74,6.07,12.02,6.07z
	 M12.02,14.47c-1.92,0-3.47-1.56-3.47-3.47c0-1.92,1.56-3.47,3.47-3.47c1.92,0,3.47,1.56,3.47,3.47
	C15.49,12.91,13.93,14.47,12.02,14.47z"/>
</svg>
