<?xml version="1.0" encoding="utf-8"?>
<!-- Generator: Adobe Illustrator 23.1.1, SVG Export Plug-In . SVG Version: 6.00 Build 0)  -->
<!DOCTYPE svg PUBLIC "-//W3C//DTD SVG 1.1//EN" "http://www.w3.org/Graphics/SVG/1.1/DTD/svg11.dtd" [
	<!ENTITY ns_extend "http://ns.adobe.com/Extensibility/1.0/">
	<!ENTITY ns_ai "http://ns.adobe.com/AdobeIllustrator/10.0/">
	<!ENTITY ns_graphs "http://ns.adobe.com/Graphs/1.0/">
	<!ENTITY ns_vars "http://ns.adobe.com/Variables/1.0/">
	<!ENTITY ns_imrep "http://ns.adobe.com/ImageReplacement/1.0/">
	<!ENTITY ns_sfw "http://ns.adobe.com/SaveForWeb/1.0/">
	<!ENTITY ns_custom "http://ns.adobe.com/GenericCustomNamespace/1.0/">
	<!ENTITY ns_adobe_xpath "http://ns.adobe.com/XPath/1.0/">
]>
<svg version="1.1" id="Layer_1" xmlns:x="&ns_extend;" xmlns:i="&ns_ai;" xmlns:graph="&ns_graphs;"
	 xmlns="http://www.w3.org/2000/svg" xmlns:xlink="http://www.w3.org/1999/xlink" x="0px" y="0px" width="71.4px" height="68.25px"
	 viewBox="0 0 71.4 68.25" style="enable-background:new 0 0 71.4 68.25;" xml:space="preserve">
<style type="text/css">
	.st0{fill:url(#SVGID_1_);}
</style>
<metadata>
	<sfw  xmlns="&ns_sfw;">
		<slices></slices>
		<sliceSourceBounds  bottomLeftOrigin="true" height="29.38" width="29.38" x="112.31" y="114.31"></sliceSourceBounds>
	</sfw>
</metadata>
<linearGradient id="SVGID_1_" gradientUnits="userSpaceOnUse" x1="23.0007" y1="48.9424" x2="48.9485" y2="22.7496" gradientTransform="matrix(1 0 0 -1 0 70.25)">
	<stop  offset="0" style="stop-color:#E2A53F"/>
	<stop  offset="1" style="stop-color:#DC6531"/>
</linearGradient>
<path class="st0" d="M35.7,19.44c-8.1,0-14.69,6.59-14.69,14.69S27.6,48.81,35.7,48.81s14.69-6.59,14.69-14.69
	S43.79,19.44,35.7,19.44z M35.7,47.58c-7.42,0-13.46-6.04-13.46-13.46s6.03-13.47,13.46-13.47c7.42,0,13.46,6.04,13.46,13.46
	S43.12,47.58,35.7,47.58z M36.31,26.85v7.28c0,0.16-0.06,0.32-0.18,0.43l-3.34,3.34c-0.12,0.12-0.28,0.18-0.43,0.18
	s-0.31-0.06-0.43-0.18c-0.24-0.24-0.24-0.63,0-0.87l3.16-3.16v-7.02c0-0.34,0.27-0.61,0.61-0.61
	C36.03,26.23,36.31,26.51,36.31,26.85z M36.31,22.35v1.29c0,0.34-0.27,0.61-0.61,0.61s-0.61-0.27-0.61-0.61v-1.29
	c0-0.34,0.27-0.61,0.61-0.61C36.03,21.75,36.31,22.01,36.31,22.35z M30.99,24.75c0.17,0.29,0.07,0.67-0.22,0.84
	c-0.1,0.06-0.2,0.08-0.31,0.08c-0.21,0-0.42-0.11-0.53-0.31l-0.65-1.12c-0.17-0.29-0.07-0.67,0.23-0.83
	c0.29-0.17,0.66-0.07,0.83,0.22L30.99,24.75z M27.16,29.19c-0.11,0.2-0.32,0.31-0.53,0.31c-0.1,0-0.21-0.03-0.31-0.08l-1.12-0.66
	c-0.29-0.17-0.39-0.54-0.22-0.83c0.16-0.3,0.54-0.4,0.83-0.23l1.12,0.65C27.23,28.53,27.33,28.9,27.16,29.19z M25.22,34.74h-1.29
	c-0.34,0-0.61-0.27-0.61-0.61c0-0.34,0.27-0.61,0.61-0.61h1.29c0.34,0,0.61,0.27,0.61,0.61C25.83,34.47,25.56,34.74,25.22,34.74z
	 M27.16,39.06c0.17,0.29,0.07,0.67-0.22,0.84l-1.13,0.64c-0.1,0.06-0.2,0.08-0.31,0.08c-0.21,0-0.42-0.11-0.53-0.31
	c-0.17-0.29-0.07-0.67,0.22-0.84l1.12-0.65C26.61,38.65,26.99,38.76,27.16,39.06z M30.99,43.49l-0.65,1.12
	c-0.11,0.2-0.32,0.31-0.53,0.31c-0.1,0-0.21-0.03-0.31-0.08c-0.29-0.17-0.39-0.54-0.22-0.84l0.65-1.12
	c0.17-0.29,0.54-0.39,0.84-0.22C31.06,42.83,31.16,43.21,30.99,43.49z M36.31,44.6v1.29c0,0.34-0.27,0.61-0.61,0.61
	s-0.61-0.27-0.61-0.61V44.6c0-0.34,0.27-0.61,0.61-0.61C36.03,43.99,36.31,44.26,36.31,44.6z M42.11,44.01
	c0.17,0.29,0.07,0.67-0.22,0.84c-0.1,0.06-0.2,0.08-0.31,0.08c-0.21,0-0.42-0.11-0.53-0.31l-0.65-1.12
	c-0.17-0.29-0.07-0.67,0.22-0.84c0.29-0.17,0.67-0.07,0.84,0.22L42.11,44.01z M46.42,40.31c-0.11,0.2-0.32,0.31-0.53,0.31
	c-0.1,0-0.21-0.03-0.31-0.08l-1.12-0.65c-0.29-0.17-0.39-0.54-0.22-0.84c0.17-0.29,0.54-0.39,0.84-0.22l1.12,0.65
	C46.48,39.65,46.58,40.01,46.42,40.31z M48.07,34.12c0,0.34-0.27,0.61-0.61,0.61h-1.29c-0.34,0-0.61-0.27-0.61-0.61
	s0.27-0.61,0.61-0.61h1.29C47.8,33.51,48.07,33.78,48.07,34.12z M44.23,29.19c-0.17-0.29-0.07-0.67,0.22-0.84l1.12-0.65
	c0.29-0.17,0.67-0.07,0.84,0.22c0.17,0.29,0.07,0.67-0.22,0.84l-1.12,0.65c-0.1,0.06-0.2,0.08-0.31,0.08
	C44.55,29.5,44.35,29.39,44.23,29.19z M42.11,24.24l-0.65,1.12c-0.11,0.2-0.32,0.31-0.53,0.31c-0.1,0-0.21-0.03-0.31-0.08
	c-0.29-0.17-0.39-0.54-0.22-0.84l0.65-1.12c0.17-0.29,0.54-0.39,0.84-0.22C42.18,23.57,42.28,23.94,42.11,24.24z"/>
</svg>
