<?xml version="1.0" encoding="utf-8"?>
<!-- Generator: Adobe Illustrator 23.1.1, SVG Export Plug-In . SVG Version: 6.00 Build 0)  -->
<!DOCTYPE svg PUBLIC "-//W3C//DTD SVG 1.1//EN" "http://www.w3.org/Graphics/SVG/1.1/DTD/svg11.dtd" [
	<!ENTITY ns_extend "http://ns.adobe.com/Extensibility/1.0/">
	<!ENTITY ns_ai "http://ns.adobe.com/AdobeIllustrator/10.0/">
	<!ENTITY ns_graphs "http://ns.adobe.com/Graphs/1.0/">
	<!ENTITY ns_vars "http://ns.adobe.com/Variables/1.0/">
	<!ENTITY ns_imrep "http://ns.adobe.com/ImageReplacement/1.0/">
	<!ENTITY ns_sfw "http://ns.adobe.com/SaveForWeb/1.0/">
	<!ENTITY ns_custom "http://ns.adobe.com/GenericCustomNamespace/1.0/">
	<!ENTITY ns_adobe_xpath "http://ns.adobe.com/XPath/1.0/">
]>
<svg version="1.1" id="Layer_1" xmlns:x="&ns_extend;" xmlns:i="&ns_ai;" xmlns:graph="&ns_graphs;"
	 xmlns="http://www.w3.org/2000/svg" xmlns:xlink="http://www.w3.org/1999/xlink" x="0px" y="0px" viewBox="0 0 71.4 68.2"
	 style="enable-background:new 0 0 71.4 68.2;" xml:space="preserve">
<style type="text/css">
	.st0{fill:url(#SVGID_1_);}
</style>
<metadata>
	<sfw  xmlns="&ns_sfw;">
		<slices></slices>
		<sliceSourceBounds  bottomLeftOrigin="true" height="35.1" width="24" x="23.7" y="16.6"></sliceSourceBounds>
	</sfw>
</metadata>
<linearGradient id="SVGID_1_" gradientUnits="userSpaceOnUse" x1="35.705" y1="205.0488" x2="35.705" y2="233.2713" gradientTransform="matrix(1 0 0 1 0 -185.75)">
	<stop  offset="8.128309e-02" style="stop-color:#E2A53F"/>
	<stop  offset="0.2751" style="stop-color:#E0923B"/>
	<stop  offset="0.6458" style="stop-color:#DD7134"/>
	<stop  offset="0.8503" style="stop-color:#DC6532"/>
</linearGradient>
<path class="st0" d="M35.7,16.6c-6.6,0-12,5.4-12,12c0,2,0.5,3.9,1.4,5.6c0,0,0,0.1,0,0.1c0.1,0.2,0.2,0.4,0.3,0.5l8.9,15.3h-3.7
	c-0.4,0-0.7,0.3-0.7,0.7s0.3,0.7,0.7,0.7h10.3c0.4,0,0.7-0.3,0.7-0.7s-0.3-0.7-0.7-0.7h-3.7l8.8-15.3c0.1-0.2,0.2-0.4,0.3-0.6
	c0,0,0,0,0-0.1c0.9-1.7,1.4-3.7,1.4-5.6C47.7,22,42.3,16.6,35.7,16.6z M45,33.6C45,33.6,45,33.6,45,33.6c-0.1,0.2-0.2,0.4-0.3,0.6
	l-9,15.6l-9-15.6c-0.1-0.2-0.2-0.3-0.3-0.5c0,0,0,0,0,0c-0.8-1.5-1.2-3.2-1.2-5c0-5.8,4.7-10.6,10.6-10.6s10.6,4.7,10.6,10.5
	C46.2,30.3,45.8,32.1,45,33.6z M35.7,22.7c-2.7,0-4.9,2.2-4.9,4.9s2.2,4.9,4.9,4.9c2.7,0,4.9-2.2,4.9-4.9
	C40.6,24.9,38.4,22.7,35.7,22.7z M35.7,31.1c-1.9,0-3.5-1.6-3.5-3.5c0-1.9,1.6-3.5,3.5-3.5c1.9,0,3.5,1.6,3.5,3.5
	S37.6,31.1,35.7,31.1z"/>
</svg>
