<?xml version="1.0" encoding="utf-8"?>
<!-- Generator: Adobe Illustrator 23.1.1, SVG Export Plug-In . SVG Version: 6.00 Build 0)  -->
<!DOCTYPE svg PUBLIC "-//W3C//DTD SVG 1.1//EN" "http://www.w3.org/Graphics/SVG/1.1/DTD/svg11.dtd" [
	<!ENTITY ns_extend "http://ns.adobe.com/Extensibility/1.0/">
	<!ENTITY ns_ai "http://ns.adobe.com/AdobeIllustrator/10.0/">
	<!ENTITY ns_graphs "http://ns.adobe.com/Graphs/1.0/">
	<!ENTITY ns_vars "http://ns.adobe.com/Variables/1.0/">
	<!ENTITY ns_imrep "http://ns.adobe.com/ImageReplacement/1.0/">
	<!ENTITY ns_sfw "http://ns.adobe.com/SaveForWeb/1.0/">
	<!ENTITY ns_custom "http://ns.adobe.com/GenericCustomNamespace/1.0/">
	<!ENTITY ns_adobe_xpath "http://ns.adobe.com/XPath/1.0/">
]>
<svg version="1.1" id="Layer_1" xmlns:x="&ns_extend;" xmlns:i="&ns_ai;" xmlns:graph="&ns_graphs;"
	 xmlns="http://www.w3.org/2000/svg" xmlns:xlink="http://www.w3.org/1999/xlink" x="0px" y="0px" viewBox="0 0 71.4 68.2"
	 style="enable-background:new 0 0 71.4 68.2;" xml:space="preserve">
<style type="text/css">
	.st0{fill:url(#SVGID_1_);}
</style>
<metadata>
	<sfw  xmlns="&ns_sfw;">
		<slices></slices>
		<sliceSourceBounds  bottomLeftOrigin="true" height="29.4" width="29.4" x="21" y="19.4"></sliceSourceBounds>
	</sfw>
</metadata>
<linearGradient id="SVGID_1_" gradientUnits="userSpaceOnUse" x1="35.7" y1="206.0883" x2="35.7" y2="234.3842" gradientTransform="matrix(1 0 0 1 0 -185.75)">
	<stop  offset="0.144" style="stop-color:#E2A53F"/>
	<stop  offset="0.3415" style="stop-color:#E08B39"/>
	<stop  offset="0.5959" style="stop-color:#DD6F33"/>
	<stop  offset="0.744" style="stop-color:#DC6531"/>
</linearGradient>
<path class="st0" d="M35.7,19.4C27.6,19.4,21,26,21,34.1s6.6,14.7,14.7,14.7s14.7-6.6,14.7-14.7S43.8,19.4,35.7,19.4z M35.7,47.6
	c-7.4,0-13.5-6-13.5-13.5s6-13.5,13.5-13.5c7.4,0,13.5,6,13.5,13.5S43.1,47.6,35.7,47.6z M36.3,26.9v7.3c0,0.2-0.1,0.3-0.2,0.4
	l-3.3,3.3c-0.1,0.1-0.3,0.2-0.4,0.2S32,38,31.9,37.9c-0.2-0.2-0.2-0.6,0-0.9l3.2-3.2v-7c0-0.3,0.3-0.6,0.6-0.6
	C36,26.2,36.3,26.5,36.3,26.9z M36.3,22.4v1.3c0,0.3-0.3,0.6-0.6,0.6s-0.6-0.3-0.6-0.6v-1.3c0-0.3,0.3-0.6,0.6-0.6
	C36,21.8,36.3,22,36.3,22.4z M31,24.8c0.2,0.3,0.1,0.7-0.2,0.8c-0.1,0.1-0.2,0.1-0.3,0.1c-0.2,0-0.4-0.1-0.5-0.3l-0.6-1.1
	c-0.2-0.3-0.1-0.7,0.2-0.8c0.3-0.2,0.7-0.1,0.8,0.2L31,24.8z M27.2,29.2c-0.1,0.2-0.3,0.3-0.5,0.3c-0.1,0-0.2,0-0.3-0.1l-1.1-0.7
	c-0.3-0.2-0.4-0.5-0.2-0.8c0.2-0.3,0.5-0.4,0.8-0.2l1.1,0.6C27.2,28.5,27.3,28.9,27.2,29.2z M25.2,34.7h-1.3c-0.3,0-0.6-0.3-0.6-0.6
	s0.3-0.6,0.6-0.6h1.3c0.3,0,0.6,0.3,0.6,0.6C25.8,34.5,25.6,34.7,25.2,34.7z M27.2,39.1c0.2,0.3,0.1,0.7-0.2,0.8l-1.1,0.6
	c-0.1,0.1-0.2,0.1-0.3,0.1c-0.2,0-0.4-0.1-0.5-0.3c-0.2-0.3-0.1-0.7,0.2-0.8l1.1-0.7C26.6,38.7,27,38.8,27.2,39.1z M31,43.5
	l-0.6,1.1c-0.1,0.2-0.3,0.3-0.5,0.3c-0.1,0-0.2,0-0.3-0.1c-0.3-0.2-0.4-0.5-0.2-0.8l0.6-1.1c0.2-0.3,0.5-0.4,0.8-0.2
	C31.1,42.8,31.2,43.2,31,43.5z M36.3,44.6v1.3c0,0.3-0.3,0.6-0.6,0.6s-0.6-0.3-0.6-0.6v-1.3c0-0.3,0.3-0.6,0.6-0.6
	C36,44,36.3,44.3,36.3,44.6z M42.1,44c0.2,0.3,0.1,0.7-0.2,0.8c-0.1,0.1-0.2,0.1-0.3,0.1c-0.2,0-0.4-0.1-0.5-0.3l-0.7-1.1
	c-0.2-0.3-0.1-0.7,0.2-0.8c0.3-0.2,0.7-0.1,0.8,0.2L42.1,44z M46.4,40.3c-0.1,0.2-0.3,0.3-0.5,0.3c-0.1,0-0.2,0-0.3-0.1l-1.1-0.7
	c-0.3-0.2-0.4-0.5-0.2-0.8c0.2-0.3,0.5-0.4,0.8-0.2l1.1,0.7C46.5,39.7,46.6,40,46.4,40.3z M48.1,34.1c0,0.3-0.3,0.6-0.6,0.6h-1.3
	c-0.3,0-0.6-0.3-0.6-0.6s0.3-0.6,0.6-0.6h1.3C47.8,33.5,48.1,33.8,48.1,34.1z M44.2,29.2c-0.2-0.3-0.1-0.7,0.2-0.8l1.1-0.6
	c0.3-0.2,0.7-0.1,0.8,0.2c0.2,0.3,0.1,0.7-0.2,0.8l-1.1,0.6c-0.1,0.1-0.2,0.1-0.3,0.1C44.5,29.5,44.3,29.4,44.2,29.2z M42.1,24.2
	l-0.7,1.1c-0.1,0.2-0.3,0.3-0.5,0.3c-0.1,0-0.2,0-0.3-0.1c-0.3-0.2-0.4-0.5-0.2-0.8l0.7-1.1c0.2-0.3,0.5-0.4,0.8-0.2
	C42.2,23.6,42.3,23.9,42.1,24.2z"/>
</svg>
