<?xml version="1.0" encoding="utf-8"?>
<!-- Generator: Adobe Illustrator 23.1.1, SVG Export Plug-In . SVG Version: 6.00 Build 0)  -->
<!DOCTYPE svg PUBLIC "-//W3C//DTD SVG 1.1//EN" "http://www.w3.org/Graphics/SVG/1.1/DTD/svg11.dtd" [
	<!ENTITY ns_extend "http://ns.adobe.com/Extensibility/1.0/">
	<!ENTITY ns_ai "http://ns.adobe.com/AdobeIllustrator/10.0/">
	<!ENTITY ns_graphs "http://ns.adobe.com/Graphs/1.0/">
	<!ENTITY ns_vars "http://ns.adobe.com/Variables/1.0/">
	<!ENTITY ns_imrep "http://ns.adobe.com/ImageReplacement/1.0/">
	<!ENTITY ns_sfw "http://ns.adobe.com/SaveForWeb/1.0/">
	<!ENTITY ns_custom "http://ns.adobe.com/GenericCustomNamespace/1.0/">
	<!ENTITY ns_adobe_xpath "http://ns.adobe.com/XPath/1.0/">
]>
<svg version="1.1" id="Layer_1" xmlns:x="&ns_extend;" xmlns:i="&ns_ai;" xmlns:graph="&ns_graphs;"
	 xmlns="http://www.w3.org/2000/svg" xmlns:xlink="http://www.w3.org/1999/xlink" x="0px" y="0px" viewBox="0 0 800 700"
	 style="enable-background:new 0 0 800 700;" xml:space="preserve">
<style type="text/css">
	.st0{clip-path:url(#SVGID_2_);}
	.st1{clip-path:url(#SVGID_4_);}
	.st2{fill:url(#SVGID_5_);}
	.st3{fill:#151521;}
	.st4{fill:#B40D1A;}
</style>
<metadata>
	<sfw  xmlns="&ns_sfw;">
		<slices></slices>
		<sliceSourceBounds  bottomLeftOrigin="true" height="2879.8" width="3887.7" x="-1754.9" y="-1655.3"></sliceSourceBounds>
	</sfw>
</metadata>
<g>
	<g>
		<g>
			<defs>
				<rect id="SVGID_1_" width="800" height="700"/>
			</defs>
			<clipPath id="SVGID_2_">
				<use xlink:href="#SVGID_1_"  style="overflow:visible;"/>
			</clipPath>
			<g class="st0">
				<g>
					<defs>
						<rect id="SVGID_3_" x="-875.6" y="-429.2" width="2286.3" height="1524.2"/>
					</defs>
					<clipPath id="SVGID_4_">
						<use xlink:href="#SVGID_3_"  style="overflow:visible;"/>
					</clipPath>
					<g class="st1">
						
							<linearGradient id="SVGID_5_" gradientUnits="userSpaceOnUse" x1="-1770.5912" y1="-1572.6088" x2="2134.1482" y2="2143.5813" gradientTransform="matrix(1 0 0 -1 0 700)">
							<stop  offset="0" style="stop-color:#DBDBDB"/>
							<stop  offset="0.22" style="stop-color:#E6E6E6"/>
							<stop  offset="0.67" style="stop-color:#F9F9F9"/>
							<stop  offset="1" style="stop-color:#FFFFFF"/>
						</linearGradient>
						<rect x="-957.2" y="-524.5" class="st2" width="2449.6" height="1714.7"/>
						<path class="st3" d="M-840.9-379.8C-670.6-167.6,22.5,565.9,311.4,506.9C747.7,417.9,822.7-75,1248.8-82.9
							c395.1-7.3,642.9,522.9,519.3,993.5S681.8,2355.3,681.8,2355.3L-1754.9,811.5L-840.9-379.8z"/>
						<path class="st4" d="M-895.4,1266.1c273.2,75.6,792.4-38.1,1094-318.3S594.1,129.4,987.3-97.8
							c364.6-210.6,976.4-205.2,1114.7,222.4s-234.8,1679.3-234.8,1679.3l-3104.9,71.8L-895.4,1266.1z"/>
					</g>
				</g>
			</g>
		</g>
	</g>
</g>
</svg>
