<?xml version="1.0" encoding="utf-8"?>
<!-- Generator: Adobe Illustrator 23.1.1, SVG Export Plug-In . SVG Version: 6.00 Build 0)  -->
<!DOCTYPE svg PUBLIC "-//W3C//DTD SVG 1.1//EN" "http://www.w3.org/Graphics/SVG/1.1/DTD/svg11.dtd" [
	<!ENTITY ns_extend "http://ns.adobe.com/Extensibility/1.0/">
	<!ENTITY ns_ai "http://ns.adobe.com/AdobeIllustrator/10.0/">
	<!ENTITY ns_graphs "http://ns.adobe.com/Graphs/1.0/">
	<!ENTITY ns_vars "http://ns.adobe.com/Variables/1.0/">
	<!ENTITY ns_imrep "http://ns.adobe.com/ImageReplacement/1.0/">
	<!ENTITY ns_sfw "http://ns.adobe.com/SaveForWeb/1.0/">
	<!ENTITY ns_custom "http://ns.adobe.com/GenericCustomNamespace/1.0/">
	<!ENTITY ns_adobe_xpath "http://ns.adobe.com/XPath/1.0/">
]>
<svg version="1.1" id="Layer_1" xmlns:x="&ns_extend;" xmlns:i="&ns_ai;" xmlns:graph="&ns_graphs;"
	 xmlns="http://www.w3.org/2000/svg" xmlns:xlink="http://www.w3.org/1999/xlink" x="0px" y="0px" viewBox="0 0 1420 945"
	 style="enable-background:new 0 0 1420 945;" xml:space="preserve">
<style type="text/css">
	.st0{clip-path:url(#SVGID_2_);}
	.st1{clip-path:url(#SVGID_4_);}
	.st2{fill:url(#SVGID_5_);}
	.st3{fill:#151521;}
	.st4{fill:#B40D1A;}
</style>
<metadata>
	<sfw  xmlns="&ns_sfw;">
		<slices></slices>
		<sliceSourceBounds  bottomLeftOrigin="true" height="2879.8" width="3887.7" x="-1608.6" y="-1492.3"></sliceSourceBounds>
	</sfw>
</metadata>
<g>
	<g>
		<g>
			<defs>
				<rect id="SVGID_1_" width="1420" height="945"/>
			</defs>
			<clipPath id="SVGID_2_">
				<use xlink:href="#SVGID_1_"  style="overflow:visible;"/>
			</clipPath>
			<g class="st0">
				<g>
					<defs>
						<rect id="SVGID_3_" x="-729.3" y="-347.2" width="2286.3" height="1524.2"/>
					</defs>
					<clipPath id="SVGID_4_">
						<use xlink:href="#SVGID_3_"  style="overflow:visible;"/>
					</clipPath>
					<g class="st1">
						
							<linearGradient id="SVGID_5_" gradientUnits="userSpaceOnUse" x1="-1624.2964" y1="-1408.5934" x2="2280.4438" y2="2307.5967" gradientTransform="matrix(1 0 0 -1 0 946)">
							<stop  offset="0" style="stop-color:#DBDBDB"/>
							<stop  offset="0.22" style="stop-color:#E6E6E6"/>
							<stop  offset="0.67" style="stop-color:#F9F9F9"/>
							<stop  offset="1" style="stop-color:#FFFFFF"/>
						</linearGradient>
						<rect x="-811" y="-442.5" class="st2" width="2449.6" height="1714.7"/>
						<path class="st3" d="M-870.7,379.4C-700.3,591.6-257,894,126.9,789.1s720.6-533.9,1146.7-541.8
							c395.1-7.3,764.4,274.7,640.8,745.3S828.1,2437.3,828.1,2437.3L-1608.6,893.5L-870.7,379.4z"/>
						<path class="st4" d="M-749.1,1348.1c273.2,75.6,792.4-38.1,1094-318.3S740.4,211.4,1133.6-15.8
							c364.6-210.6,976.4-205.2,1114.8,222.4s-234.8,1679.3-234.8,1679.3l-3104.9,71.8L-749.1,1348.1z"/>
					</g>
				</g>
			</g>
		</g>
	</g>
</g>
</svg>
