
<svg version="1.1" id="Layer_1" xmlns:x="&ns_extend;" xmlns:i="&ns_ai;" xmlns:graph="&ns_graphs;"
	 xmlns="http://www.w3.org/2000/svg" xmlns:xlink="http://www.w3.org/1999/xlink" x="0px" y="0px" viewBox="0 0 71.4 68.2"
	 style="enable-background:new 0 0 71.4 68.2;" xml:space="preserve">
<style type="text/css">
	.st0{fill:url(#SVGID_1_);}
</style>
<metadata>
	<sfw  xmlns="&ns_sfw;">
		<slices></slices>
		<sliceSourceBounds  bottomLeftOrigin="true" height="20.5" width="32.6" x="19.4" y="23.8"></sliceSourceBounds>
	</sfw>
</metadata>
<linearGradient id="SVGID_1_" gradientUnits="userSpaceOnUse" x1="34.1238" y1="25.0746" x2="37.3899" y2="43.7636">
	<stop  offset="0.2356" style="stop-color:#E2A33F"/>
	<stop  offset="0.6037" style="stop-color:#DD7A36"/>
	<stop  offset="0.8417" style="stop-color:#DB6531"/>
</linearGradient>
<path class="st0" d="M51.2,32.8c-2.7-2.7-5.6-5.4-8.3-8.2c-0.1-0.1-0.3-0.3-0.5-0.5c-0.2-0.2-0.5-0.3-0.8-0.3
	c-0.7,0-1.2,0.6-1.2,1.2c0,0.4,0.2,0.7,0.4,0.9c0.2,0.2,0.4,0.4,0.5,0.5c2,2,4,4,6.3,6.3c-0.7,0-1.1,0-1.5,0c-16.6,0-8.8,0-25.4,0
	c-0.7,0-1.3,0.6-1.3,1.3s0.6,1.3,1.3,1.3c16.5,0,8.8,0,25.4,0c0.4,0,0.8,0,1.5,0c-1.3,1.3-2.4,2.4-3.5,3.5C43,40,41.9,41,40.8,42.1
	c0,0,0,0-0.1,0.1c-0.2,0.2-0.4,0.6-0.4,0.9c0,0.7,0.6,1.2,1.2,1.2c0.3,0,0.6-0.1,0.8-0.3c0,0,0.1-0.1,0.1-0.1
	c0.2-0.1,0.3-0.3,0.5-0.4c2.7-2.7,5.5-5.5,8.2-8.2C52.3,34.3,52.3,33.8,51.2,32.8z"/>
</svg>
