<svg id="Layer_1" data-name="Layer 1" xmlns="http://www.w3.org/2000/svg" xmlns:xlink="http://www.w3.org/1999/xlink" viewBox="0 0 1920 810"><defs><style>.cls-1{fill:none;}.cls-2{clip-path:url(#clip-path);}.cls-3{clip-path:url(#clip-path-2);}.cls-4{fill:url(#linear-gradient);}.cls-5{fill:#151521;}.cls-6{fill:#b40d1a;}.cls-7{fill:#de3639;}</style><clipPath id="clip-path"><rect class="cls-1" width="1920" height="810"/></clipPath><clipPath id="clip-path-2"><rect class="cls-1" x="-209.55" y="-577.02" width="2286.32" height="1524.21"/></clipPath><linearGradient id="linear-gradient" x1="-1104.55" y1="2124.82" x2="2800.19" y2="-1591.36" gradientUnits="userSpaceOnUse"><stop offset="0" stop-color="#dbdbdb"/><stop offset="0.22" stop-color="#e6e6e6"/><stop offset="0.67" stop-color="#f9f9f9"/><stop offset="1" stop-color="#fff"/></linearGradient></defs><title>Artboard 1</title><g class="cls-2"><g class="cls-3"><rect class="cls-4" x="-291.2" y="-672.29" width="2449.64" height="1714.73"/><path class="cls-5" d="M-374.26,77.64C-204,289.87,240.49,636.86,633.34,554.84,1027.65,472.5,1366.5,18.05,1792.57,10.13c395.1-7.34,765.09,282.1,641.53,752.69S1347.84,2207.49,1347.84,2207.49L-1088.86,663.72Z"/><path class="cls-6" d="M-229.37,1118.35c273.22,75.56,792.43-38.08,1094-318.26S1260.18-18.43,1653.37-245.58C2018-456.22,2629.79-450.75,2768.12-23.2s-234.85,1679.29-234.85,1679.29l-3104.9,71.84Z"/><path class="cls-7" d="M-934.51,690.79C-100.69,1270.27,747.54,1090,1108.54,900.94s614.85-698.68,1042.27-807.1c396.34-100.53,949,89.48,940.35,558.49s-738.9,1607.41-738.9,1607.41l-3787.86-1063Z"/></g></g></svg>