<svg id="Layer_1" data-name="Layer 1" xmlns="http://www.w3.org/2000/svg" xmlns:xlink="http://www.w3.org/1999/xlink" viewBox="0 0 1200 810"><defs><style>.cls-1{fill:none;}.cls-2{clip-path:url(#clip-path);}.cls-3{clip-path:url(#clip-path-2);}.cls-4{fill:url(#linear-gradient);}.cls-5{fill:#151521;}.cls-6{fill:#b40d1a;}.cls-7{fill:#de3639;}</style><clipPath id="clip-path"><rect class="cls-1" width="1200" height="810"/></clipPath><clipPath id="clip-path-2"><rect class="cls-1" x="-304.99" y="-577.02" width="2286.32" height="1524.21"/></clipPath><linearGradient id="linear-gradient" x1="-1199.99" y1="2124.82" x2="2704.75" y2="-1591.36" gradientUnits="userSpaceOnUse"><stop offset="0" stop-color="#dbdbdb"/><stop offset="0.22" stop-color="#e6e6e6"/><stop offset="0.67" stop-color="#f9f9f9"/><stop offset="1" stop-color="#fff"/></linearGradient></defs><title>Artboard 1</title><g class="cls-2"><g class="cls-3"><rect class="cls-4" x="-386.64" y="-672.29" width="2449.64" height="1714.73"/><path class="cls-5" d="M-469.7,77.64c170.3,212.23,614.76,559.22,1007.6,477.2C932.21,472.5,1271.06,18.05,1697.14,10.13c395.09-7.34,765.08,282.1,641.52,752.69S1252.4,2207.48,1252.4,2207.48L-1184.3,663.72Z"/><path class="cls-6" d="M-324.81,1118.35c273.22,75.56,792.43-38.09,1094-318.26S1164.74-18.43,1557.93-245.58c364.6-210.64,976.43-205.17,1114.75,222.38s-234.85,1679.29-234.85,1679.29l-3104.9,71.84Z"/><path class="cls-7" d="M-1029.95,690.79C-196.13,1270.27,652.1,1090,1013.1,900.94S1628,202.26,2055.38,93.84c396.34-100.53,949,89.48,940.35,558.48s-738.91,1607.42-738.91,1607.42L-1531,1196.75Z"/></g></g></svg>