<svg id="Layer_1" data-name="Layer 1" xmlns="http://www.w3.org/2000/svg" xmlns:xlink="http://www.w3.org/1999/xlink" viewBox="0 0 800 810"><defs><style>.cls-1{fill:none;}.cls-2{clip-path:url(#clip-path);}.cls-3{clip-path:url(#clip-path-2);}.cls-4{fill:url(#linear-gradient);}.cls-5{fill:#151521;}.cls-6{fill:#b40d1a;}.cls-7{fill:#de3639;}</style><clipPath id="clip-path"><rect class="cls-1" width="800" height="810"/></clipPath><clipPath id="clip-path-2"><rect class="cls-1" x="-487.78" y="-577.02" width="2286.32" height="1524.21"/></clipPath><linearGradient id="linear-gradient" x1="-1382.78" y1="2124.82" x2="2521.96" y2="-1591.36" gradientUnits="userSpaceOnUse"><stop offset="0" stop-color="#dbdbdb"/><stop offset="0.22" stop-color="#e6e6e6"/><stop offset="0.67" stop-color="#f9f9f9"/><stop offset="1" stop-color="#fff"/></linearGradient></defs><title>Artboard 1</title><g class="cls-2"><g class="cls-3"><rect class="cls-4" x="-569.43" y="-672.29" width="2449.64" height="1714.73"/><path class="cls-5" d="M-652.49,77.64C-482.2,289.87-37.73,636.86,355.11,554.84,749.42,472.5,1088.27,18.05,1514.35,10.13c395.09-7.34,765.08,282.1,641.52,752.69S1069.61,2207.48,1069.61,2207.48L-1367.09,663.72Z"/><path class="cls-6" d="M-507.6,1118.35c273.22,75.56,792.43-38.09,1094-318.26S982-18.43,1375.14-245.58c364.6-210.64,976.43-205.17,1114.75,222.38S2255,1656.09,2255,1656.09l-3104.9,71.84Z"/><path class="cls-7" d="M-1212.74,690.79C-378.92,1270.27,469.31,1090,830.31,900.94s614.85-698.68,1042.28-807.1c396.34-100.53,949,89.48,940.35,558.48S2074,2259.74,2074,2259.74l-3787.86-1063Z"/></g></g></svg>