<?xml version="1.0" encoding="utf-8"?>
<!-- Generator: Adobe Illustrator 23.1.1, SVG Export Plug-In . SVG Version: 6.00 Build 0)  -->
<svg version="1.1" id="logo" xmlns="http://www.w3.org/2000/svg" xmlns:xlink="http://www.w3.org/1999/xlink" x="0px" y="0px"
	 width="276.11px" height="68.01px" viewBox="0 0 276.11 68.01" style="enable-background:new 0 0 276.11 68.01;"
	 xml:space="preserve">
<style type="text/css">
	
</style>
<g>
	<path class="st0-logo" d="M38.81,67.86c-0.03-0.03-0.05-0.07-0.05-0.11v-8.79c0-0.04,0.01-0.08,0.05-0.11c0.03-0.03,0.07-0.04,0.11-0.04
		h1.52c0.04,0,0.08,0.01,0.11,0.04s0.05,0.07,0.05,0.11v8.79c0,0.04-0.02,0.08-0.05,0.11c-0.03,0.03-0.07,0.05-0.11,0.05h-1.52
		C38.88,67.9,38.84,67.89,38.81,67.86z"/>
	<path class="st0-logo" d="M54.99,58.85c0.03-0.03,0.07-0.04,0.11-0.04h1.52c0.04,0,0.08,0.01,0.11,0.04s0.04,0.07,0.04,0.11v8.79
		c0,0.04-0.01,0.08-0.04,0.11c-0.03,0.03-0.07,0.05-0.11,0.05h-1.47c-0.09,0-0.15-0.03-0.18-0.1l-3.37-5.56
		c-0.02-0.03-0.03-0.04-0.05-0.03c-0.02,0-0.03,0.02-0.03,0.06l0.03,5.49c0,0.04-0.02,0.08-0.05,0.11
		c-0.03,0.03-0.07,0.05-0.11,0.05h-1.52c-0.04,0-0.08-0.01-0.11-0.05c-0.03-0.03-0.05-0.07-0.05-0.11v-8.79
		c0-0.04,0.01-0.08,0.05-0.11c0.03-0.03,0.07-0.04,0.11-0.04h1.47c0.09,0,0.15,0.03,0.18,0.1l3.35,5.54
		c0.02,0.03,0.03,0.04,0.05,0.03c0.02,0,0.03-0.02,0.03-0.06l-0.01-5.46C54.95,58.92,54.96,58.88,54.99,58.85z"/>
	<path class="st0-logo" d="M66.9,67.64c-0.49-0.25-0.87-0.59-1.14-1.04c-0.27-0.45-0.4-0.96-0.4-1.55v-0.82c0-0.04,0.01-0.08,0.05-0.11
		c0.03-0.03,0.07-0.05,0.11-0.05h1.52c0.04,0,0.08,0.02,0.11,0.05s0.05,0.07,0.05,0.11v0.82c0,0.42,0.13,0.75,0.38,1.01
		c0.25,0.26,0.6,0.38,1.05,0.38c0.42,0,0.77-0.13,1.05-0.38c0.27-0.26,0.41-0.59,0.41-1.01v-6.08c0-0.04,0.02-0.08,0.05-0.11
		s0.07-0.04,0.11-0.04h1.51c0.04,0,0.08,0.01,0.11,0.04s0.05,0.07,0.05,0.11v6.08c0,0.59-0.14,1.11-0.42,1.55s-0.66,0.79-1.16,1.04
		s-1.06,0.37-1.7,0.37C67.97,68.01,67.39,67.88,66.9,67.64z"/>
	<path class="st0-logo" d="M82.57,67.62c-0.51-0.26-0.9-0.63-1.18-1.1c-0.28-0.47-0.42-1.02-0.42-1.63v-5.93c0-0.04,0.02-0.08,0.05-0.11
		s0.07-0.04,0.11-0.04h1.52c0.04,0,0.08,0.01,0.11,0.04s0.04,0.07,0.04,0.11v5.94c0,0.46,0.14,0.83,0.42,1.11
		c0.28,0.28,0.65,0.42,1.11,0.42c0.46,0,0.83-0.14,1.11-0.42c0.28-0.28,0.42-0.65,0.42-1.11v-5.94c0-0.04,0.01-0.08,0.05-0.11
		c0.03-0.03,0.07-0.04,0.11-0.04h1.52c0.04,0,0.08,0.01,0.11,0.04s0.05,0.07,0.05,0.11v5.93c0,0.62-0.14,1.16-0.42,1.63
		c-0.28,0.47-0.68,0.84-1.18,1.1s-1.09,0.39-1.76,0.39C83.66,68.01,83.07,67.88,82.57,67.62z"/>
	<path class="st0-logo" d="M101.55,67.79l-1.62-3.6c-0.02-0.04-0.04-0.05-0.08-0.05h-1.21c-0.04,0-0.07,0.02-0.07,0.06v3.55
		c0,0.04-0.02,0.08-0.05,0.11c-0.03,0.03-0.07,0.05-0.11,0.05H96.9c-0.04,0-0.08-0.01-0.11-0.05c-0.03-0.03-0.05-0.07-0.05-0.11
		v-8.79c0-0.04,0.01-0.08,0.05-0.11c0.03-0.03,0.07-0.04,0.11-0.04h3.72c0.55,0,1.04,0.11,1.46,0.34c0.42,0.23,0.75,0.55,0.97,0.96
		s0.34,0.9,0.34,1.44c0,0.59-0.15,1.09-0.44,1.51c-0.29,0.42-0.71,0.72-1.23,0.89c-0.04,0.02-0.06,0.05-0.04,0.09l1.77,3.68
		c0.02,0.03,0.03,0.06,0.03,0.08c0,0.07-0.05,0.1-0.14,0.1h-1.6C101.65,67.9,101.59,67.86,101.55,67.79z M98.58,60.44v2.22
		c0,0.04,0.02,0.07,0.07,0.07h1.7c0.36,0,0.66-0.11,0.89-0.33s0.34-0.5,0.34-0.84s-0.12-0.63-0.34-0.85s-0.53-0.33-0.89-0.33h-1.7
		C98.6,60.38,98.58,60.4,98.58,60.44z"/>
	<path class="st0-logo" d="M114.24,67.84c-0.03-0.03-0.05-0.07-0.05-0.11v-3.29c0-0.03,0-0.06-0.01-0.08l-2.68-5.38
		c-0.02-0.03-0.03-0.06-0.03-0.08c0-0.07,0.05-0.1,0.14-0.1h1.64c0.09,0,0.15,0.04,0.18,0.12l1.62,3.46c0.03,0.05,0.05,0.05,0.08,0
		l1.62-3.46c0.03-0.08,0.1-0.12,0.18-0.12h1.66c0.06,0,0.1,0.01,0.12,0.04s0.02,0.08-0.01,0.14l-2.7,5.38
		c-0.01,0.02-0.01,0.04-0.01,0.08v3.29c0,0.04-0.02,0.08-0.05,0.11s-0.07,0.05-0.11,0.05h-1.51
		C114.3,67.89,114.27,67.87,114.24,67.84z"/>
	<path class="st0-logo" d="M137.63,67.86c-0.03-0.03-0.05-0.07-0.05-0.11v-8.79c0-0.04,0.01-0.08,0.05-0.11
		c0.03-0.03,0.07-0.04,0.11-0.04h1.52c0.04,0,0.08,0.01,0.11,0.04s0.05,0.07,0.05,0.11v7.31c0,0.04,0.02,0.06,0.07,0.06h4.25
		c0.04,0,0.08,0.02,0.11,0.05s0.04,0.07,0.04,0.11v1.26c0,0.04-0.01,0.08-0.04,0.11c-0.03,0.03-0.07,0.05-0.11,0.05h-5.99
		C137.7,67.9,137.66,67.89,137.63,67.86z"/>
	<path class="st0-logo" d="M158.4,67.77l-0.39-1.27c-0.02-0.03-0.04-0.05-0.06-0.05h-3.2c-0.03,0-0.05,0.02-0.06,0.05l-0.38,1.27
		c-0.03,0.09-0.08,0.13-0.17,0.13h-1.65c-0.05,0-0.09-0.01-0.12-0.05c-0.03-0.03-0.03-0.08-0.01-0.14l2.81-8.79
		c0.03-0.09,0.08-0.13,0.17-0.13h2.04c0.09,0,0.14,0.04,0.17,0.13l2.81,8.79c0.01,0.02,0.01,0.04,0.01,0.06
		c0,0.08-0.05,0.12-0.14,0.12h-1.65C158.48,67.9,158.43,67.86,158.4,67.77z M155.2,65.03h2.29c0.05,0,0.07-0.03,0.05-0.08
		l-1.17-3.86c-0.01-0.04-0.02-0.05-0.04-0.05s-0.03,0.02-0.04,0.05l-1.14,3.86C155.14,65,155.16,65.03,155.2,65.03z"/>
	<path class="st0-logo" d="M170.63,67.77l-2.3-8.8l-0.01-0.05c0-0.08,0.05-0.12,0.14-0.12h1.61c0.09,0,0.14,0.04,0.17,0.13l1.23,5.29
		c0.01,0.03,0.02,0.05,0.04,0.05s0.03-0.02,0.04-0.05l1.2-5.28c0.03-0.1,0.08-0.14,0.17-0.14h1.57c0.09,0,0.16,0.04,0.18,0.13
		l1.3,5.29c0.01,0.03,0.02,0.04,0.04,0.04c0.02,0,0.03-0.01,0.04-0.04l1.2-5.28c0.03-0.1,0.08-0.14,0.17-0.14h1.53
		c0.12,0,0.17,0.06,0.14,0.17l-2.13,8.8c-0.03,0.09-0.09,0.13-0.18,0.13h-1.55c-0.09,0-0.14-0.04-0.17-0.13l-1.33-5.63
		c-0.01-0.04-0.02-0.05-0.04-0.05c-0.02,0-0.03,0.02-0.04,0.05l-1.24,5.62c-0.02,0.09-0.07,0.14-0.17,0.14h-1.44
		C170.72,67.9,170.66,67.86,170.63,67.77z"/>
	<path class="st0-logo" d="M190.09,67.84c-0.03-0.03-0.05-0.07-0.05-0.11v-3.29c0-0.03,0-0.06-0.01-0.08l-2.68-5.38
		c-0.02-0.03-0.03-0.06-0.03-0.08c0-0.07,0.05-0.1,0.14-0.1h1.64c0.09,0,0.15,0.04,0.18,0.12l1.62,3.46c0.03,0.05,0.05,0.05,0.08,0
		l1.62-3.46c0.03-0.08,0.1-0.12,0.18-0.12h1.66c0.06,0,0.1,0.01,0.12,0.04s0.02,0.08-0.01,0.14l-2.7,5.38
		c-0.01,0.02-0.01,0.04-0.01,0.08v3.29c0,0.04-0.02,0.08-0.05,0.11s-0.07,0.05-0.11,0.05h-1.51
		C190.15,67.89,190.12,67.87,190.09,67.84z"/>
	<path class="st0-logo" d="M209.5,60.33c-0.03,0.03-0.07,0.04-0.11,0.04h-4.26c-0.04,0-0.07,0.02-0.07,0.07v2.01
		c0,0.04,0.02,0.07,0.07,0.07h2.79c0.04,0,0.08,0.01,0.11,0.04c0.03,0.03,0.04,0.07,0.04,0.11v1.26c0,0.04-0.01,0.08-0.04,0.11
		s-0.07,0.05-0.11,0.05h-2.79c-0.04,0-0.07,0.02-0.07,0.06v2.11c0,0.04,0.02,0.06,0.07,0.06h4.26c0.04,0,0.08,0.02,0.11,0.05
		s0.05,0.07,0.05,0.11v1.26c0,0.04-0.02,0.08-0.05,0.11c-0.03,0.03-0.07,0.05-0.11,0.05h-6.01c-0.04,0-0.08-0.01-0.11-0.05
		c-0.03-0.03-0.05-0.07-0.05-0.11v-8.79c0-0.04,0.01-0.08,0.05-0.11c0.03-0.03,0.07-0.04,0.11-0.04h6.01c0.04,0,0.08,0.01,0.11,0.04
		s0.05,0.07,0.05,0.11v1.26C209.54,60.26,209.53,60.3,209.5,60.33z"/>
	<path class="st0-logo" d="M223.17,67.79l-1.62-3.6c-0.02-0.04-0.04-0.05-0.08-0.05h-1.21c-0.04,0-0.07,0.02-0.07,0.06v3.55
		c0,0.04-0.02,0.08-0.05,0.11c-0.03,0.03-0.07,0.05-0.11,0.05h-1.52c-0.04,0-0.08-0.01-0.11-0.05c-0.03-0.03-0.05-0.07-0.05-0.11
		v-8.79c0-0.04,0.01-0.08,0.05-0.11c0.03-0.03,0.07-0.04,0.11-0.04h3.72c0.55,0,1.04,0.11,1.46,0.34c0.42,0.23,0.75,0.55,0.97,0.96
		s0.34,0.9,0.34,1.44c0,0.59-0.15,1.09-0.44,1.51c-0.29,0.42-0.71,0.72-1.23,0.89c-0.04,0.02-0.06,0.05-0.04,0.09l1.77,3.68
		c0.02,0.03,0.03,0.06,0.03,0.08c0,0.07-0.05,0.1-0.14,0.1h-1.6C223.26,67.9,223.2,67.86,223.17,67.79z M220.19,60.44v2.22
		c0,0.04,0.02,0.07,0.07,0.07h1.7c0.36,0,0.66-0.11,0.89-0.33s0.34-0.5,0.34-0.84s-0.12-0.63-0.34-0.85s-0.53-0.33-0.89-0.33h-1.7
		C220.21,60.38,220.19,60.4,220.19,60.44z"/>
	<path class="st0-logo" d="M235.18,67.68c-0.52-0.22-0.92-0.54-1.2-0.95c-0.28-0.41-0.42-0.89-0.42-1.44V65c0-0.04,0.02-0.08,0.05-0.11
		s0.07-0.04,0.11-0.04h1.48c0.04,0,0.08,0.01,0.11,0.04c0.03,0.03,0.04,0.07,0.04,0.11v0.2c0,0.35,0.16,0.64,0.48,0.88
		c0.32,0.24,0.75,0.36,1.3,0.36c0.46,0,0.8-0.1,1.03-0.29c0.22-0.19,0.34-0.44,0.34-0.72c0-0.21-0.07-0.38-0.21-0.53
		c-0.14-0.14-0.33-0.27-0.57-0.38s-0.62-0.26-1.14-0.45c-0.58-0.2-1.07-0.4-1.48-0.61s-0.74-0.49-1.01-0.85
		c-0.27-0.36-0.41-0.8-0.41-1.33c0-0.52,0.13-0.98,0.4-1.37s0.64-0.69,1.12-0.9s1.03-0.31,1.65-0.31c0.66,0,1.25,0.12,1.76,0.35
		c0.52,0.23,0.92,0.56,1.21,0.98c0.29,0.42,0.44,0.91,0.44,1.46v0.2c0,0.04-0.01,0.08-0.04,0.11c-0.03,0.03-0.07,0.05-0.11,0.05
		h-1.49c-0.04,0-0.08-0.02-0.11-0.05s-0.04-0.07-0.04-0.11v-0.1c0-0.36-0.15-0.67-0.45-0.93c-0.3-0.26-0.71-0.38-1.23-0.38
		c-0.41,0-0.73,0.09-0.96,0.26c-0.23,0.17-0.34,0.41-0.34,0.71c0,0.22,0.07,0.4,0.2,0.55c0.13,0.15,0.33,0.28,0.6,0.4
		c0.26,0.12,0.67,0.28,1.23,0.47c0.62,0.23,1.1,0.42,1.45,0.6c0.35,0.17,0.67,0.43,0.95,0.77c0.28,0.34,0.42,0.79,0.42,1.33
		c0,0.81-0.3,1.46-0.9,1.93c-0.6,0.47-1.41,0.71-2.43,0.71C236.3,68.01,235.7,67.9,235.18,67.68z"/>
</g>
<g>
	<g>
		<path class="st0-logo" d="M26.7,33.72c0,0.9,0.03,1.57,0.08,2.02c0.05,0.45,0.14,0.81,0.26,1.08c0.12,0.27,0.26,0.49,0.43,0.66
			c0.17,0.17,0.41,0.32,0.73,0.46c0.31,0.14,0.8,0.29,1.47,0.44v1.14H18.98v-1.14c0.94-0.22,1.59-0.46,1.96-0.72
			c0.37-0.26,0.63-0.66,0.78-1.21c0.14-0.54,0.22-1.45,0.22-2.74V24H7.75v9.71c0,1.04,0.04,1.79,0.12,2.27
			c0.08,0.48,0.2,0.86,0.38,1.14c0.18,0.28,0.44,0.51,0.79,0.7c0.35,0.19,0.91,0.37,1.7,0.56v1.14H0v-1.14
			c1.05-0.25,1.76-0.52,2.12-0.82c0.36-0.3,0.59-0.73,0.7-1.29c0.11-0.56,0.17-1.41,0.17-2.55V13.66c0-1.07-0.04-1.84-0.13-2.33
			c-0.09-0.49-0.23-0.87-0.42-1.14c-0.2-0.27-0.46-0.49-0.78-0.65C1.33,9.38,0.78,9.2,0,9V7.86h10.74V9
			C9.99,9.17,9.45,9.34,9.12,9.51c-0.33,0.17-0.6,0.38-0.79,0.64c-0.2,0.25-0.34,0.64-0.43,1.15c-0.09,0.51-0.14,1.3-0.14,2.36v8.21
			h14.18v-8.21c0-1.34-0.07-2.26-0.22-2.76c-0.14-0.49-0.39-0.87-0.73-1.14C20.65,9.5,19.98,9.25,18.98,9V7.86h10.69V9
			c-0.95,0.22-1.62,0.46-1.99,0.73c-0.37,0.27-0.63,0.68-0.77,1.22c-0.14,0.54-0.2,1.45-0.2,2.71V33.72z"/>
	</g>
	<g>
		<path class="st0-logo" d="M44.05,36.2l-0.35-0.09c-1.34,1.38-2.61,2.35-3.79,2.92c-1.18,0.57-2.44,0.86-3.77,0.86
			c-1.17,0-2.21-0.23-3.11-0.68s-1.58-1.1-2.06-1.92c-0.48-0.83-0.72-1.78-0.72-2.86c0-2.26,1.12-4,3.35-5.23
			c2.23-1.23,5.58-1.94,10.05-2.14v-1.51c0-1.61-0.15-2.88-0.46-3.8c-0.31-0.93-0.8-1.61-1.46-2.04c-0.66-0.43-1.55-0.65-2.67-0.65
			c-1.21,0-2.18,0.32-2.91,0.95c-0.73,0.63-1.29,1.58-1.66,2.85h-3.04v-3.01c1.48-0.77,2.72-1.34,3.71-1.71
			c0.99-0.36,1.98-0.65,2.97-0.86c0.99-0.21,1.99-0.31,3.01-0.31c1.53,0,2.76,0.24,3.69,0.73c0.93,0.49,1.62,1.23,2.09,2.24
			c0.46,1.01,0.7,2.52,0.7,4.54v8.07c0,1.14,0.01,1.95,0.02,2.42c0.02,0.47,0.06,0.91,0.14,1.31c0.08,0.4,0.19,0.72,0.35,0.96
			c0.15,0.24,0.38,0.45,0.68,0.61c0.3,0.17,0.79,0.35,1.47,0.53v1.14h-6.35L44.05,36.2z M43.65,28.94
			c-3.14,0.03-5.49,0.45-7.05,1.25c-1.56,0.8-2.34,2.02-2.34,3.64c0,0.88,0.18,1.58,0.53,2.09c0.36,0.51,0.8,0.86,1.34,1.05
			c0.54,0.19,1.18,0.29,1.92,0.29c1.05,0,2.01-0.26,2.86-0.77c0.86-0.51,1.53-1.16,2.01-1.95c0.48-0.79,0.72-1.57,0.72-2.34V28.94z"
			/>
		<path class="st0-logo" d="M58.87,21.2l0.32,0.07c0.85-1.03,1.64-1.85,2.37-2.45c0.73-0.59,1.51-1.06,2.35-1.38
			c0.84-0.32,1.8-0.49,2.86-0.49c0.9,0,1.71,0.05,2.43,0.14v5.33h-2.62c-0.37-0.83-0.77-1.44-1.18-1.82
			c-0.42-0.38-0.99-0.57-1.72-0.57c-0.56,0-1.11,0.16-1.66,0.49c-0.55,0.32-1.08,0.8-1.59,1.41c-0.51,0.62-0.86,1.2-1.05,1.74
			c-0.19,0.54-0.29,1.18-0.29,1.92v8.11c0,1.41,0.08,2.38,0.26,2.91c0.17,0.53,0.45,0.92,0.85,1.17c0.39,0.25,0.99,0.44,1.77,0.58
			v1.14h-9.34v-1.14c0.59-0.19,1.01-0.35,1.26-0.49s0.48-0.33,0.66-0.58c0.19-0.25,0.32-0.63,0.42-1.14
			c0.09-0.51,0.14-1.31,0.14-2.39V23.68c0-0.99-0.02-1.79-0.05-2.39c-0.03-0.6-0.14-1.09-0.32-1.45c-0.19-0.36-0.47-0.63-0.85-0.81
			c-0.38-0.18-0.92-0.33-1.61-0.45v-1.21l5.43-0.23h1.41L58.87,21.2z"/>
		<path class="st0-logo" d="M77.19,21.2l0.32,0.07c0.85-1.03,1.64-1.85,2.37-2.45c0.73-0.59,1.51-1.06,2.35-1.38
			c0.84-0.32,1.8-0.49,2.86-0.49c0.9,0,1.71,0.05,2.43,0.14v5.33h-2.62c-0.37-0.83-0.77-1.44-1.18-1.82
			c-0.42-0.38-0.99-0.57-1.72-0.57c-0.56,0-1.11,0.16-1.66,0.49c-0.55,0.32-1.08,0.8-1.59,1.41c-0.51,0.62-0.86,1.2-1.05,1.74
			c-0.19,0.54-0.29,1.18-0.29,1.92v8.11c0,1.41,0.08,2.38,0.26,2.91c0.17,0.53,0.45,0.92,0.85,1.17c0.39,0.25,0.99,0.44,1.77,0.58
			v1.14h-9.34v-1.14c0.59-0.19,1.01-0.35,1.26-0.49c0.26-0.14,0.48-0.33,0.66-0.58c0.19-0.25,0.32-0.63,0.42-1.14
			c0.09-0.51,0.14-1.31,0.14-2.39V23.68c0-0.99-0.02-1.79-0.05-2.39c-0.03-0.6-0.14-1.09-0.32-1.45c-0.19-0.36-0.47-0.63-0.85-0.81
			c-0.38-0.18-0.92-0.33-1.61-0.45v-1.21l5.43-0.23h1.41L77.19,21.2z"/>
		<path class="st0-logo" d="M89.47,38.38c0.6-0.19,1.03-0.35,1.29-0.49c0.26-0.14,0.47-0.33,0.65-0.58c0.18-0.25,0.32-0.63,0.42-1.14
			c0.1-0.51,0.15-1.31,0.15-2.39V23.68c0-0.99-0.02-1.79-0.05-2.39c-0.03-0.6-0.14-1.09-0.32-1.45c-0.19-0.36-0.47-0.63-0.85-0.81
			c-0.38-0.18-0.92-0.33-1.61-0.45v-1.23l5.4-0.21h1.41v16.58c0,1.33,0.06,2.25,0.19,2.77c0.12,0.52,0.36,0.91,0.71,1.18
			c0.35,0.27,0.92,0.51,1.7,0.71v1.14h-9.09V38.38z M96.1,8.26v4.5h-4.27v-4.5H96.1z"/>
		<path class="st0-logo" d="M116.44,22.43h-2.23c-0.34-0.93-0.74-1.66-1.21-2.19c-0.46-0.53-0.99-0.91-1.58-1.12
			c-0.59-0.22-1.31-0.32-2.16-0.32c-1.24,0-2.22,0.29-2.96,0.87c-0.73,0.58-1.1,1.37-1.1,2.38c0,0.71,0.15,1.3,0.44,1.76
			c0.29,0.46,0.75,0.9,1.37,1.3c0.62,0.4,1.71,0.94,3.27,1.6c1.58,0.68,2.79,1.31,3.65,1.88c0.86,0.57,1.53,1.24,2.02,1.99
			c0.49,0.76,0.73,1.66,0.73,2.71c0,1.22-0.21,2.25-0.63,3.08c-0.42,0.83-1,1.52-1.76,2.04c-0.76,0.53-1.66,0.9-2.7,1.14
			c-1.04,0.23-2.18,0.35-3.42,0.35c-1.3,0-2.56-0.1-3.78-0.29c-1.22-0.19-2.41-0.44-3.57-0.75v-4.85h2.27
			c0.42,1.42,1.04,2.45,1.85,3.1c0.82,0.64,1.95,0.96,3.39,0.96c0.56,0,1.1-0.06,1.63-0.17c0.53-0.12,1.01-0.31,1.43-0.58
			s0.75-0.64,1-1.1c0.25-0.46,0.37-1.04,0.37-1.74c0-0.79-0.15-1.43-0.46-1.92c-0.31-0.49-0.79-0.95-1.44-1.36
			c-0.65-0.41-1.79-0.96-3.43-1.66c-1.41-0.59-2.54-1.16-3.39-1.72c-0.85-0.56-1.52-1.21-2.01-1.97c-0.49-0.76-0.73-1.65-0.73-2.69
			c0-1.27,0.34-2.37,1.03-3.3c0.69-0.94,1.68-1.65,2.98-2.14c1.3-0.49,2.82-0.74,4.57-0.74c1.02,0,2.01,0.05,2.96,0.15
			c0.95,0.1,2.14,0.3,3.58,0.59V22.43z"/>
	</g>
	<g>
		<path class="st1-logo" d="M146.47,44.45c-2.23,1.95-4.38,3.35-6.46,4.18c-2.08,0.83-4.39,1.25-6.92,1.25c-2.64,0-4.94-0.49-6.91-1.48
			c-1.96-0.99-3.46-2.39-4.5-4.2c-1.04-1.81-1.55-3.94-1.55-6.39c0-1.95,0.33-3.72,1-5.3c0.67-1.58,1.74-3.12,3.21-4.62
			c1.47-1.5,3.47-3.05,6.01-4.64c-1.59-2.28-2.73-4.36-3.4-6.23c-0.68-1.87-1.01-3.78-1.01-5.73c0-2.21,0.52-4.17,1.57-5.87
			c1.05-1.7,2.54-3.03,4.47-3.98c1.93-0.95,4.08-1.43,6.43-1.43c1.46,0,2.83,0.16,4.11,0.48c1.28,0.32,2.39,0.84,3.34,1.55
			c0.95,0.71,1.7,1.64,2.24,2.78c0.55,1.14,0.82,2.53,0.82,4.18c0,0.78-0.08,1.54-0.23,2.27c-0.15,0.73-0.38,1.42-0.69,2.07
			c-0.31,0.65-0.7,1.33-1.19,2.02c-0.49,0.69-1.17,1.44-2.03,2.25c-0.86,0.81-1.96,1.67-3.29,2.57c-1.33,0.9-2.8,1.86-4.42,2.86
			c1.09,1.6,2.73,3.81,4.91,6.64c2.18,2.83,4.37,5.57,6.58,8.21c1.46-1.64,2.55-3.28,3.26-4.93c0.71-1.64,1.06-3.33,1.06-5.07
			c0-1.24-0.26-2.17-0.79-2.78c-0.52-0.62-1.36-1-2.52-1.14v-1.75h9.33v1.75c0,0.33-0.11,1.04-0.33,2.11
			c-0.13,0.69-0.29,1.38-0.49,2.07c-0.2,0.67-0.43,1.33-0.69,2c-0.26,0.67-0.56,1.32-0.88,1.96c-0.33,0.69-0.7,1.37-1.11,2.03
			c-0.41,0.67-0.86,1.33-1.34,2c-0.5,0.69-1.06,1.38-1.67,2.07c-0.59,0.69-1.22,1.38-1.9,2.07c1.07,1.36,2,2.42,2.8,3.18
			c0.8,0.76,1.51,1.3,2.13,1.62c0.62,0.32,1.27,0.48,1.95,0.48c0.65,0,1.28-0.17,1.88-0.5s1.4-0.97,2.41-1.89l1.51,2.03
			c-1.31,1.48-2.68,2.62-4.11,3.45c-1.43,0.82-2.8,1.23-4.11,1.23c-1.07,0-2-0.15-2.8-0.46c-0.8-0.31-1.61-0.82-2.44-1.54
			C148.84,47.17,147.78,46.03,146.47,44.45z M132.13,25.82c-2.14,1.52-3.7,3.12-4.68,4.8c-0.98,1.68-1.47,3.59-1.47,5.73
			c0,1.98,0.37,3.68,1.11,5.12c0.74,1.44,1.76,2.52,3.04,3.23c1.29,0.71,2.74,1.07,4.35,1.07c1.9,0,3.61-0.27,5.14-0.82
			c1.53-0.55,3.15-1.51,4.88-2.89c-0.7-0.86-1.7-2.12-3.01-3.78l-5.4-7.03c-0.89-1.19-1.69-2.26-2.39-3.21L132.13,25.82z
			 M135.21,20.6c2.79-1.62,4.9-3.36,6.33-5.21c1.43-1.86,2.14-3.8,2.14-5.82c0-1.36-0.24-2.53-0.7-3.52
			c-0.47-0.99-1.14-1.74-2.01-2.25c-0.87-0.51-1.87-0.77-2.98-0.77c-1.29,0-2.43,0.3-3.42,0.91c-0.99,0.61-1.77,1.49-2.32,2.64
			c-0.56,1.15-0.83,2.52-0.83,4.09c0,1.45,0.28,2.94,0.83,4.46C132.8,16.66,133.79,18.48,135.21,20.6z"/>
	</g>
	<g>
		<path class="st0-logo" d="M186.53,33.72c0,0.9,0.03,1.57,0.08,2.02c0.05,0.45,0.14,0.81,0.26,1.08c0.12,0.27,0.26,0.49,0.43,0.66
			c0.17,0.17,0.41,0.32,0.73,0.46c0.31,0.14,0.8,0.29,1.47,0.44v1.14H178.8v-1.14c0.94-0.22,1.59-0.46,1.96-0.72
			c0.37-0.26,0.63-0.66,0.78-1.21c0.14-0.54,0.22-1.45,0.22-2.74V24h-14.18v9.71c0,1.04,0.04,1.79,0.12,2.27
			c0.08,0.48,0.2,0.86,0.38,1.14c0.18,0.28,0.44,0.51,0.79,0.7c0.35,0.19,0.91,0.37,1.7,0.56v1.14h-10.74v-1.14
			c1.05-0.25,1.76-0.52,2.12-0.82c0.36-0.3,0.59-0.73,0.7-1.29c0.11-0.56,0.17-1.41,0.17-2.55V13.66c0-1.07-0.04-1.84-0.13-2.33
			c-0.09-0.49-0.23-0.87-0.42-1.14c-0.19-0.27-0.45-0.49-0.78-0.65c-0.32-0.16-0.88-0.34-1.66-0.54V7.86h10.74V9
			c-0.75,0.17-1.29,0.34-1.62,0.51c-0.33,0.17-0.59,0.38-0.79,0.64c-0.2,0.25-0.34,0.64-0.43,1.15c-0.09,0.51-0.14,1.3-0.14,2.36
			v8.21h14.18v-8.21c0-1.34-0.07-2.26-0.22-2.76c-0.14-0.49-0.39-0.87-0.73-1.14C180.47,9.5,179.8,9.25,178.8,9V7.86h10.69V9
			c-0.95,0.22-1.61,0.46-1.99,0.73c-0.37,0.27-0.63,0.68-0.77,1.22c-0.14,0.54-0.2,1.45-0.2,2.71V33.72z"/>
	</g>
	<g>
		<path class="st0-logo" d="M202.94,36.2l-0.35-0.09c-1.34,1.38-2.61,2.35-3.79,2.92c-1.18,0.57-2.44,0.86-3.77,0.86
			c-1.17,0-2.21-0.23-3.11-0.68c-0.9-0.46-1.58-1.1-2.06-1.92c-0.48-0.83-0.72-1.78-0.72-2.86c0-2.26,1.12-4,3.35-5.23
			c2.23-1.23,5.58-1.94,10.05-2.14v-1.51c0-1.61-0.15-2.88-0.46-3.8c-0.31-0.93-0.8-1.61-1.46-2.04c-0.66-0.43-1.55-0.65-2.67-0.65
			c-1.2,0-2.18,0.32-2.91,0.95c-0.73,0.63-1.29,1.58-1.66,2.85h-3.04v-3.01c1.48-0.77,2.72-1.34,3.71-1.71
			c0.99-0.36,1.98-0.65,2.97-0.86c0.99-0.21,1.99-0.31,3.01-0.31c1.53,0,2.76,0.24,3.69,0.73c0.93,0.49,1.62,1.23,2.09,2.24
			c0.46,1.01,0.7,2.52,0.7,4.54v8.07c0,1.14,0.01,1.95,0.02,2.42c0.01,0.47,0.06,0.91,0.14,1.31c0.08,0.4,0.19,0.72,0.35,0.96
			c0.15,0.24,0.38,0.45,0.68,0.61c0.3,0.17,0.79,0.35,1.47,0.53v1.14h-6.35L202.94,36.2z M202.55,28.94
			c-3.14,0.03-5.49,0.45-7.05,1.25c-1.56,0.8-2.34,2.02-2.34,3.64c0,0.88,0.18,1.58,0.53,2.09c0.36,0.51,0.8,0.86,1.34,1.05
			c0.54,0.19,1.18,0.29,1.92,0.29c1.05,0,2.01-0.26,2.86-0.77c0.86-0.51,1.53-1.16,2.01-1.95c0.48-0.79,0.72-1.57,0.72-2.34V28.94z"
			/>
		<path class="st0-logo" d="M218.47,21.2l0.32,0.07c0.85-1.03,1.64-1.85,2.37-2.45c0.73-0.59,1.51-1.06,2.35-1.38
			c0.84-0.32,1.8-0.49,2.86-0.49c0.9,0,1.71,0.05,2.43,0.14v5.33h-2.62c-0.37-0.83-0.77-1.44-1.18-1.82
			c-0.42-0.38-0.99-0.57-1.72-0.57c-0.56,0-1.11,0.16-1.66,0.49c-0.55,0.32-1.08,0.8-1.59,1.41c-0.51,0.62-0.86,1.2-1.05,1.74
			c-0.19,0.54-0.29,1.18-0.29,1.92v8.11c0,1.41,0.08,2.38,0.26,2.91c0.17,0.53,0.45,0.92,0.85,1.17c0.39,0.25,0.98,0.44,1.77,0.58
			v1.14h-9.34v-1.14c0.59-0.19,1.01-0.35,1.26-0.49c0.26-0.14,0.48-0.33,0.66-0.58c0.19-0.25,0.32-0.63,0.42-1.14
			c0.09-0.51,0.14-1.31,0.14-2.39V23.68c0-0.99-0.01-1.79-0.05-2.39c-0.03-0.6-0.14-1.09-0.32-1.45c-0.19-0.36-0.47-0.63-0.85-0.81
			c-0.38-0.18-0.92-0.33-1.61-0.45v-1.21l5.43-0.23h1.41L218.47,21.2z"/>
		<path class="st0-logo" d="M236.36,21.2l0.32,0.07c0.85-1.03,1.64-1.85,2.36-2.45c0.73-0.59,1.51-1.06,2.35-1.38
			c0.84-0.32,1.8-0.49,2.86-0.49c0.9,0,1.71,0.05,2.43,0.14v5.33h-2.62c-0.37-0.83-0.76-1.44-1.18-1.82
			c-0.42-0.38-0.99-0.57-1.72-0.57c-0.56,0-1.11,0.16-1.66,0.49c-0.55,0.32-1.08,0.8-1.59,1.41c-0.51,0.62-0.86,1.2-1.06,1.74
			c-0.19,0.54-0.29,1.18-0.29,1.92v8.11c0,1.41,0.08,2.38,0.25,2.91c0.17,0.53,0.45,0.92,0.85,1.17c0.39,0.25,0.99,0.44,1.77,0.58
			v1.14h-9.34v-1.14c0.59-0.19,1.01-0.35,1.26-0.49c0.25-0.14,0.48-0.33,0.66-0.58c0.19-0.25,0.32-0.63,0.42-1.14
			c0.09-0.51,0.14-1.31,0.14-2.39V23.68c0-0.99-0.02-1.79-0.05-2.39c-0.03-0.6-0.14-1.09-0.32-1.45c-0.19-0.36-0.47-0.63-0.85-0.81
			c-0.38-0.18-0.92-0.33-1.61-0.45v-1.21l5.43-0.23h1.41L236.36,21.2z"/>
		<path class="st0-logo" d="M248.32,38.38c0.6-0.19,1.03-0.35,1.29-0.49c0.26-0.14,0.47-0.33,0.65-0.58c0.18-0.25,0.32-0.63,0.42-1.14
			c0.1-0.51,0.15-1.31,0.15-2.39V23.68c0-0.99-0.02-1.79-0.05-2.39c-0.03-0.6-0.14-1.09-0.32-1.45c-0.18-0.36-0.47-0.63-0.85-0.81
			c-0.38-0.18-0.92-0.33-1.61-0.45v-1.23l5.4-0.21h1.41v16.58c0,1.33,0.06,2.25,0.19,2.77c0.12,0.52,0.36,0.91,0.71,1.18
			c0.35,0.27,0.92,0.51,1.7,0.71v1.14h-9.09V38.38z M254.95,8.26v4.5h-4.27v-4.5H254.95z"/>
		<path class="st0-logo" d="M275.86,22.43h-2.23c-0.34-0.93-0.74-1.66-1.21-2.19c-0.46-0.53-0.99-0.91-1.58-1.12
			c-0.59-0.22-1.31-0.32-2.16-0.32c-1.24,0-2.22,0.29-2.96,0.87c-0.74,0.58-1.1,1.37-1.1,2.38c0,0.71,0.15,1.3,0.44,1.76
			c0.29,0.46,0.75,0.9,1.37,1.3c0.62,0.4,1.71,0.94,3.27,1.6c1.58,0.68,2.79,1.31,3.65,1.88c0.86,0.57,1.53,1.24,2.02,1.99
			c0.49,0.76,0.73,1.66,0.73,2.71c0,1.22-0.21,2.25-0.63,3.08c-0.42,0.83-1,1.52-1.76,2.04c-0.76,0.53-1.66,0.9-2.7,1.14
			c-1.04,0.23-2.18,0.35-3.42,0.35c-1.3,0-2.56-0.1-3.78-0.29c-1.22-0.19-2.41-0.44-3.57-0.75v-4.85h2.27
			c0.42,1.42,1.03,2.45,1.85,3.1c0.82,0.64,1.95,0.96,3.39,0.96c0.56,0,1.1-0.06,1.63-0.17c0.53-0.12,1.01-0.31,1.43-0.58
			c0.42-0.27,0.75-0.64,1-1.1s0.37-1.04,0.37-1.74c0-0.79-0.15-1.43-0.47-1.92c-0.31-0.49-0.79-0.95-1.44-1.36
			c-0.65-0.41-1.79-0.96-3.43-1.66c-1.41-0.59-2.54-1.16-3.39-1.72c-0.85-0.56-1.52-1.21-2.01-1.97c-0.49-0.76-0.73-1.65-0.73-2.69
			c0-1.27,0.34-2.37,1.03-3.3c0.69-0.94,1.68-1.65,2.98-2.14c1.3-0.49,2.82-0.74,4.57-0.74c1.02,0,2.01,0.05,2.96,0.15
			c0.95,0.1,2.14,0.3,3.58,0.59V22.43z"/>
	</g>
</g>
</svg>
