<?xml version="1.0" encoding="utf-8"?>
<!-- Generator: Adobe Illustrator 23.1.1, SVG Export Plug-In . SVG Version: 6.00 Build 0)  -->
<!DOCTYPE svg PUBLIC "-//W3C//DTD SVG 1.1//EN" "http://www.w3.org/Graphics/SVG/1.1/DTD/svg11.dtd" [
	<!ENTITY ns_extend "http://ns.adobe.com/Extensibility/1.0/">
	<!ENTITY ns_ai "http://ns.adobe.com/AdobeIllustrator/10.0/">
	<!ENTITY ns_graphs "http://ns.adobe.com/Graphs/1.0/">
	<!ENTITY ns_vars "http://ns.adobe.com/Variables/1.0/">
	<!ENTITY ns_imrep "http://ns.adobe.com/ImageReplacement/1.0/">
	<!ENTITY ns_sfw "http://ns.adobe.com/SaveForWeb/1.0/">
	<!ENTITY ns_custom "http://ns.adobe.com/GenericCustomNamespace/1.0/">
	<!ENTITY ns_adobe_xpath "http://ns.adobe.com/XPath/1.0/">
]>
<svg version="1.1" id="Layer_1" xmlns:x="&ns_extend;" xmlns:i="&ns_ai;" xmlns:graph="&ns_graphs;"
	 xmlns="http://www.w3.org/2000/svg" xmlns:xlink="http://www.w3.org/1999/xlink" x="0px" y="0px" width="71.4px" height="68.25px"
	 viewBox="0 0 71.4 68.25" style="enable-background:new 0 0 71.4 68.25;" xml:space="preserve">
<style type="text/css">
	.st0{fill:url(#SVGID_1_);}
</style>
<metadata>
	<sfw  xmlns="&ns_sfw;">
		<slices></slices>
		<sliceSourceBounds  bottomLeftOrigin="true" height="64.3" width="64.3" x="94.85" y="96.85"></sliceSourceBounds>
	</sfw>
</metadata>
<linearGradient id="SVGID_1_" gradientUnits="userSpaceOnUse" x1="7.4248" y1="64.5901" x2="70.0701" y2="1.524" gradientTransform="matrix(1 0 0 -1 0 70.25)">
	<stop  offset="0" style="stop-color:#E2A540"/>
	<stop  offset="1" style="stop-color:#DA6532"/>
</linearGradient>
<path class="st0" d="M35.7,36.95c6.71,0,12.16-5.46,12.16-12.16v-5.33c0-6.71-5.46-12.16-12.16-12.16
	c-6.71,0-12.16,5.46-12.16,12.16v5.33C23.54,31.5,28.99,36.95,35.7,36.95z M26.54,22.29h5.16c4.5,0,8.16-3.66,8.16-8.16h-3
	c0,2.85-2.32,5.16-5.16,5.16h-5.15c0.09-4.97,4.16-8.99,9.15-8.99c5.05,0,9.16,4.11,9.16,9.16v5.33c0,5.05-4.11,9.16-9.16,9.16
	s-9.16-4.11-9.16-9.16C26.54,24.79,26.54,22.29,26.54,22.29z M35.7,1.97c-17.73,0-32.15,14.42-32.15,32.15S17.97,66.28,35.7,66.28
	s32.15-14.42,32.15-32.15S53.43,1.97,35.7,1.97z M35.7,4.97c16.07,0,29.15,13.08,29.15,29.15c0,5.32-1.44,10.31-3.94,14.61
	c-0.83-3.62-3.48-6.63-7.11-7.84l-10.69-2.88l-0.78,2.9L45,41.64l-1.92,4.7l-7.38-6.15l-7.38,6.15l-1.92-4.69l2.68-0.72l-0.78-2.9
	l-10.59,2.85l-0.1,0.03c-3.64,1.21-6.29,4.22-7.12,7.84c-2.5-4.31-3.94-9.3-3.94-14.62C6.55,18.05,19.63,4.97,35.7,4.97z
	 M13.21,52.65v-1.49c0-3.35,2.12-6.32,5.33-7.42l4.94-1.33l3.61,8.84l2.47-2.06l1.89,3.78l-2.13,9.59
	C22.9,61.12,17.27,57.56,13.21,52.65z M32.28,63.06l2.33-10.48l-2.69-5.37l3.77-3.14l3.77,3.14l-2.69,5.37l2.33,10.48
	c-1.12,0.13-2.26,0.21-3.41,0.21S33.41,63.19,32.28,63.06z M42.07,62.56l-2.13-9.59l1.89-3.79l2.47,2.06l3.61-8.84l4.92,1.33
	c3.2,1.07,5.35,4.05,5.35,7.43v1.49C54.13,57.56,48.5,61.12,42.07,62.56z"/>
</svg>
