<?xml version="1.0" encoding="utf-8"?>
<!-- Generator: Adobe Illustrator 23.1.1, SVG Export Plug-In . SVG Version: 6.00 Build 0)  -->
<svg version="1.1" id="Layer_1" xmlns="http://www.w3.org/2000/svg" xmlns:xlink="http://www.w3.org/1999/xlink" x="0px" y="0px"
	 width="64.3px" height="64.3px" viewBox="0 0 64.3 64.3" style="enable-background:new 0 0 64.3 64.3;" xml:space="preserve">
<style type="text/css">
	.st0{fill:url(#SVGID_1_);}
</style>
<linearGradient id="SVGID_1_" gradientUnits="userSpaceOnUse" x1="3.8748" y1="3.6849" x2="66.5201" y2="66.751">
	<stop  offset="0" style="stop-color:#E2A540"/>
	<stop  offset="1" style="stop-color:#DA6532"/>
</linearGradient>
<path class="st0" d="M32.15,34.98c6.71,0,12.16-5.46,12.16-12.16v-5.33c0-6.71-5.46-12.16-12.16-12.16
	c-6.71,0-12.16,5.46-12.16,12.16v5.33C19.99,29.53,25.44,34.98,32.15,34.98z M22.99,20.32h5.16c4.5,0,8.16-3.66,8.16-8.16h-3
	c0,2.85-2.32,5.16-5.16,5.16H23c0.09-4.97,4.16-8.99,9.15-8.99c5.05,0,9.16,4.11,9.16,9.16v5.33c0,5.05-4.11,9.16-9.16,9.16
	c-5.05,0-9.16-4.11-9.16-9.16V20.32z M32.15,0C14.42,0,0,14.42,0,32.15C0,49.88,14.42,64.3,32.15,64.3
	c17.73,0,32.15-14.42,32.15-32.15C64.3,14.42,49.88,0,32.15,0z M32.15,3C48.22,3,61.3,16.08,61.3,32.15
	c0,5.32-1.44,10.31-3.94,14.61c-0.83-3.62-3.48-6.63-7.11-7.84l-10.69-2.88l-0.78,2.9l2.67,0.72l-1.92,4.7l-7.38-6.15l-7.38,6.15
	l-1.92-4.69l2.68-0.72l-0.78-2.9l-10.59,2.85l-0.1,0.03c-3.64,1.21-6.29,4.22-7.12,7.84C4.44,42.46,3,37.47,3,32.15
	C3,16.08,16.08,3,32.15,3z M9.66,50.68v-1.49c0-3.35,2.12-6.32,5.33-7.42l4.94-1.33l3.61,8.84l2.47-2.06L27.9,51l-2.13,9.59
	C19.35,59.15,13.72,55.59,9.66,50.68z M28.73,61.09l2.33-10.48l-2.69-5.37l3.77-3.14l3.77,3.14l-2.69,5.37l2.33,10.48
	c-1.12,0.13-2.26,0.21-3.41,0.21C30.99,61.3,29.86,61.22,28.73,61.09z M38.52,60.59L36.39,51l1.89-3.79l2.47,2.06l3.61-8.84
	l4.92,1.33c3.2,1.07,5.35,4.05,5.35,7.43v1.49C50.58,55.59,44.95,59.15,38.52,60.59z"/>
</svg>
