<svg version="1.1" id="sm" xmlns="http://www.w3.org/2000/svg" xmlns:xlink="http://www.w3.org/1999/xlink" x="0px" y="0px"
	 width="39.24px" height="39.24px" viewBox="0 0 39.24 39.24" style="enable-background:new 0 0 39.24 39.24;" xml:space="preserve"
	>
<style type="text/css">
	.st0-sm{fill:#FFFFFF;}
	.st1-sm{fill:#101524;}
</style>
<circle class="st0-sm" cx="19.62" cy="19.62" r="19.62"/>
<path id="twitter-1" class="st1-sm" d="M27.52,14.06c-0.6,0.27-1.25,0.45-1.93,0.53c0.69-0.41,1.22-1.07,1.47-1.85
	c-0.65,0.38-1.36,0.66-2.13,0.81c-0.61-0.65-1.48-1.06-2.45-1.06c-2.16,0-3.75,2.02-3.27,4.12c-2.79-0.14-5.26-1.47-6.91-3.5
	c-0.88,1.51-0.46,3.48,1.04,4.48c-0.55-0.02-1.07-0.17-1.52-0.42c-0.04,1.55,1.08,3.01,2.69,3.33c-0.47,0.13-0.99,0.16-1.51,0.06
	c0.43,1.33,1.66,2.3,3.13,2.33c-1.41,1.1-3.18,1.6-4.96,1.39c1.48,0.95,3.25,1.51,5.14,1.51c6.22,0,9.74-5.26,9.53-9.97
	C26.5,15.33,27.07,14.74,27.52,14.06z"/>
</svg>
