<?xml version="1.0" encoding="utf-8"?>
<!-- Generator: Adobe Illustrator 23.1.1, SVG Export Plug-In . SVG Version: 6.00 Build 0)  -->
<svg version="1.1" id="Layer_1" xmlns="http://www.w3.org/2000/svg" xmlns:xlink="http://www.w3.org/1999/xlink" x="0px" y="0px"
	 width="38.8px" height="38.8px" viewBox="0 0 38.8 38.8" style="enable-background:new 0 0 38.8 38.8;" xml:space="preserve">
<style type="text/css">
	.st0{fill:#FFFFFF;}
	.st1{fill:#101523;}
</style>
<circle class="st0" cx="19.4" cy="19.4" r="19.4"/>
<path id="linkedin-1" class="st1" d="M15.56,10.38c0,1.04-0.84,1.88-1.87,1.88s-1.87-0.84-1.87-1.88c0-1.04,0.84-1.88,1.87-1.88
	S15.56,9.34,15.56,10.38z M15.58,13.77h-3.77v12.06h3.77V13.77z M21.59,13.77h-3.75v12.06h3.75c0,0,0-4.47,0-6.33
	c0-3.52,4.55-3.81,4.55,0c0,1.74,0,6.33,0,6.33h3.76c0,0,0-4.41,0-7.64c0-5.94-6.73-5.72-8.31-2.8V13.77z"/>
</svg>
