<?xml version="1.0" encoding="utf-8"?>
<!-- Generator: Adobe Illustrator 23.1.1, SVG Export Plug-In . SVG Version: 6.00 Build 0)  -->
<svg version="1.1" id="Layer_1" xmlns="http://www.w3.org/2000/svg" xmlns:xlink="http://www.w3.org/1999/xlink" x="0px" y="0px"
	 width="38.94px" height="38.94px" viewBox="0 0 38.94 38.94" style="enable-background:new 0 0 38.94 38.94;" xml:space="preserve"
	>
<style type="text/css">
	.st0{fill:#FFFFFF;}
	.st1{fill:#101524;}
</style>
<circle class="st0" cx="19.47" cy="19.47" r="19.47"/>
<path class="st1" d="M19.35,10.86c2.54,0,2.84,0.01,3.84,0.06c2.57,0.12,3.78,1.34,3.89,3.89c0.05,1,0.05,1.3,0.05,3.84
	c0,2.54-0.01,2.84-0.05,3.84c-0.12,2.55-1.32,3.78-3.89,3.89c-1,0.05-1.3,0.06-3.84,0.06c-2.54,0-2.84-0.01-3.84-0.06
	c-2.58-0.12-3.78-1.34-3.89-3.89c-0.05-1-0.06-1.3-0.06-3.84c0-2.54,0.01-2.84,0.06-3.84c0.12-2.55,1.32-3.78,3.89-3.89
	C16.51,10.87,16.81,10.86,19.35,10.86z M19.35,9.15c-2.58,0-2.9,0.01-3.92,0.06c-3.45,0.16-5.37,2.07-5.52,5.52
	c-0.05,1.01-0.06,1.34-0.06,3.92s0.01,2.9,0.06,3.92c0.16,3.45,2.07,5.37,5.52,5.52c1.01,0.05,1.34,0.06,3.92,0.06
	s2.9-0.01,3.92-0.06c3.45-0.16,5.37-2.07,5.52-5.52c0.05-1.01,0.06-1.34,0.06-3.92s-0.01-2.9-0.06-3.92
	c-0.16-3.45-2.07-5.37-5.52-5.52C22.25,9.16,21.93,9.15,19.35,9.15z M19.35,13.77c-2.69,0-4.88,2.18-4.88,4.88s2.18,4.88,4.88,4.88
	s4.88-2.18,4.88-4.88C24.23,15.95,22.04,13.77,19.35,13.77z M19.35,21.81c-1.75,0-3.17-1.42-3.17-3.17c0-1.75,1.42-3.17,3.17-3.17
	s3.17,1.42,3.17,3.17C22.52,20.4,21.1,21.81,19.35,21.81z M24.42,12.44c-0.63,0-1.14,0.51-1.14,1.14c0,0.63,0.51,1.14,1.14,1.14
	c0.63,0,1.14-0.51,1.14-1.14C25.56,12.95,25.05,12.44,24.42,12.44z"/>
</svg>
