<?xml version="1.0" encoding="utf-8"?>
<!-- Generator: Adobe Illustrator 23.1.1, SVG Export Plug-In . SVG Version: 6.00 Build 0)  -->
<!DOCTYPE svg PUBLIC "-//W3C//DTD SVG 1.1//EN" "http://www.w3.org/Graphics/SVG/1.1/DTD/svg11.dtd" [
	<!ENTITY ns_extend "http://ns.adobe.com/Extensibility/1.0/">
	<!ENTITY ns_ai "http://ns.adobe.com/AdobeIllustrator/10.0/">
	<!ENTITY ns_graphs "http://ns.adobe.com/Graphs/1.0/">
	<!ENTITY ns_vars "http://ns.adobe.com/Variables/1.0/">
	<!ENTITY ns_imrep "http://ns.adobe.com/ImageReplacement/1.0/">
	<!ENTITY ns_sfw "http://ns.adobe.com/SaveForWeb/1.0/">
	<!ENTITY ns_custom "http://ns.adobe.com/GenericCustomNamespace/1.0/">
	<!ENTITY ns_adobe_xpath "http://ns.adobe.com/XPath/1.0/">
]>
<svg version="1.1" id="Layer_1" xmlns:x="&ns_extend;" xmlns:i="&ns_ai;" xmlns:graph="&ns_graphs;"
	 xmlns="http://www.w3.org/2000/svg" xmlns:xlink="http://www.w3.org/1999/xlink" x="0px" y="0px" viewBox="0 0 71.4 68.2"
	 style="enable-background:new 0 0 71.4 68.2;" xml:space="preserve">
<style type="text/css">
	.st0{fill:url(#SVGID_1_);}
</style>
<metadata>
	<sfw  xmlns="&ns_sfw;">
		<slices></slices>
		<sliceSourceBounds  bottomLeftOrigin="true" height="45.5" width="69.5" x="1" y="11.4"></sliceSourceBounds>
	</sfw>
</metadata>
<linearGradient id="SVGID_1_" gradientUnits="userSpaceOnUse" x1="35.7" y1="202.7784" x2="35.7" y2="242.3147" gradientTransform="matrix(1 0 0 1 0 -185.75)">
	<stop  offset="0" style="stop-color:#E1A03E"/>
	<stop  offset="0.1899" style="stop-color:#E09A3D"/>
	<stop  offset="0.4524" style="stop-color:#DF883A"/>
	<stop  offset="0.6673" style="stop-color:#DD7436"/>
</linearGradient>
<path class="st0" d="M69.1,30.7l-2.1,1.3c-0.7,0.5-1.5,0.6-2.3,0.4s-1.5-0.7-1.9-1.4L61.6,29l-2,1.2l1.3,2.1
	c0.3,0.5,0.2,1.2-0.3,1.6L55.9,37l-8-5.5c0.8-0.1,1.6-0.3,2.3-0.7l-1.2-2c-0.9,0.5-3.1,0.5-4.5,0.4l-7.1-4.8l0,0
	c-1.8-1.4-4-1.1-3.9-1.1c-1.6,0-3,1-3.5,2.4c-0.9,2.4-2.4,3.4-3,3.7c-0.2,0.1-0.5,0.2-0.7,0.4c-0.8,0.5-1.8,0.4-2.4-0.3
	c-1.3-1.3-0.9-1.8-0.6-2.2c0.3-0.3,1-1.2,1.1-1.3l4-5.5c0.9-1.2,2.3-1.8,3.8-1.9l5.2-0.1c1.4,0,2.7,0.1,4.1,0.4l8.9,2.2l1.5-0.8
	c0.7-0.4,1.5-0.2,1.9,0.5l0.4,0.7l0,0l0,0l2.4,4l2-1.2l-2.4-4l0,0l-0.7-1.1c-0.8-1.4-0.4-3.2,1-4.1l2.1-1.4l-1.3-2L55.3,13
	c-1.7,1.1-2.5,2.9-2.4,4.7c-0.7,0-1.4,0.1-2.1,0.5l-0.7,0.4l-8-1.9c-1.5-0.4-3.1-0.5-4.7-0.5l-5.2,0.2c-2,0-3.8,0.9-5.2,2.4
	l-2.6,0.1c-0.9,0.1-1.8-0.1-2.7-0.6c-1-0.5-2-0.7-3.1-0.5c0.1-1.9-0.6-3.7-2.2-4.9l-2-1.4l-1.4,1.9l2,1.4c1.3,0.9,1.7,2.8,0.8,4.2
	L15,20.2l-2.4,3.5l1.9,1.4l2.4-3.5l0,0l0.1-0.1l0.2-0.3c0.8-1.1,2.2-1.5,3.5-0.8c1.2,0.6,2.5,0.9,3.8,0.8l0.6,0l-2.6,3.6
	c-0.1,0.2-0.8,0.9-1.1,1.3c-0.6,0.7-1.8,2.7,0.8,5.3c0.8,0.8,1.9,1.3,3,1.3c0.8,0,1.6-0.2,2.3-0.7c0.2-0.1,0.3-0.2,0.5-0.3
	c0.9-0.4,3-1.8,4.2-5c0.2-0.5,0.7-0.9,1.4-0.9c0,0,1.4-0.2,2.4,0.6l0.1,0l20.4,13.9c0.5,0.4,0.8,0.9,0.8,1.5c0,0.5-0.2,0.9-0.5,1.3
	c-0.6,0.6-1.6,0.7-2.3,0.2L54.1,43c-0.5-0.3-1-0.6-1.5-0.9L43,36.5l-1.2,2l9.7,5.6c0.3,0.2,0.5,0.3,0.8,0.5c0.3,0.3,0.4,0.8,0.4,1.3
	c0,0.6-0.2,1.1-0.6,1.5c-0.6,0.6-1.6,0.7-2.3,0.2l-0.4-0.3c-0.5-0.3-1-0.6-1.4-0.9l-7.4-4.3l-1.2,2l7.4,4.3c0.4,0.2,0.8,0.5,1.2,0.8
	c0.3,0.3,0.5,0.8,0.5,1.2c0,0.5-0.2,0.9-0.5,1.3c-0.6,0.6-1.6,0.7-2.4,0.1c-0.5-0.3-1-0.7-1.6-1l-6.3-3.4l-1.1,2.1l5.5,3l-0.7,1.3
	c-0.5,0.7-1.5,0.9-2.3,0.5c-0.6-0.3-1.1-0.6-1.7-0.8l-3.8-1.5l0.4-0.6c1.4-1.9,1-4.5-0.9-5.9c-0.9-0.7-2-0.9-3.1-0.8
	c-0.1,0-0.2,0-0.3,0.1c-0.2-1-0.7-2-1.6-2.7c-0.6-0.4-1.2-0.7-1.9-0.8c0.9-1.8,0.4-4-1.2-5.2c-0.9-0.7-2-0.9-3.1-0.8l0,0
	c-0.7,0.1-1.3,0.4-1.8,0.7c-0.3-0.6-0.7-1.2-1.3-1.7c-0.9-0.7-2-0.9-3.1-0.8l0,0c-1,0.2-2,0.7-2.6,1.5l-2.4-2.2
	c-0.5-0.4-0.6-1.2-0.3-1.8l0.5-0.9l-2-1.2l-0.4,0.8c-0.5,0.7-1.2,1.2-2,1.3c-0.8,0.2-1.6,0-2.3-0.5l-1.7-1.2L1,31.6l1.7,1.2
	c0.9,0.7,2,1,3.1,1c0.3,0,0.7,0,1-0.1c0.4-0.1,0.8-0.2,1.2-0.4c0.2,0.6,0.5,1.1,1,1.5l2.5,2.3l-1.3,1.8c-1.4,1.9-1,4.5,0.9,5.9
	c0.6,0.5,1.4,0.7,2.1,0.8c-0.5,1.6,0.1,3.5,1.5,4.5c0.7,0.5,1.6,0.8,2.5,0.8c0.2,0,0.4,0,0.6,0c0.4-0.1,0.8-0.2,1.1-0.3
	c0.3,0.8,0.8,1.4,1.5,2c0.7,0.5,1.6,0.8,2.5,0.8c0.2,0,0.4,0,0.6,0c0.4-0.1,0.8-0.2,1.1-0.4c0.3,0.8,0.8,1.5,1.5,2
	c0.7,0.5,1.6,0.8,2.5,0.8c0.2,0,0.4,0,0.6,0c1.1-0.2,2.1-0.8,2.8-1.7l0,0l4.3,1.7c0.5,0.2,1,0.5,1.6,0.8c0.6,0.3,1.2,0.4,1.8,0.4
	c1.3,0,2.5-0.6,3.4-1.8l0.8-1.4c0.1,0.1,0.2,0.1,0.3,0.2c0.7,0.5,1.5,0.7,2.3,0.7c1.1,0,2.2-0.4,3-1.2c0.8-0.8,1.2-1.8,1.2-3
	c0-0.1,0-0.1,0-0.2h0c1.1,0,2.2-0.4,3-1.2c0.8-0.8,1.2-1.9,1.3-3c0,0,0-0.1,0-0.1c0.2,0,0.3,0,0.5,0c1.1,0,2.2-0.4,3-1.2
	c0.8-0.8,1.2-1.8,1.2-3c0-1.3-0.6-2.5-1.7-3.3l3.8-2.6c0.6-0.4,1-0.9,1.2-1.5c0.4,0.2,0.8,0.3,1.2,0.4c0.4,0.1,0.8,0.1,1.2,0.1
	c1,0,2-0.3,2.9-0.9l2.1-1.3L69.1,30.7z M13.8,43.2c-0.5,0.1-1,0-1.4-0.3c-0.8-0.6-1-1.8-0.4-2.6l2.6-3.5c0.3-0.4,0.7-0.6,1.2-0.7
	c0.5-0.1,1,0,1.3,0.3c0.8,0.6,1,1.8,0.4,2.6L15,42.5C14.8,42.9,14.3,43.1,13.8,43.2z M19.5,46.6c-0.1,0.1-0.1,0.2-0.2,0.3l-0.7,0.9
	c-0.3,0.4-0.7,0.6-1.2,0.7c-0.5,0.1-1,0-1.4-0.3c-0.8-0.6-1-1.8-0.4-2.6l5.1-7.1c0.3-0.4,0.7-0.6,1.2-0.7c0.5-0.1,1,0,1.4,0.3
	c0.8,0.6,1,1.8,0.4,2.6l-2.6,3.7L19.5,46.6z M24.4,50.2c-0.3,0.4-0.7,0.6-1.2,0.7c-0.5,0.1-1,0-1.4-0.3c-0.7-0.5-0.9-1.5-0.5-2.3
	l1.8-2.5l1-1.3c0.3-0.4,0.7-0.6,1.2-0.7c0.1,0,0.2,0,0.3,0c0.4,0,0.8,0.1,1.1,0.3c0.8,0.6,1,1.8,0.4,2.6L24.4,50.2z M32,50.1
	l-1.9,2.6c-0.3,0.4-0.7,0.6-1.2,0.7c-0.5,0.1-1,0-1.4-0.3c-0.8-0.6-1-1.8-0.4-2.6l1.9-2.6c0.3-0.4,0.7-0.6,1.2-0.7
	c0.1,0,0.2,0,0.3,0c0.4,0,0.8,0.1,1.1,0.3C32.4,48.1,32.6,49.2,32,50.1z"/>
</svg>
