<?xml version="1.0" encoding="utf-8"?>
<!-- Generator: Adobe Illustrator 23.1.1, SVG Export Plug-In . SVG Version: 6.00 Build 0)  -->
<svg version="1.1" id="yo_icon" xmlns="http://www.w3.org/2000/svg" xmlns:xlink="http://www.w3.org/1999/xlink" x="0px" y="0px"
	 width="58.61px" height="54.96px" viewBox="0 0 58.61 54.96" style="enable-background:new 0 0 58.61 54.96;" xml:space="preserve"
	>
<style type="text/css">
	.st0-yo{fill:url(#SVGID_1_);}
</style>
<linearGradient id="SVGID_1_" gradientUnits="userSpaceOnUse" x1="6.0229" y1="7.5193" x2="59.0411" y2="61.1047">
	<stop  offset="0" style="stop-color:#E1A03E"/>
	<stop  offset="1" style="stop-color:#DC6431"/>
</linearGradient>
<path class="st0-yo" d="M53.96,20.72L49.48,6.05c1.09-0.51,1.84-1.6,1.84-2.87C51.33,1.43,49.9,0,48.15,0C46.41,0,45,1.41,44.98,3.14
	L33.36,7.68c-0.9-1.28-2.38-2.12-4.05-2.12c-2.74,0-4.97,2.23-4.97,4.97c0,0.22,0.04,0.43,0.07,0.65l-11.58,4.54
	c-0.58-0.6-1.39-0.98-2.29-0.98c-1.75,0-3.17,1.43-3.17,3.18c0,1.27,0.75,2.35,1.82,2.86l-4.64,15.2H0v1.18
	c0,4.94,4.69,8.96,10.46,8.96c5.77,0,10.46-4.02,10.46-8.96v-1.18h-4.54l-4.62-15.12c1.15-0.48,1.96-1.61,1.96-2.93c0,0,0,0,0,0
	l11.54-4.53c0.68,0.96,1.69,1.66,2.87,1.95v32.65H16.71v4.61H6.33v2.37h45.98v-2.37H41.9v-4.61H30.49V15.34
	c2.17-0.53,3.78-2.48,3.78-4.81c0-0.22-0.04-0.43-0.06-0.64l11.64-4.54c0.28,0.29,0.6,0.53,0.97,0.7l-4.48,14.67H37.7v1.18
	c0,4.94,4.69,8.96,10.45,8.96c5.77,0,10.46-4.02,10.46-8.96v-1.18H53.96z M10.54,17.1c0.45,0,0.81,0.36,0.81,0.81
	c0,0.45-0.36,0.81-0.81,0.81c-0.44,0-0.81-0.36-0.81-0.81C9.73,17.47,10.09,17.1,10.54,17.1z M18.42,38.34
	c-0.69,3.07-3.99,5.41-7.96,5.41s-7.27-2.34-7.96-5.41H18.42z M13.89,35.97H7.02l3.44-11.25L13.89,35.97z M39.53,50.36v2.24H19.08
	v-2.24H39.53z M29.31,13.13c-1.43,0-2.6-1.17-2.6-2.6c0-1.43,1.16-2.6,2.6-2.6s2.6,1.17,2.6,2.6C31.9,11.96,30.74,13.13,29.31,13.13
	z M48.15,2.37c0.45,0,0.81,0.36,0.81,0.81c0,0.45-0.36,0.81-0.81,0.81c-0.44,0-0.81-0.36-0.81-0.81
	C47.34,2.73,47.71,2.37,48.15,2.37z M48.15,9.79l3.34,10.92h-6.67L48.15,9.79z M48.15,28.49c-3.96,0-7.27-2.34-7.96-5.41h15.92
	C55.42,26.16,52.11,28.49,48.15,28.49z M2.07,52.59h2.16v2.37H2.07V52.59z M54.28,52.59h2.16v2.37h-2.16V52.59z"/>
</svg>
