<?xml version="1.0" encoding="utf-8"?>
<!-- Generator: Adobe Illustrator 23.1.1, SVG Export Plug-In . SVG Version: 6.00 Build 0)  -->
<!DOCTYPE svg PUBLIC "-//W3C//DTD SVG 1.1//EN" "http://www.w3.org/Graphics/SVG/1.1/DTD/svg11.dtd" [
	<!ENTITY ns_extend "http://ns.adobe.com/Extensibility/1.0/">
	<!ENTITY ns_ai "http://ns.adobe.com/AdobeIllustrator/10.0/">
	<!ENTITY ns_graphs "http://ns.adobe.com/Graphs/1.0/">
	<!ENTITY ns_vars "http://ns.adobe.com/Variables/1.0/">
	<!ENTITY ns_imrep "http://ns.adobe.com/ImageReplacement/1.0/">
	<!ENTITY ns_sfw "http://ns.adobe.com/SaveForWeb/1.0/">
	<!ENTITY ns_custom "http://ns.adobe.com/GenericCustomNamespace/1.0/">
	<!ENTITY ns_adobe_xpath "http://ns.adobe.com/XPath/1.0/">
]>
<svg version="1.1" id="Layer_1" xmlns:x="&ns_extend;" xmlns:i="&ns_ai;" xmlns:graph="&ns_graphs;"
	 xmlns="http://www.w3.org/2000/svg" xmlns:xlink="http://www.w3.org/1999/xlink" x="0px" y="0px" viewBox="0 0 71.4 68.2"
	 style="enable-background:new 0 0 71.4 68.2;" xml:space="preserve">
<style type="text/css">
	.st0{fill:url(#SVGID_1_);}
</style>
<metadata>
	<sfw  xmlns="&ns_sfw;">
		<slices></slices>
		<sliceSourceBounds  bottomLeftOrigin="true" height="61.2" width="61.7" x="4.9" y="3.5"></sliceSourceBounds>
	</sfw>
</metadata>
<linearGradient id="SVGID_1_" gradientUnits="userSpaceOnUse" x1="35.7" y1="197.9325" x2="35.7" y2="248.9196" gradientTransform="matrix(1 0 0 1 0 -185.75)">
	<stop  offset="0.1885" style="stop-color:#E19F3E"/>
	<stop  offset="0.6328" style="stop-color:#DE7A36"/>
	<stop  offset="0.9046" style="stop-color:#DC6832"/>
</linearGradient>
<path class="st0" d="M42.6,25.5c-3-2.7-7-4.4-11.4-4.4c-9.5,0-17.3,7.8-17.3,17.3s7.8,17.3,17.3,17.3c9.5,0,17.3-7.8,17.3-17.3
	c0-4.2-1.5-8.1-4.1-11.2l4.7-4.6l7.9,0.8l9.6-9.6l-9.4-0.9l-0.9-9.4l-9.6,9.6l0.8,7.7L42.6,25.5z M46,38.4c0,8.2-6.6,14.8-14.8,14.8
	c-8.1,0-14.8-6.6-14.8-14.8S23,23.6,31.2,23.6c3.7,0,7,1.4,9.7,3.6l-5.2,5.1c-1.3-0.9-2.8-1.5-4.5-1.5c-4.2,0-7.6,3.4-7.6,7.6
	S27,46,31.2,46s7.6-3.4,7.6-7.6c0-1.6-0.5-3.1-1.4-4.4l5.1-5C44.7,31.6,46,34.8,46,38.4z M32,39.3l3.5-3.5c0.5,0.8,0.7,1.6,0.7,2.6
	c0,2.8-2.3,5.2-5.1,5.2S26,41.3,26,38.4s2.3-5.2,5.1-5.2c1,0,1.9,0.3,2.7,0.8l-3.6,3.5L32,39.3z M54.3,9l0.6,6.2l6.2,0.6L56,20.9
	l-4.6-0.5l2.7-2.6L52.3,16l-2.7,2.6l-0.4-4.5L54.3,9z M54,25.3c2.3,4,3.5,8.5,3.5,13.2c0,14.5-11.8,26.3-26.3,26.3
	c-14.5,0-26.3-11.8-26.3-26.3c0-14.5,11.8-26.3,26.3-26.3c4.8,0,9.5,1.3,13.6,3.8L43.5,18c-3.7-2.2-7.9-3.4-12.3-3.4
	C18,14.6,7.3,25.3,7.3,38.4S18,62.3,31.2,62.3S55,51.6,55,38.4c0-4.2-1.1-8.3-3.2-11.9L54,25.3z"/>
</svg>
