<?xml version="1.0" encoding="utf-8"?>
<!-- Generator: Adobe Illustrator 23.1.1, SVG Export Plug-In . SVG Version: 6.00 Build 0)  -->
<svg version="1.1" id="Layer_1" xmlns="http://www.w3.org/2000/svg" xmlns:xlink="http://www.w3.org/1999/xlink" x="0px" y="0px"
	 width="61.69px" height="61.24px" viewBox="0 0 61.69 61.24" style="enable-background:new 0 0 61.69 61.24;" xml:space="preserve"
	>
<style type="text/css">
	.st0{fill:url(#SVGID_1_);}
</style>
<linearGradient id="SVGID_1_" gradientUnits="userSpaceOnUse" x1="8.24" y1="5.1191" x2="57.5768" y2="55.0701">
	<stop  offset="1.374058e-03" style="stop-color:#E19F3E"/>
	<stop  offset="1" style="stop-color:#DC6832"/>
</linearGradient>
<path class="st0" d="M37.74,21.99c-3.05-2.7-7.04-4.35-11.42-4.35c-9.52,0-17.27,7.75-17.27,17.27c0,9.52,7.75,17.27,17.27,17.27
	c9.53,0,17.27-7.75,17.27-17.27c0-4.25-1.55-8.14-4.11-11.16l4.67-4.57l7.88,0.77l9.65-9.65L52.3,9.38L51.38,0l-9.65,9.65l0.76,7.69
	L37.74,21.99z M41.11,34.91c0,8.15-6.63,14.79-14.79,14.79c-8.15,0-14.79-6.63-14.79-14.79s6.63-14.79,14.79-14.79
	c3.69,0,7.05,1.36,9.65,3.6l-5.15,5.05c-1.26-0.93-2.81-1.49-4.49-1.49c-4.21,0-7.63,3.42-7.63,7.63c0,4.21,3.42,7.63,7.63,7.63
	c4.21,0,7.63-3.42,7.63-7.63c0-1.63-0.52-3.13-1.4-4.37l5.15-5.05C39.84,28.05,41.11,31.34,41.11,34.91z M27.19,35.8l3.55-3.48
	c0.45,0.76,0.73,1.64,0.73,2.59c0,2.84-2.31,5.15-5.15,5.15c-2.84,0-5.15-2.31-5.15-5.15c0-2.84,2.31-5.15,5.15-5.15
	c0.99,0,1.9,0.29,2.69,0.78l-3.56,3.48L27.19,35.8z M49.42,5.47l0.6,6.18l6.19,0.61l-5.1,5.11l-4.64-0.45l2.68-2.62l-1.74-1.78
	l-2.65,2.6l-0.44-4.54L49.42,5.47z M49.13,21.76c2.3,3.98,3.52,8.53,3.52,13.16c0,14.52-11.81,26.32-26.33,26.32
	C11.81,61.24,0,49.43,0,34.91C0,20.4,11.81,8.59,26.32,8.59c4.79,0,9.47,1.3,13.55,3.75l-1.28,2.13c-3.69-2.22-7.94-3.39-12.27-3.39
	c-13.15,0-23.84,10.69-23.84,23.84c0,13.15,10.69,23.84,23.84,23.84c13.15,0,23.84-10.69,23.84-23.84c0-4.19-1.1-8.31-3.18-11.91
	L49.13,21.76z"/>
</svg>
