<?xml version="1.0" encoding="utf-8"?>
<!-- Generator: Adobe Illustrator 23.1.1, SVG Export Plug-In . SVG Version: 6.00 Build 0)  -->
<!DOCTYPE svg PUBLIC "-//W3C//DTD SVG 1.1//EN" "http://www.w3.org/Graphics/SVG/1.1/DTD/svg11.dtd" [
	<!ENTITY ns_extend "http://ns.adobe.com/Extensibility/1.0/">
	<!ENTITY ns_ai "http://ns.adobe.com/AdobeIllustrator/10.0/">
	<!ENTITY ns_graphs "http://ns.adobe.com/Graphs/1.0/">
	<!ENTITY ns_vars "http://ns.adobe.com/Variables/1.0/">
	<!ENTITY ns_imrep "http://ns.adobe.com/ImageReplacement/1.0/">
	<!ENTITY ns_sfw "http://ns.adobe.com/SaveForWeb/1.0/">
	<!ENTITY ns_custom "http://ns.adobe.com/GenericCustomNamespace/1.0/">
	<!ENTITY ns_adobe_xpath "http://ns.adobe.com/XPath/1.0/">
]>
<svg version="1.1" id="Layer_1" xmlns:x="&ns_extend;" xmlns:i="&ns_ai;" xmlns:graph="&ns_graphs;"
	 xmlns="http://www.w3.org/2000/svg" xmlns:xlink="http://www.w3.org/1999/xlink" x="0px" y="0px" width="71.4px" height="68.25px"
	 viewBox="0 0 71.4 68.25" style="enable-background:new 0 0 71.4 68.25;" xml:space="preserve">
<style type="text/css">
	.st0{fill:url(#SVGID_1_);}
</style>
<metadata>
	<sfw  xmlns="&ns_sfw;">
		<slices></slices>
		<sliceSourceBounds  bottomLeftOrigin="true" height="45.5" width="69.47" x="44.27" y="106.25"></sliceSourceBounds>
	</sfw>
</metadata>
<linearGradient id="SVGID_1_" gradientUnits="userSpaceOnUse" x1="10.6336" y1="61.8852" x2="62.6487" y2="15.873" gradientTransform="matrix(1 0 0 -1 0 70.25)">
	<stop  offset="0" style="stop-color:#E1A03E"/>
	<stop  offset="1" style="stop-color:#DD7436"/>
</linearGradient>
<path class="st0" d="M69.13,30.72l-2.06,1.34c-0.69,0.45-1.51,0.6-2.31,0.42c-0.8-0.18-1.48-0.66-1.92-1.35l-1.26-2.09l-2.02,1.22
	l1.27,2.09c0.32,0.53,0.17,1.22-0.34,1.57l-4.58,3.12l-7.99-5.47c0.83-0.11,1.64-0.31,2.27-0.68l-1.18-2.05
	c-0.94,0.55-3.13,0.55-4.47,0.42l-7.08-4.84l0,0c-1.8-1.35-3.97-1.09-3.91-1.09c-1.56,0-2.95,0.98-3.46,2.43
	c-0.85,2.42-2.38,3.42-2.99,3.73c-0.23,0.12-0.46,0.24-0.67,0.37c-0.77,0.48-1.76,0.36-2.4-0.28c-1.32-1.33-0.89-1.83-0.56-2.2
	c0.28-0.33,1.04-1.2,1.12-1.31l4-5.55c0.91-1.16,2.28-1.84,3.75-1.88l5.19-0.15c1.36-0.05,2.74,0.11,4.07,0.43l8.89,2.17l1.46-0.83
	c0.67-0.37,1.51-0.16,1.9,0.5l0.4,0.66l0.01,0.02l0,0l2.44,4.03l2.02-1.22l-2.43-4.02l0,0l-0.68-1.14c-0.84-1.41-0.42-3.21,0.95-4.1
	l2.13-1.38l-1.29-1.98l-2.13,1.39c-1.65,1.07-2.5,2.88-2.43,4.72c-0.69-0.04-1.4,0.11-2.06,0.48l-0.65,0.37l-7.98-1.94
	c-1.53-0.38-3.11-0.55-4.7-0.5l-5.18,0.15c-1.97,0.05-3.81,0.9-5.16,2.36l-2.64,0.14c-0.9,0.06-1.77-0.14-2.66-0.61
	c-0.98-0.52-2.05-0.67-3.08-0.52c0.15-1.85-0.62-3.73-2.22-4.86l-2.02-1.44l-1.37,1.92l2.02,1.43c1.33,0.95,1.67,2.82,0.75,4.17
	l-0.86,1.28l-2.43,3.49l1.94,1.35l2.43-3.49l0,0l0.07-0.1l0.22-0.32c0.77-1.1,2.24-1.46,3.54-0.77c1.17,0.62,2.5,0.91,3.8,0.83
	l0.65-0.04l-2.57,3.57c-0.12,0.15-0.76,0.87-1.09,1.26c-0.64,0.73-1.84,2.72,0.76,5.32c0.84,0.84,1.93,1.27,3.04,1.27
	c0.78,0,1.57-0.21,2.28-0.65c0.16-0.1,0.32-0.18,0.49-0.27c0.87-0.44,3.01-1.82,4.15-5.05c0.18-0.51,0.67-0.86,1.38-0.86
	c0.01,0,1.36-0.15,2.37,0.64l0.06,0.04l20.35,13.9c0.52,0.36,0.83,0.9,0.83,1.46c0,0.48-0.19,0.94-0.53,1.28
	c-0.6,0.6-1.56,0.7-2.27,0.23l-0.38-0.25c-0.48-0.32-0.95-0.63-1.45-0.92l-9.7-5.64l-1.19,2.04l9.7,5.64
	c0.26,0.15,0.51,0.32,0.76,0.48c0.27,0.32,0.42,0.78,0.41,1.3c-0.02,0.57-0.24,1.11-0.58,1.46c-0.6,0.6-1.56,0.7-2.27,0.23
	l-0.39-0.26c-0.47-0.32-0.95-0.63-1.44-0.92l-7.42-4.31l-1.19,2.04l7.42,4.31c0.4,0.23,0.78,0.49,1.17,0.75
	c0.31,0.33,0.48,0.76,0.48,1.22c0,0.48-0.19,0.94-0.53,1.28c-0.61,0.6-1.56,0.7-2.4,0.14c-0.51-0.33-1.02-0.67-1.56-0.96l-6.27-3.41
	l-1.13,2.08l5.45,2.96l-0.72,1.33c-0.52,0.67-1.46,0.89-2.3,0.48c-0.57-0.28-1.14-0.56-1.73-0.8l-3.79-1.48l0.43-0.59
	c1.37-1.86,0.98-4.49-0.87-5.86c-0.89-0.66-2-0.94-3.11-0.77c-0.09,0.01-0.17,0.05-0.26,0.07c-0.18-1.03-0.72-1.99-1.63-2.66
	c-0.56-0.41-1.2-0.66-1.88-0.75c0.9-1.79,0.42-4.02-1.24-5.25c-0.9-0.66-2.01-0.94-3.11-0.77l0,0c-0.66,0.1-1.26,0.36-1.79,0.73
	c-0.28-0.64-0.71-1.22-1.31-1.66c-0.89-0.66-2-0.94-3.11-0.77l0,0c-1.04,0.16-1.96,0.69-2.61,1.49l-2.37-2.19
	c-0.49-0.44-0.61-1.18-0.28-1.75l0.46-0.85l-2.04-1.19l-0.45,0.78c-0.45,0.69-1.15,1.16-1.96,1.31c-0.82,0.16-1.64-0.02-2.33-0.51
	l-1.66-1.17l-1.36,1.93l1.65,1.17c0.92,0.66,2,1,3.11,1c0.34,0,0.69-0.03,1.03-0.1c0.43-0.08,0.84-0.23,1.23-0.41
	c0.2,0.56,0.54,1.08,1,1.5l2.53,2.34l-1.3,1.77c-1.37,1.86-0.98,4.49,0.88,5.86c0.63,0.47,1.37,0.73,2.14,0.79
	c-0.47,1.64,0.07,3.46,1.52,4.54c0.72,0.53,1.58,0.81,2.48,0.81c0.21,0,0.42-0.02,0.64-0.05c0.39-0.06,0.76-0.19,1.11-0.35
	c0.27,0.76,0.76,1.44,1.45,1.96c0.72,0.54,1.58,0.82,2.48,0.82c0.21,0,0.43-0.02,0.64-0.05c0.4-0.06,0.78-0.19,1.14-0.36
	c0.26,0.79,0.76,1.51,1.47,2.04c0.72,0.54,1.58,0.82,2.47,0.82c0.21,0,0.43-0.02,0.64-0.05c1.11-0.16,2.09-0.75,2.76-1.66l0.01-0.01
	l4.35,1.7c0.53,0.21,1.04,0.46,1.63,0.75c0.57,0.28,1.18,0.42,1.8,0.42c1.28,0,2.55-0.6,3.44-1.76l0.78-1.42
	c0.1,0.07,0.19,0.12,0.3,0.2c0.7,0.46,1.49,0.68,2.29,0.68c1.08,0,2.15-0.41,2.95-1.22c0.79-0.79,1.22-1.83,1.22-2.95
	c0-0.06-0.01-0.11-0.02-0.17h0.01c1.08,0,2.15-0.41,2.95-1.22c0.77-0.77,1.24-1.89,1.27-3.05c0-0.03-0.01-0.07-0.01-0.1
	c0.16,0.02,0.33,0.03,0.49,0.03c1.08,0,2.15-0.41,2.95-1.22c0.79-0.79,1.22-1.84,1.22-2.95c0-1.26-0.62-2.46-1.67-3.26l3.83-2.61
	c0.57-0.39,0.99-0.92,1.25-1.51c0.38,0.18,0.77,0.33,1.19,0.43c0.39,0.09,0.79,0.13,1.18,0.13c1.03,0,2.04-0.3,2.93-0.88l2.06-1.34
	L69.13,30.72z M13.85,43.19c-0.48,0.08-0.97-0.04-1.36-0.33c-0.81-0.6-0.98-1.75-0.38-2.57l2.59-3.51c0.28-0.38,0.71-0.63,1.21-0.71
	c0.48-0.07,0.97,0.05,1.35,0.33c0.81,0.6,0.98,1.75,0.38,2.57l-2.59,3.51C14.77,42.87,14.35,43.12,13.85,43.19z M19.54,46.6
	c-0.07,0.09-0.11,0.19-0.17,0.29l-0.66,0.92c-0.28,0.39-0.71,0.64-1.2,0.71c-0.49,0.07-0.97-0.05-1.36-0.33
	c-0.81-0.6-0.98-1.75-0.37-2.58l5.14-7.13c0.28-0.38,0.71-0.63,1.2-0.71c0.49-0.07,0.97,0.05,1.36,0.33
	c0.81,0.6,0.98,1.75,0.37,2.57l-2.63,3.65L19.54,46.6z M24.38,50.19c-0.28,0.39-0.71,0.64-1.2,0.71c-0.49,0.07-0.97-0.04-1.36-0.33
	c-0.72-0.53-0.93-1.5-0.55-2.28l1.8-2.49l0.96-1.31c0.28-0.39,0.71-0.64,1.2-0.71c0.1-0.01,0.19-0.02,0.29-0.02
	c0.39,0,0.76,0.12,1.07,0.35c0.81,0.6,0.98,1.75,0.38,2.57L24.38,50.19z M31.97,50.05l-1.86,2.58c-0.29,0.39-0.71,0.64-1.2,0.71
	c-0.48,0.07-0.97-0.04-1.36-0.33c-0.81-0.6-0.98-1.75-0.37-2.58l1.86-2.58c0.28-0.39,0.71-0.64,1.2-0.71
	c0.1-0.01,0.19-0.02,0.29-0.02c0.39,0,0.76,0.12,1.07,0.35C32.4,48.08,32.58,49.23,31.97,50.05z"/>
</svg>
