<?xml version="1.0" encoding="utf-8"?>
<!-- Generator: Adobe Illustrator 23.1.1, SVG Export Plug-In . SVG Version: 6.00 Build 0)  -->
<!DOCTYPE svg PUBLIC "-//W3C//DTD SVG 1.1//EN" "http://www.w3.org/Graphics/SVG/1.1/DTD/svg11.dtd" [
	<!ENTITY ns_extend "http://ns.adobe.com/Extensibility/1.0/">
	<!ENTITY ns_ai "http://ns.adobe.com/AdobeIllustrator/10.0/">
	<!ENTITY ns_graphs "http://ns.adobe.com/Graphs/1.0/">
	<!ENTITY ns_vars "http://ns.adobe.com/Variables/1.0/">
	<!ENTITY ns_imrep "http://ns.adobe.com/ImageReplacement/1.0/">
	<!ENTITY ns_sfw "http://ns.adobe.com/SaveForWeb/1.0/">
	<!ENTITY ns_custom "http://ns.adobe.com/GenericCustomNamespace/1.0/">
	<!ENTITY ns_adobe_xpath "http://ns.adobe.com/XPath/1.0/">
]>
<svg version="1.1" id="Layer_1" xmlns:x="&ns_extend;" xmlns:i="&ns_ai;" xmlns:graph="&ns_graphs;"
	 xmlns="http://www.w3.org/2000/svg" xmlns:xlink="http://www.w3.org/1999/xlink" x="0px" y="0px" viewBox="0 0 71.4 68.2"
	 style="enable-background:new 0 0 71.4 68.2;" xml:space="preserve">
<style type="text/css">
	.st0{fill:url(#SVGID_1_);}
</style>
<metadata>
	<sfw  xmlns="&ns_sfw;">
		<slices></slices>
		<sliceSourceBounds  bottomLeftOrigin="true" height="55" width="58.6" x="6.4" y="6.6"></sliceSourceBounds>
	</sfw>
</metadata>
<linearGradient id="SVGID_1_" gradientUnits="userSpaceOnUse" x1="35.705" y1="195.9087" x2="35.705" y2="245.4951" gradientTransform="matrix(1 0 0 1 0 -185.75)">
	<stop  offset="0.1613" style="stop-color:#E1A03E"/>
	<stop  offset="0.2546" style="stop-color:#E0953C"/>
	<stop  offset="0.6054" style="stop-color:#DD7234"/>
	<stop  offset="0.7931" style="stop-color:#DC6431"/>
</linearGradient>
<path class="st0" d="M60.3,27.4l-4.5-14.7c1.1-0.5,1.8-1.6,1.8-2.9c0-1.8-1.4-3.2-3.2-3.2c-1.7,0-3.2,1.4-3.2,3.1l-11.6,4.5
	c-0.9-1.3-2.4-2.1-4-2.1c-2.7,0-5,2.2-5,5c0,0.2,0,0.4,0.1,0.6l-11.6,4.5c-0.6-0.6-1.4-1-2.3-1c-1.8,0-3.2,1.4-3.2,3.2
	c0,1.3,0.8,2.4,1.8,2.9l-4.6,15.2H6.4v1.2c0,4.9,4.7,9,10.5,9s10.5-4,10.5-9v-1.2h-4.5l-4.6-15.1c1.1-0.5,2-1.6,2-2.9l0,0L31.7,20
	c0.7,1,1.7,1.7,2.9,2v32.7H23.1v4.6H12.7v2.4h46v-2.4H48.3v-4.6H36.9V22c2.2-0.5,3.8-2.5,3.8-4.8c0-0.2,0-0.4-0.1-0.6L52.2,12
	c0.3,0.3,0.6,0.5,1,0.7l-4.5,14.7h-4.6v1.2c0,4.9,4.7,9,10.5,9c5.8,0,10.5-4,10.5-9v-1.2C65,27.4,60.3,27.4,60.3,27.4z M16.9,23.7
	c0.5,0,0.8,0.4,0.8,0.8c0,0.5-0.4,0.8-0.8,0.8c-0.4,0-0.8-0.4-0.8-0.8C16.1,24.1,16.5,23.7,16.9,23.7z M24.8,45
	c-0.7,3.1-4,5.4-8,5.4S9.6,48,8.9,45H24.8z M20.3,42.6h-6.9l3.4-11.2L20.3,42.6z M45.9,57v2.2H25.5V57H45.9z M35.7,19.8
	c-1.4,0-2.6-1.2-2.6-2.6s1.2-2.6,2.6-2.6s2.6,1.2,2.6,2.6C38.3,18.6,37.1,19.8,35.7,19.8z M54.5,9c0.5,0,0.8,0.4,0.8,0.8
	c0,0.4-0.4,0.8-0.8,0.8c-0.4,0-0.8-0.4-0.8-0.8C53.7,9.4,54.1,9,54.5,9z M54.5,16.4l3.3,10.9h-6.7L54.5,16.4z M54.5,35.1
	c-4,0-7.3-2.3-8-5.4h15.9C61.8,32.8,58.5,35.1,54.5,35.1z M8.5,59.2h2.2v2.4H8.5V59.2z M60.7,59.2h2.2v2.4h-2.2V59.2z"/>
</svg>
