<?xml version="1.0" encoding="utf-8"?>
<!-- Generator: Adobe Illustrator 23.1.1, SVG Export Plug-In . SVG Version: 6.00 Build 0)  -->
<svg version="1.1" id="Layer_1" xmlns="http://www.w3.org/2000/svg" xmlns:xlink="http://www.w3.org/1999/xlink" x="0px" y="0px"
	 width="54.2px" height="57.92px" viewBox="0 0 54.2 57.92" style="enable-background:new 0 0 54.2 57.92;" xml:space="preserve">
<style type="text/css">
	.st0{fill:url(#SVGID_1_);}
</style>
<linearGradient id="SVGID_1_" gradientUnits="userSpaceOnUse" x1="4.5113" y1="0.3989" x2="51.4994" y2="47.9196">
	<stop  offset="0" style="stop-color:#E2A53F"/>
	<stop  offset="1" style="stop-color:#DC6531"/>
</linearGradient>
<path class="st0" d="M27.16,30.93c-6.03,0-10.93,4.9-10.93,10.93c0,6.03,4.91,10.93,10.93,10.93c6.03,0,10.93-4.9,10.93-10.93
	C38.1,35.84,33.19,30.93,27.16,30.93z M27.16,50.39c-4.7,0-8.52-3.82-8.52-8.52c0-4.7,3.82-8.52,8.52-8.52
	c4.7,0,8.52,3.82,8.52,8.52C35.68,46.56,31.86,50.39,27.16,50.39z M53.92,10.76L45.46,0.44c-0.02-0.02-0.04-0.04-0.06-0.06
	c-0.02-0.02-0.04-0.04-0.06-0.06c-0.21-0.2-0.49-0.31-0.78-0.32C44.55,0.01,44.54,0,44.53,0H9.67C9.65,0,9.64,0.01,9.62,0.01
	C9.49,0.02,9.37,0.04,9.24,0.09C9.22,0.1,9.19,0.11,9.16,0.12c-0.11,0.05-0.21,0.12-0.3,0.2C8.84,0.34,8.81,0.36,8.79,0.39
	C8.77,0.41,8.75,0.42,8.73,0.44L0.27,10.76c-0.33,0.41-0.37,0.98-0.08,1.42l13.47,21.05c-1.6,2.5-2.54,5.46-2.54,8.64
	c0,8.85,7.2,16.05,16.05,16.05c8.85,0,16.05-7.2,16.05-16.05c0-3.22-0.96-6.22-2.61-8.74l13.4-20.95
	C54.29,11.73,54.25,11.16,53.92,10.76z M27.16,25.82c-0.37,0-0.73,0.03-1.1,0.06L17.8,12.26H36.4l-8.26,13.6
	C27.81,25.85,27.49,25.82,27.16,25.82z M37.87,9.85H16.33l-4.52-7.43h30.57L37.87,9.85z M2.69,11.61l6.83-8.32l13.96,22.97
	c-3.25,0.77-6.11,2.52-8.26,4.92L2.69,11.61z M27.16,55.5c-7.52,0-13.64-6.12-13.64-13.64s6.12-13.64,13.64-13.64
	c7.52,0,13.64,6.12,13.64,13.64S34.68,55.5,27.16,55.5z M39.03,31.1c-2.17-2.39-5.04-4.13-8.3-4.87L44.68,3.29l6.83,8.32L39.03,31.1
	z M32.51,40.14l-3.41,2.48l1.3,4.01l-3.41-2.48l-3.41,2.48l1.3-4.01l-3.41-2.48h4.22l1.3-4.01l1.3,4.01H32.51z"/>
</svg>
