<?xml version="1.0" encoding="utf-8"?>
<!-- Generator: Adobe Illustrator 23.1.1, SVG Export Plug-In . SVG Version: 6.00 Build 0)  -->
<!DOCTYPE svg PUBLIC "-//W3C//DTD SVG 1.1//EN" "http://www.w3.org/Graphics/SVG/1.1/DTD/svg11.dtd" [
	<!ENTITY ns_extend "http://ns.adobe.com/Extensibility/1.0/">
	<!ENTITY ns_ai "http://ns.adobe.com/AdobeIllustrator/10.0/">
	<!ENTITY ns_graphs "http://ns.adobe.com/Graphs/1.0/">
	<!ENTITY ns_vars "http://ns.adobe.com/Variables/1.0/">
	<!ENTITY ns_imrep "http://ns.adobe.com/ImageReplacement/1.0/">
	<!ENTITY ns_sfw "http://ns.adobe.com/SaveForWeb/1.0/">
	<!ENTITY ns_custom "http://ns.adobe.com/GenericCustomNamespace/1.0/">
	<!ENTITY ns_adobe_xpath "http://ns.adobe.com/XPath/1.0/">
]>
<svg version="1.1" id="Layer_1" xmlns:x="&ns_extend;" xmlns:i="&ns_ai;" xmlns:graph="&ns_graphs;"
	 xmlns="http://www.w3.org/2000/svg" xmlns:xlink="http://www.w3.org/1999/xlink" x="0px" y="0px" width="71.4px" height="68.25px"
	 viewBox="0 0 71.4 68.25" style="enable-background:new 0 0 71.4 68.25;" xml:space="preserve">
<style type="text/css">
	.st0{fill:url(#SVGID_1_);}
</style>
<metadata>
	<sfw  xmlns="&ns_sfw;">
		<slices></slices>
		<sliceSourceBounds  bottomLeftOrigin="true" height="61.24" width="61.68" x="48.16" y="98.38"></sliceSourceBounds>
	</sfw>
</metadata>
<linearGradient id="SVGID_1_" gradientUnits="userSpaceOnUse" x1="13.0988" y1="61.6247" x2="62.4356" y2="11.6737" gradientTransform="matrix(1 0 0 -1 0 70.25)">
	<stop  offset="1.374058e-03" style="stop-color:#E19F3E"/>
	<stop  offset="1" style="stop-color:#DC6832"/>
</linearGradient>
<path class="st0" d="M42.6,25.5c-3.05-2.7-7.04-4.35-11.42-4.35c-9.52,0-17.27,7.75-17.27,17.27s7.75,17.27,17.27,17.27
	c9.53,0,17.27-7.75,17.27-17.27c0-4.25-1.55-8.14-4.11-11.16l4.67-4.57l7.88,0.77l9.65-9.65l-9.38-0.92l-0.92-9.38l-9.65,9.65
	l0.76,7.69L42.6,25.5z M45.97,38.42c0,8.15-6.63,14.79-14.79,14.79c-8.15,0-14.79-6.63-14.79-14.79s6.63-14.79,14.79-14.79
	c3.69,0,7.05,1.36,9.65,3.6l-5.15,5.05c-1.26-0.93-2.81-1.49-4.49-1.49c-4.21,0-7.63,3.42-7.63,7.63s3.42,7.63,7.63,7.63
	s7.63-3.42,7.63-7.63c0-1.63-0.52-3.13-1.4-4.37L42.57,29C44.7,31.56,45.97,34.85,45.97,38.42z M32.05,39.31l3.55-3.48
	c0.45,0.76,0.73,1.64,0.73,2.59c0,2.84-2.31,5.15-5.15,5.15s-5.15-2.31-5.15-5.15s2.31-5.15,5.15-5.15c0.99,0,1.9,0.29,2.69,0.78
	l-3.56,3.48L32.05,39.31z M54.28,8.98l0.6,6.18l6.19,0.61l-5.1,5.11l-4.64-0.45l2.68-2.62l-1.74-1.78l-2.65,2.6l-0.44-4.54
	L54.28,8.98z M53.99,25.27c2.3,3.98,3.52,8.53,3.52,13.16c0,14.52-11.81,26.32-26.33,26.32c-14.51,0-26.32-11.81-26.32-26.33
	c0-14.51,11.81-26.32,26.32-26.32c4.79,0,9.47,1.3,13.55,3.75l-1.28,2.13c-3.69-2.22-7.94-3.39-12.27-3.39
	c-13.15,0-23.84,10.69-23.84,23.84s10.69,23.84,23.84,23.84s23.84-10.69,23.84-23.84c0-4.19-1.1-8.31-3.18-11.91L53.99,25.27z"/>
</svg>
