<?xml version="1.0" encoding="utf-8"?>
<!-- Generator: Adobe Illustrator 23.1.1, SVG Export Plug-In . SVG Version: 6.00 Build 0)  -->
<!DOCTYPE svg PUBLIC "-//W3C//DTD SVG 1.1//EN" "http://www.w3.org/Graphics/SVG/1.1/DTD/svg11.dtd" [
	<!ENTITY ns_extend "http://ns.adobe.com/Extensibility/1.0/">
	<!ENTITY ns_ai "http://ns.adobe.com/AdobeIllustrator/10.0/">
	<!ENTITY ns_graphs "http://ns.adobe.com/Graphs/1.0/">
	<!ENTITY ns_vars "http://ns.adobe.com/Variables/1.0/">
	<!ENTITY ns_imrep "http://ns.adobe.com/ImageReplacement/1.0/">
	<!ENTITY ns_sfw "http://ns.adobe.com/SaveForWeb/1.0/">
	<!ENTITY ns_custom "http://ns.adobe.com/GenericCustomNamespace/1.0/">
	<!ENTITY ns_adobe_xpath "http://ns.adobe.com/XPath/1.0/">
]>
<svg version="1.1" id="Layer_1" xmlns:x="&ns_extend;" xmlns:i="&ns_ai;" xmlns:graph="&ns_graphs;"
	 xmlns="http://www.w3.org/2000/svg" xmlns:xlink="http://www.w3.org/1999/xlink" x="0px" y="0px" width="71.4px" height="68.25px"
	 viewBox="0 0 71.4 68.25" style="enable-background:new 0 0 71.4 68.25;" xml:space="preserve">
<style type="text/css">
	.st0{fill:url(#SVGID_1_);}
</style>
<metadata>
	<sfw  xmlns="&ns_sfw;">
		<slices></slices>
		<sliceSourceBounds  bottomLeftOrigin="true" height="57.92" width="54.2" x="51.9" y="100.04"></sliceSourceBounds>
	</sfw>
</metadata>
<linearGradient id="SVGID_1_" gradientUnits="userSpaceOnUse" x1="13.1154" y1="64.686" x2="60.1035" y2="17.1653" gradientTransform="matrix(1 0 0 -1 0 70.25)">
	<stop  offset="0" style="stop-color:#E2A53F"/>
	<stop  offset="1" style="stop-color:#DC6531"/>
</linearGradient>
<path class="st0" d="M35.76,36.1c-6.03,0-10.93,4.9-10.93,10.93s4.91,10.93,10.93,10.93c6.03,0,10.93-4.9,10.93-10.93
	C46.7,41.01,41.79,36.1,35.76,36.1z M35.76,55.56c-4.7,0-8.52-3.82-8.52-8.52s3.82-8.52,8.52-8.52s8.52,3.82,8.52,8.52
	C44.28,51.73,40.46,55.56,35.76,55.56z M62.52,15.93L54.06,5.61C54.04,5.59,54.02,5.57,54,5.55s-0.04-0.04-0.06-0.06
	c-0.21-0.2-0.49-0.31-0.78-0.32c-0.01,0.01-0.02,0-0.03,0H18.27c-0.02,0-0.03,0.01-0.05,0.01c-0.13,0.01-0.25,0.03-0.38,0.08
	c-0.02,0.01-0.05,0.02-0.08,0.03c-0.11,0.05-0.21,0.12-0.3,0.2c-0.02,0.02-0.05,0.04-0.07,0.07c-0.02,0.02-0.04,0.03-0.06,0.05
	L8.87,15.93c-0.33,0.41-0.37,0.98-0.08,1.42L22.26,38.4c-1.6,2.5-2.54,5.46-2.54,8.64c0,8.85,7.2,16.05,16.05,16.05
	s16.05-7.2,16.05-16.05c0-3.22-0.96-6.22-2.61-8.74l13.4-20.95C62.89,16.9,62.85,16.33,62.52,15.93z M35.76,30.99
	c-0.37,0-0.73,0.03-1.1,0.06L26.4,17.43H45l-8.26,13.6C36.41,31.02,36.09,30.99,35.76,30.99z M46.47,15.02H24.93l-4.52-7.43h30.57
	L46.47,15.02z M11.29,16.78l6.83-8.32l13.96,22.97c-3.25,0.77-6.11,2.52-8.26,4.92L11.29,16.78z M35.76,60.67
	c-7.52,0-13.64-6.12-13.64-13.64s6.12-13.64,13.64-13.64S49.4,39.51,49.4,47.03S43.28,60.67,35.76,60.67z M47.63,36.26
	c-2.17-2.39-5.04-4.13-8.3-4.87L53.28,8.46l6.83,8.32L47.63,36.26z M41.11,45.31l-3.41,2.48l1.3,4.01l-3.41-2.48l-3.41,2.48
	l1.3-4.01l-3.41-2.48h4.22l1.3-4.01l1.3,4.01H41.11z"/>
</svg>
