<?xml version="1.0" encoding="utf-8"?>
<!-- Generator: Adobe Illustrator 23.1.1, SVG Export Plug-In . SVG Version: 6.00 Build 0)  -->
<!DOCTYPE svg PUBLIC "-//W3C//DTD SVG 1.1//EN" "http://www.w3.org/Graphics/SVG/1.1/DTD/svg11.dtd" [
	<!ENTITY ns_extend "http://ns.adobe.com/Extensibility/1.0/">
	<!ENTITY ns_ai "http://ns.adobe.com/AdobeIllustrator/10.0/">
	<!ENTITY ns_graphs "http://ns.adobe.com/Graphs/1.0/">
	<!ENTITY ns_vars "http://ns.adobe.com/Variables/1.0/">
	<!ENTITY ns_imrep "http://ns.adobe.com/ImageReplacement/1.0/">
	<!ENTITY ns_sfw "http://ns.adobe.com/SaveForWeb/1.0/">
	<!ENTITY ns_custom "http://ns.adobe.com/GenericCustomNamespace/1.0/">
	<!ENTITY ns_adobe_xpath "http://ns.adobe.com/XPath/1.0/">
]>
<svg version="1.1" id="Layer_1" xmlns:x="&ns_extend;" xmlns:i="&ns_ai;" xmlns:graph="&ns_graphs;"
	 xmlns="http://www.w3.org/2000/svg" xmlns:xlink="http://www.w3.org/1999/xlink" x="0px" y="0px" viewBox="0 0 71.4 68.2"
	 style="enable-background:new 0 0 71.4 68.2;" xml:space="preserve">
<style type="text/css">
	.st0{fill:url(#SVGID_1_);}
</style>
<metadata>
	<sfw  xmlns="&ns_sfw;">
		<slices></slices>
		<sliceSourceBounds  bottomLeftOrigin="true" height="57.9" width="54.2" x="8.6" y="5.2"></sliceSourceBounds>
	</sfw>
</metadata>
<linearGradient id="SVGID_1_" gradientUnits="userSpaceOnUse" x1="35.6958" y1="191.3185" x2="35.6958" y2="247.4765" gradientTransform="matrix(1 0 0 1 0 -185.75)">
	<stop  offset="0.1036" style="stop-color:#E2A53F"/>
	<stop  offset="0.3394" style="stop-color:#E0923B"/>
	<stop  offset="0.7721" style="stop-color:#DC6531"/>
</linearGradient>
<path class="st0" d="M35.8,36.1c-6,0-10.9,4.9-10.9,10.9S29.7,58,35.8,58c6,0,10.9-4.9,10.9-10.9C46.7,41,41.8,36.1,35.8,36.1z
	 M35.8,55.6c-4.7,0-8.5-3.8-8.5-8.5s3.8-8.5,8.5-8.5s8.5,3.8,8.5,8.5C44.3,51.7,40.5,55.6,35.8,55.6z M62.5,15.9L54.1,5.6
	c0,0,0,0-0.1-0.1s0,0-0.1-0.1c-0.2-0.2-0.5-0.3-0.8-0.3c0,0,0,0,0,0H18.3c0,0,0,0,0,0c-0.1,0-0.2,0-0.4,0.1c0,0,0,0-0.1,0
	c-0.1,0.1-0.2,0.1-0.3,0.2c0,0,0,0-0.1,0.1c0,0,0,0-0.1,0.1L8.9,15.9c-0.3,0.4-0.4,1-0.1,1.4l13.5,21.1c-1.6,2.5-2.5,5.5-2.5,8.6
	c0,8.8,7.2,16,16,16s16-7.2,16-16c0-3.2-1-6.2-2.6-8.7l13.4-21C62.9,16.9,62.8,16.3,62.5,15.9z M35.8,31c-0.4,0-0.7,0-1.1,0.1
	l-8.3-13.6H45L36.7,31C36.4,31,36.1,31,35.8,31z M46.5,15H24.9l-4.5-7.4H51L46.5,15z M11.3,16.8l6.8-8.3l14,23
	c-3.2,0.8-6.1,2.5-8.3,4.9L11.3,16.8z M35.8,60.7c-7.5,0-13.6-6.1-13.6-13.6s6.1-13.6,13.6-13.6S49.4,39.5,49.4,47
	S43.3,60.7,35.8,60.7z M47.6,36.3c-2.2-2.4-5-4.1-8.3-4.9L53.3,8.5l6.8,8.3L47.6,36.3z M41.1,45.3l-3.4,2.5l1.3,4l-3.4-2.5l-3.4,2.5
	l1.3-4l-3.4-2.5h4.2l1.3-4l1.3,4C36.9,45.3,41.1,45.3,41.1,45.3z"/>
</svg>
