<?xml version="1.0" encoding="utf-8"?>
<!-- Generator: Adobe Illustrator 23.1.1, SVG Export Plug-In . SVG Version: 6.00 Build 0)  -->
<!DOCTYPE svg PUBLIC "-//W3C//DTD SVG 1.1//EN" "http://www.w3.org/Graphics/SVG/1.1/DTD/svg11.dtd" [
	<!ENTITY ns_extend "http://ns.adobe.com/Extensibility/1.0/">
	<!ENTITY ns_ai "http://ns.adobe.com/AdobeIllustrator/10.0/">
	<!ENTITY ns_graphs "http://ns.adobe.com/Graphs/1.0/">
	<!ENTITY ns_vars "http://ns.adobe.com/Variables/1.0/">
	<!ENTITY ns_imrep "http://ns.adobe.com/ImageReplacement/1.0/">
	<!ENTITY ns_sfw "http://ns.adobe.com/SaveForWeb/1.0/">
	<!ENTITY ns_custom "http://ns.adobe.com/GenericCustomNamespace/1.0/">
	<!ENTITY ns_adobe_xpath "http://ns.adobe.com/XPath/1.0/">
]>
<svg version="1.1" id="Layer_1" xmlns:x="&ns_extend;" xmlns:i="&ns_ai;" xmlns:graph="&ns_graphs;"
	 xmlns="http://www.w3.org/2000/svg" xmlns:xlink="http://www.w3.org/1999/xlink" x="0px" y="0px" width="71.4px" height="68.25px"
	 viewBox="0 0 71.4 68.25" style="enable-background:new 0 0 71.4 68.25;" xml:space="preserve">
<style type="text/css">
	.st0{fill:url(#SVGID_1_);}
</style>
<metadata>
	<sfw  xmlns="&ns_sfw;">
		<slices></slices>
		<sliceSourceBounds  bottomLeftOrigin="true" height="54.98" width="58.61" x="49.69" y="101.51"></sliceSourceBounds>
	</sfw>
</metadata>
<linearGradient id="SVGID_1_" gradientUnits="userSpaceOnUse" x1="12.417" y1="56.0948" x2="65.4352" y2="2.5094" gradientTransform="matrix(1 0 0 -1 0 70.25)">
	<stop  offset="0" style="stop-color:#E1A03E"/>
	<stop  offset="1" style="stop-color:#DC6431"/>
</linearGradient>
<path class="st0" d="M60.35,27.35l-4.48-14.67c1.09-0.51,1.84-1.6,1.84-2.87c0.01-1.75-1.42-3.18-3.17-3.18
	c-1.74,0-3.15,1.41-3.17,3.14l-11.62,4.54c-0.9-1.28-2.38-2.12-4.05-2.12c-2.74,0-4.97,2.23-4.97,4.97c0,0.22,0.04,0.43,0.07,0.65
	l-11.58,4.54c-0.58-0.6-1.39-0.98-2.29-0.98c-1.75,0-3.17,1.43-3.17,3.18c0,1.27,0.75,2.35,1.82,2.86l-4.64,15.2H6.4v1.18
	c0,4.94,4.69,8.96,10.46,8.96s10.46-4.02,10.46-8.96v-1.18h-4.54L18.16,27.5c1.15-0.48,1.96-1.61,1.96-2.93l0,0l11.54-4.53
	c0.68,0.96,1.69,1.66,2.87,1.95v32.65H23.1v4.61H12.73v2.37H58.7v-2.37H48.3v-4.61H36.89V21.98c2.17-0.53,3.78-2.48,3.78-4.81
	c0-0.22-0.04-0.43-0.06-0.64l11.64-4.54c0.28,0.29,0.6,0.53,0.97,0.7l-4.48,14.67H44.1v1.18c0,4.94,4.69,8.96,10.45,8.96
	c5.77,0,10.46-4.02,10.46-8.96v-1.18C65.01,27.36,60.35,27.36,60.35,27.35z M16.94,23.74c0.45,0,0.81,0.36,0.81,0.81
	c0,0.45-0.36,0.81-0.81,0.81c-0.44,0-0.81-0.36-0.81-0.81C16.12,24.1,16.49,23.74,16.94,23.74z M24.82,44.97
	c-0.69,3.07-3.99,5.41-7.96,5.41s-7.27-2.34-7.96-5.41H24.82z M20.28,42.61h-6.87l3.44-11.25L20.28,42.61z M45.92,57v2.24H25.48V57
	H45.92z M35.71,19.76c-1.43,0-2.6-1.17-2.6-2.6s1.16-2.6,2.6-2.6c1.44,0,2.6,1.17,2.6,2.6C38.29,18.6,37.14,19.76,35.71,19.76z
	 M54.55,9.01c0.45,0,0.81,0.36,0.81,0.81c0,0.45-0.36,0.81-0.81,0.81c-0.44,0-0.81-0.36-0.81-0.81C53.74,9.36,54.1,9.01,54.55,9.01z
	 M54.55,16.42l3.34,10.92h-6.67L54.55,16.42z M54.55,35.12c-3.96,0-7.27-2.34-7.96-5.41h15.92C61.81,32.79,58.51,35.12,54.55,35.12z
	 M8.47,59.22h2.16v2.37H8.47V59.22z M60.67,59.22h2.16v2.37h-2.16V59.22z"/>
</svg>
